<mxfile host="app.diagrams.net" modified="2024-03-01T10:03:58.427Z" agent="Mozilla/5.0 (Windows NT 10.0; Win64; x64) AppleWebKit/537.36 (KHTML, like Gecko) Chrome/122.0.0.0 Safari/537.36 Edg/122.0.0.0" etag="wj-30vAO_fLaccNvgX4t" version="23.1.8" type="github">
  <diagram name="第 1 页" id="gkTEYUcJrN9gBIkVht4z">
    <mxGraphModel dx="10488" dy="5469" grid="1" gridSize="10" guides="1" tooltips="1" connect="1" arrows="1" fold="1" page="1" pageScale="1" pageWidth="827" pageHeight="1169" math="0" shadow="0">
      <root>
        <mxCell id="0" />
        <mxCell id="1" parent="0" />
        <mxCell id="GJ4CANVCQQ8pxDGnjlaz-97" value="" style="edgeStyle=orthogonalEdgeStyle;rounded=0;orthogonalLoop=1;jettySize=auto;html=1;" edge="1" parent="1" source="GJ4CANVCQQ8pxDGnjlaz-95" target="GJ4CANVCQQ8pxDGnjlaz-96">
          <mxGeometry relative="1" as="geometry" />
        </mxCell>
        <mxCell id="GJ4CANVCQQ8pxDGnjlaz-95" value="登录接口：&lt;br&gt;&lt;font style=&quot;font-size: 8px;&quot;&gt;/v1/oauth2/authorize&lt;/font&gt;" style="rounded=1;whiteSpace=wrap;html=1;" vertex="1" parent="1">
          <mxGeometry x="-2400" y="-350" width="120" height="60" as="geometry" />
        </mxCell>
        <mxCell id="GJ4CANVCQQ8pxDGnjlaz-101" style="edgeStyle=orthogonalEdgeStyle;rounded=0;orthogonalLoop=1;jettySize=auto;html=1;exitX=0.5;exitY=1;exitDx=0;exitDy=0;entryX=0.5;entryY=0;entryDx=0;entryDy=0;" edge="1" parent="1" source="GJ4CANVCQQ8pxDGnjlaz-96" target="GJ4CANVCQQ8pxDGnjlaz-100">
          <mxGeometry relative="1" as="geometry" />
        </mxCell>
        <mxCell id="GJ4CANVCQQ8pxDGnjlaz-96" value="校验系统终端" style="whiteSpace=wrap;html=1;rounded=1;" vertex="1" parent="1">
          <mxGeometry x="-2400" y="-240" width="120" height="60" as="geometry" />
        </mxCell>
        <mxCell id="GJ4CANVCQQ8pxDGnjlaz-122" value="" style="edgeStyle=orthogonalEdgeStyle;rounded=0;orthogonalLoop=1;jettySize=auto;html=1;" edge="1" parent="1" source="GJ4CANVCQQ8pxDGnjlaz-100" target="GJ4CANVCQQ8pxDGnjlaz-102">
          <mxGeometry relative="1" as="geometry" />
        </mxCell>
        <mxCell id="GJ4CANVCQQ8pxDGnjlaz-123" value="有" style="edgeLabel;html=1;align=center;verticalAlign=middle;resizable=0;points=[];" vertex="1" connectable="0" parent="GJ4CANVCQQ8pxDGnjlaz-122">
          <mxGeometry x="-0.1249" relative="1" as="geometry">
            <mxPoint as="offset" />
          </mxGeometry>
        </mxCell>
        <mxCell id="GJ4CANVCQQ8pxDGnjlaz-125" value="" style="edgeStyle=orthogonalEdgeStyle;rounded=0;orthogonalLoop=1;jettySize=auto;html=1;" edge="1" parent="1" source="GJ4CANVCQQ8pxDGnjlaz-100" target="GJ4CANVCQQ8pxDGnjlaz-124">
          <mxGeometry relative="1" as="geometry" />
        </mxCell>
        <mxCell id="GJ4CANVCQQ8pxDGnjlaz-100" value="&lt;font style=&quot;font-size: 8px;&quot;&gt;请求头中是否有Token？&lt;/font&gt;" style="rhombus;whiteSpace=wrap;html=1;" vertex="1" parent="1">
          <mxGeometry x="-2400" y="-134" width="120" height="50" as="geometry" />
        </mxCell>
        <mxCell id="GJ4CANVCQQ8pxDGnjlaz-109" value="" style="edgeStyle=orthogonalEdgeStyle;rounded=0;orthogonalLoop=1;jettySize=auto;html=1;" edge="1" parent="1" source="GJ4CANVCQQ8pxDGnjlaz-102" target="GJ4CANVCQQ8pxDGnjlaz-108">
          <mxGeometry relative="1" as="geometry" />
        </mxCell>
        <mxCell id="GJ4CANVCQQ8pxDGnjlaz-110" value="有效" style="edgeLabel;html=1;align=center;verticalAlign=middle;resizable=0;points=[];" vertex="1" connectable="0" parent="GJ4CANVCQQ8pxDGnjlaz-109">
          <mxGeometry x="-0.1998" y="-2" relative="1" as="geometry">
            <mxPoint as="offset" />
          </mxGeometry>
        </mxCell>
        <mxCell id="GJ4CANVCQQ8pxDGnjlaz-102" value="&lt;span style=&quot;font-size: 8px;&quot;&gt;Token是否有效？&lt;/span&gt;" style="rhombus;whiteSpace=wrap;html=1;fillColor=#e1d5e7;strokeColor=#9673a6;" vertex="1" parent="1">
          <mxGeometry x="-2200" y="-134" width="120" height="50" as="geometry" />
        </mxCell>
        <mxCell id="GJ4CANVCQQ8pxDGnjlaz-107" value="返回“授权验证失败，请重新登录&lt;span style=&quot;background-color: initial;&quot;&gt;”&lt;/span&gt;" style="rounded=1;whiteSpace=wrap;html=1;fillColor=#f8cecc;strokeColor=#b85450;" vertex="1" parent="1">
          <mxGeometry x="-1970" y="-139" width="120" height="60" as="geometry" />
        </mxCell>
        <mxCell id="GJ4CANVCQQ8pxDGnjlaz-114" value="" style="edgeStyle=orthogonalEdgeStyle;rounded=0;orthogonalLoop=1;jettySize=auto;html=1;" edge="1" parent="1" source="GJ4CANVCQQ8pxDGnjlaz-108" target="GJ4CANVCQQ8pxDGnjlaz-113">
          <mxGeometry relative="1" as="geometry" />
        </mxCell>
        <mxCell id="GJ4CANVCQQ8pxDGnjlaz-120" value="否" style="edgeLabel;html=1;align=center;verticalAlign=middle;resizable=0;points=[];" vertex="1" connectable="0" parent="GJ4CANVCQQ8pxDGnjlaz-114">
          <mxGeometry x="-0.322" relative="1" as="geometry">
            <mxPoint as="offset" />
          </mxGeometry>
        </mxCell>
        <mxCell id="GJ4CANVCQQ8pxDGnjlaz-118" value="" style="edgeStyle=orthogonalEdgeStyle;rounded=0;orthogonalLoop=1;jettySize=auto;html=1;" edge="1" parent="1" source="GJ4CANVCQQ8pxDGnjlaz-108" target="GJ4CANVCQQ8pxDGnjlaz-117">
          <mxGeometry relative="1" as="geometry" />
        </mxCell>
        <mxCell id="GJ4CANVCQQ8pxDGnjlaz-119" value="是" style="edgeLabel;html=1;align=center;verticalAlign=middle;resizable=0;points=[];" vertex="1" connectable="0" parent="GJ4CANVCQQ8pxDGnjlaz-118">
          <mxGeometry x="0.0559" y="1" relative="1" as="geometry">
            <mxPoint as="offset" />
          </mxGeometry>
        </mxCell>
        <mxCell id="GJ4CANVCQQ8pxDGnjlaz-108" value="&lt;span style=&quot;font-size: 8px;&quot;&gt;是否client模式&lt;/span&gt;" style="rhombus;whiteSpace=wrap;html=1;" vertex="1" parent="1">
          <mxGeometry x="-2200" width="120" height="50" as="geometry" />
        </mxCell>
        <mxCell id="GJ4CANVCQQ8pxDGnjlaz-135" style="edgeStyle=orthogonalEdgeStyle;rounded=0;orthogonalLoop=1;jettySize=auto;html=1;exitX=0.5;exitY=1;exitDx=0;exitDy=0;entryX=0.5;entryY=0;entryDx=0;entryDy=0;" edge="1" parent="1" source="GJ4CANVCQQ8pxDGnjlaz-113" target="GJ4CANVCQQ8pxDGnjlaz-136">
          <mxGeometry relative="1" as="geometry">
            <mxPoint x="-2340" y="270" as="targetPoint" />
          </mxGeometry>
        </mxCell>
        <mxCell id="GJ4CANVCQQ8pxDGnjlaz-113" value="使用账号密码进行鉴权" style="whiteSpace=wrap;html=1;fillColor=#dae8fc;strokeColor=#6c8ebf;" vertex="1" parent="1">
          <mxGeometry x="-2200" y="120" width="120" height="60" as="geometry" />
        </mxCell>
        <mxCell id="GJ4CANVCQQ8pxDGnjlaz-117" value="从Redis中获取用户信息返回" style="rounded=1;whiteSpace=wrap;html=1;fillColor=#d5e8d4;strokeColor=#82b366;" vertex="1" parent="1">
          <mxGeometry x="-1970" y="-5" width="120" height="60" as="geometry" />
        </mxCell>
        <mxCell id="GJ4CANVCQQ8pxDGnjlaz-121" value="无效" style="edgeStyle=orthogonalEdgeStyle;rounded=0;orthogonalLoop=1;jettySize=auto;html=1;exitX=1;exitY=0.5;exitDx=0;exitDy=0;entryX=-0.023;entryY=0.497;entryDx=0;entryDy=0;entryPerimeter=0;" edge="1" parent="1" source="GJ4CANVCQQ8pxDGnjlaz-102" target="GJ4CANVCQQ8pxDGnjlaz-107">
          <mxGeometry relative="1" as="geometry" />
        </mxCell>
        <mxCell id="GJ4CANVCQQ8pxDGnjlaz-127" value="" style="edgeStyle=orthogonalEdgeStyle;rounded=0;orthogonalLoop=1;jettySize=auto;html=1;" edge="1" parent="1" source="GJ4CANVCQQ8pxDGnjlaz-124" target="GJ4CANVCQQ8pxDGnjlaz-126">
          <mxGeometry relative="1" as="geometry" />
        </mxCell>
        <mxCell id="GJ4CANVCQQ8pxDGnjlaz-129" value="是" style="edgeLabel;html=1;align=center;verticalAlign=middle;resizable=0;points=[];" vertex="1" connectable="0" parent="GJ4CANVCQQ8pxDGnjlaz-127">
          <mxGeometry x="0.1249" y="2" relative="1" as="geometry">
            <mxPoint x="75" y="-15" as="offset" />
          </mxGeometry>
        </mxCell>
        <mxCell id="GJ4CANVCQQ8pxDGnjlaz-128" style="edgeStyle=orthogonalEdgeStyle;rounded=0;orthogonalLoop=1;jettySize=auto;html=1;entryX=0;entryY=0.5;entryDx=0;entryDy=0;exitX=0.5;exitY=1;exitDx=0;exitDy=0;" edge="1" parent="1" source="GJ4CANVCQQ8pxDGnjlaz-124" target="GJ4CANVCQQ8pxDGnjlaz-113">
          <mxGeometry relative="1" as="geometry" />
        </mxCell>
        <mxCell id="GJ4CANVCQQ8pxDGnjlaz-130" value="否" style="edgeLabel;html=1;align=center;verticalAlign=middle;resizable=0;points=[];" vertex="1" connectable="0" parent="GJ4CANVCQQ8pxDGnjlaz-128">
          <mxGeometry x="0.4343" y="-1" relative="1" as="geometry">
            <mxPoint as="offset" />
          </mxGeometry>
        </mxCell>
        <mxCell id="GJ4CANVCQQ8pxDGnjlaz-124" value="&lt;span style=&quot;font-size: 8px;&quot;&gt;登录系统 = APP?&lt;/span&gt;" style="rhombus;whiteSpace=wrap;html=1;" vertex="1" parent="1">
          <mxGeometry x="-2400" y="-10" width="120" height="50" as="geometry" />
        </mxCell>
        <mxCell id="GJ4CANVCQQ8pxDGnjlaz-134" style="edgeStyle=orthogonalEdgeStyle;rounded=0;orthogonalLoop=1;jettySize=auto;html=1;exitX=0.5;exitY=1;exitDx=0;exitDy=0;entryX=0.5;entryY=0;entryDx=0;entryDy=0;" edge="1" parent="1" source="GJ4CANVCQQ8pxDGnjlaz-126" target="GJ4CANVCQQ8pxDGnjlaz-136">
          <mxGeometry relative="1" as="geometry">
            <mxPoint x="-2340" y="270" as="targetPoint" />
          </mxGeometry>
        </mxCell>
        <mxCell id="GJ4CANVCQQ8pxDGnjlaz-126" value="进行移动登录校验" style="whiteSpace=wrap;html=1;fillColor=#dae8fc;strokeColor=#6c8ebf;" vertex="1" parent="1">
          <mxGeometry x="-2560" y="120" width="120" height="60" as="geometry" />
        </mxCell>
        <mxCell id="GJ4CANVCQQ8pxDGnjlaz-138" value="" style="edgeStyle=orthogonalEdgeStyle;rounded=0;orthogonalLoop=1;jettySize=auto;html=1;" edge="1" parent="1" source="GJ4CANVCQQ8pxDGnjlaz-163" target="GJ4CANVCQQ8pxDGnjlaz-137">
          <mxGeometry relative="1" as="geometry" />
        </mxCell>
        <mxCell id="GJ4CANVCQQ8pxDGnjlaz-153" value="" style="edgeStyle=orthogonalEdgeStyle;rounded=0;orthogonalLoop=1;jettySize=auto;html=1;" edge="1" parent="1" source="GJ4CANVCQQ8pxDGnjlaz-136" target="GJ4CANVCQQ8pxDGnjlaz-151">
          <mxGeometry relative="1" as="geometry" />
        </mxCell>
        <mxCell id="GJ4CANVCQQ8pxDGnjlaz-156" value="否" style="edgeLabel;html=1;align=center;verticalAlign=middle;resizable=0;points=[];" vertex="1" connectable="0" parent="GJ4CANVCQQ8pxDGnjlaz-153">
          <mxGeometry x="-0.5057" y="2" relative="1" as="geometry">
            <mxPoint as="offset" />
          </mxGeometry>
        </mxCell>
        <mxCell id="GJ4CANVCQQ8pxDGnjlaz-136" value="&lt;span style=&quot;font-size: 8px;&quot;&gt;是否client模式&lt;/span&gt;" style="rhombus;whiteSpace=wrap;html=1;" vertex="1" parent="1">
          <mxGeometry x="-2400" y="270" width="120" height="50" as="geometry" />
        </mxCell>
        <mxCell id="GJ4CANVCQQ8pxDGnjlaz-137" value="返回用户信息&lt;br&gt;（带Token）" style="whiteSpace=wrap;html=1;rounded=1;fillColor=#d5e8d4;strokeColor=#82b366;" vertex="1" parent="1">
          <mxGeometry x="-1980" y="265" width="120" height="60" as="geometry" />
        </mxCell>
        <mxCell id="GJ4CANVCQQ8pxDGnjlaz-152" value="" style="edgeStyle=orthogonalEdgeStyle;rounded=0;orthogonalLoop=1;jettySize=auto;html=1;" edge="1" parent="1" source="GJ4CANVCQQ8pxDGnjlaz-145" target="GJ4CANVCQQ8pxDGnjlaz-147">
          <mxGeometry relative="1" as="geometry" />
        </mxCell>
        <mxCell id="GJ4CANVCQQ8pxDGnjlaz-155" value="是" style="edgeLabel;html=1;align=center;verticalAlign=middle;resizable=0;points=[];" vertex="1" connectable="0" parent="GJ4CANVCQQ8pxDGnjlaz-152">
          <mxGeometry x="-0.365" y="1" relative="1" as="geometry">
            <mxPoint as="offset" />
          </mxGeometry>
        </mxCell>
        <mxCell id="GJ4CANVCQQ8pxDGnjlaz-161" value="" style="edgeStyle=orthogonalEdgeStyle;rounded=0;orthogonalLoop=1;jettySize=auto;html=1;" edge="1" parent="1" source="GJ4CANVCQQ8pxDGnjlaz-145" target="GJ4CANVCQQ8pxDGnjlaz-160">
          <mxGeometry relative="1" as="geometry" />
        </mxCell>
        <mxCell id="GJ4CANVCQQ8pxDGnjlaz-167" value="否（即为token模式）" style="edgeLabel;html=1;align=center;verticalAlign=middle;resizable=0;points=[];" vertex="1" connectable="0" parent="GJ4CANVCQQ8pxDGnjlaz-161">
          <mxGeometry x="-0.3061" y="1" relative="1" as="geometry">
            <mxPoint x="8" y="1" as="offset" />
          </mxGeometry>
        </mxCell>
        <mxCell id="GJ4CANVCQQ8pxDGnjlaz-145" value="&lt;span style=&quot;font-size: 8px;&quot;&gt;是否code模式&lt;/span&gt;" style="rhombus;whiteSpace=wrap;html=1;" vertex="1" parent="1">
          <mxGeometry x="-2400" y="465" width="120" height="50" as="geometry" />
        </mxCell>
        <mxCell id="GJ4CANVCQQ8pxDGnjlaz-150" value="" style="edgeStyle=orthogonalEdgeStyle;rounded=0;orthogonalLoop=1;jettySize=auto;html=1;" edge="1" parent="1" source="GJ4CANVCQQ8pxDGnjlaz-147" target="GJ4CANVCQQ8pxDGnjlaz-149">
          <mxGeometry relative="1" as="geometry" />
        </mxCell>
        <mxCell id="GJ4CANVCQQ8pxDGnjlaz-147" value="使用密码覆盖Token" style="whiteSpace=wrap;html=1;" vertex="1" parent="1">
          <mxGeometry x="-2400" y="570" width="120" height="60" as="geometry" />
        </mxCell>
        <mxCell id="GJ4CANVCQQ8pxDGnjlaz-166" style="edgeStyle=orthogonalEdgeStyle;rounded=0;orthogonalLoop=1;jettySize=auto;html=1;exitX=1;exitY=0.5;exitDx=0;exitDy=0;entryX=0.5;entryY=1;entryDx=0;entryDy=0;" edge="1" parent="1" source="GJ4CANVCQQ8pxDGnjlaz-149" target="GJ4CANVCQQ8pxDGnjlaz-160">
          <mxGeometry relative="1" as="geometry" />
        </mxCell>
        <mxCell id="GJ4CANVCQQ8pxDGnjlaz-149" value="维护授权码和用户信息Redis缓存" style="whiteSpace=wrap;html=1;" vertex="1" parent="1">
          <mxGeometry x="-2400" y="685" width="120" height="60" as="geometry" />
        </mxCell>
        <mxCell id="GJ4CANVCQQ8pxDGnjlaz-154" value="" style="edgeStyle=orthogonalEdgeStyle;rounded=0;orthogonalLoop=1;jettySize=auto;html=1;" edge="1" parent="1" source="GJ4CANVCQQ8pxDGnjlaz-151" target="GJ4CANVCQQ8pxDGnjlaz-145">
          <mxGeometry relative="1" as="geometry" />
        </mxCell>
        <mxCell id="GJ4CANVCQQ8pxDGnjlaz-151" value="随机生成授权码" style="whiteSpace=wrap;html=1;" vertex="1" parent="1">
          <mxGeometry x="-2400" y="360" width="120" height="60" as="geometry" />
        </mxCell>
        <mxCell id="GJ4CANVCQQ8pxDGnjlaz-160" value="只返回授权码" style="whiteSpace=wrap;html=1;rounded=1;fillColor=#d5e8d4;strokeColor=#82b366;" vertex="1" parent="1">
          <mxGeometry x="-1980" y="460" width="120" height="60" as="geometry" />
        </mxCell>
        <mxCell id="GJ4CANVCQQ8pxDGnjlaz-164" value="" style="edgeStyle=orthogonalEdgeStyle;rounded=0;orthogonalLoop=1;jettySize=auto;html=1;" edge="1" parent="1" source="GJ4CANVCQQ8pxDGnjlaz-136" target="GJ4CANVCQQ8pxDGnjlaz-163">
          <mxGeometry relative="1" as="geometry">
            <mxPoint x="-2280" y="295" as="sourcePoint" />
            <mxPoint x="-1980" y="295" as="targetPoint" />
          </mxGeometry>
        </mxCell>
        <mxCell id="GJ4CANVCQQ8pxDGnjlaz-165" value="是" style="edgeLabel;html=1;align=center;verticalAlign=middle;resizable=0;points=[];" vertex="1" connectable="0" parent="GJ4CANVCQQ8pxDGnjlaz-164">
          <mxGeometry x="-0.2348" y="1" relative="1" as="geometry">
            <mxPoint as="offset" />
          </mxGeometry>
        </mxCell>
        <mxCell id="GJ4CANVCQQ8pxDGnjlaz-163" value="生成Token" style="whiteSpace=wrap;html=1;" vertex="1" parent="1">
          <mxGeometry x="-2193" y="265" width="120" height="60" as="geometry" />
        </mxCell>
        <mxCell id="GJ4CANVCQQ8pxDGnjlaz-174" value="" style="group" vertex="1" connectable="0" parent="1">
          <mxGeometry x="-260" y="-480" width="1940" height="1610" as="geometry" />
        </mxCell>
        <mxCell id="GJ4CANVCQQ8pxDGnjlaz-168" value="" style="rounded=0;whiteSpace=wrap;html=1;" vertex="1" parent="GJ4CANVCQQ8pxDGnjlaz-174">
          <mxGeometry width="1940" height="1610" as="geometry" />
        </mxCell>
        <mxCell id="GJ4CANVCQQ8pxDGnjlaz-1" value="鉴权接口：&lt;br&gt;&lt;font style=&quot;font-size: 8px;&quot;&gt;/v1/oauth2/checkAccessTokenV2&lt;/font&gt;" style="rounded=1;whiteSpace=wrap;html=1;" vertex="1" parent="GJ4CANVCQQ8pxDGnjlaz-174">
          <mxGeometry x="250" y="580" width="120" height="60" as="geometry" />
        </mxCell>
        <mxCell id="GJ4CANVCQQ8pxDGnjlaz-25" value="返回Token失效" style="whiteSpace=wrap;html=1;rounded=1;fillColor=#f8cecc;strokeColor=#b85450;" vertex="1" parent="GJ4CANVCQQ8pxDGnjlaz-174">
          <mxGeometry x="50" y="720" width="120" height="60" as="geometry" />
        </mxCell>
        <mxCell id="GJ4CANVCQQ8pxDGnjlaz-26" value="" style="edgeStyle=orthogonalEdgeStyle;rounded=0;orthogonalLoop=1;jettySize=auto;html=1;" edge="1" parent="GJ4CANVCQQ8pxDGnjlaz-174" target="GJ4CANVCQQ8pxDGnjlaz-25">
          <mxGeometry relative="1" as="geometry">
            <mxPoint x="250" y="750" as="sourcePoint" />
          </mxGeometry>
        </mxCell>
        <mxCell id="GJ4CANVCQQ8pxDGnjlaz-44" value="" style="group" vertex="1" connectable="0" parent="GJ4CANVCQQ8pxDGnjlaz-174">
          <mxGeometry x="750" y="330" width="470" height="570" as="geometry" />
        </mxCell>
        <mxCell id="GJ4CANVCQQ8pxDGnjlaz-43" value="" style="rounded=0;whiteSpace=wrap;html=1;" vertex="1" parent="GJ4CANVCQQ8pxDGnjlaz-44">
          <mxGeometry width="470" height="570" as="geometry" />
        </mxCell>
        <mxCell id="GJ4CANVCQQ8pxDGnjlaz-4" value="&lt;ol&gt;&lt;li&gt;白名单拦截 - 如果Token为白名单Token，直接校验成功&lt;/li&gt;&lt;li&gt;JWT秘钥校验 - 秘钥解密Token，看是否为DF颁发Token&lt;/li&gt;&lt;li&gt;过期校验 - 通过Redis中缓存判断Token过期&lt;/li&gt;&lt;li&gt;进行Token时间延续动作，并返回校验成功&lt;/li&gt;&lt;/ol&gt;" style="rounded=0;whiteSpace=wrap;html=1;align=left;" vertex="1" parent="GJ4CANVCQQ8pxDGnjlaz-44">
          <mxGeometry y="40" width="470" height="60" as="geometry" />
        </mxCell>
        <mxCell id="GJ4CANVCQQ8pxDGnjlaz-10" value="是否白名单Token" style="rhombus;whiteSpace=wrap;html=1;" vertex="1" parent="GJ4CANVCQQ8pxDGnjlaz-44">
          <mxGeometry x="209.36363636363635" y="150" width="128.1818181818182" height="50" as="geometry" />
        </mxCell>
        <mxCell id="GJ4CANVCQQ8pxDGnjlaz-12" value="JWT秘钥校验" style="rhombus;whiteSpace=wrap;html=1;" vertex="1" parent="GJ4CANVCQQ8pxDGnjlaz-44">
          <mxGeometry x="209.36363636363635" y="240" width="128.1818181818182" height="50" as="geometry" />
        </mxCell>
        <mxCell id="GJ4CANVCQQ8pxDGnjlaz-13" value="" style="edgeStyle=orthogonalEdgeStyle;rounded=0;orthogonalLoop=1;jettySize=auto;html=1;" edge="1" parent="GJ4CANVCQQ8pxDGnjlaz-44" source="GJ4CANVCQQ8pxDGnjlaz-10" target="GJ4CANVCQQ8pxDGnjlaz-12">
          <mxGeometry relative="1" as="geometry" />
        </mxCell>
        <mxCell id="GJ4CANVCQQ8pxDGnjlaz-14" value="否" style="edgeLabel;html=1;align=center;verticalAlign=middle;resizable=0;points=[];" vertex="1" connectable="0" parent="GJ4CANVCQQ8pxDGnjlaz-13">
          <mxGeometry x="-0.0565" y="1" relative="1" as="geometry">
            <mxPoint as="offset" />
          </mxGeometry>
        </mxCell>
        <mxCell id="GJ4CANVCQQ8pxDGnjlaz-15" value="过期校验" style="rhombus;whiteSpace=wrap;html=1;" vertex="1" parent="GJ4CANVCQQ8pxDGnjlaz-44">
          <mxGeometry x="209.36363636363635" y="320" width="128.1818181818182" height="50" as="geometry" />
        </mxCell>
        <mxCell id="GJ4CANVCQQ8pxDGnjlaz-16" value="" style="edgeStyle=orthogonalEdgeStyle;rounded=0;orthogonalLoop=1;jettySize=auto;html=1;" edge="1" parent="GJ4CANVCQQ8pxDGnjlaz-44" source="GJ4CANVCQQ8pxDGnjlaz-12" target="GJ4CANVCQQ8pxDGnjlaz-15">
          <mxGeometry relative="1" as="geometry" />
        </mxCell>
        <mxCell id="GJ4CANVCQQ8pxDGnjlaz-17" value="通过" style="edgeLabel;html=1;align=center;verticalAlign=middle;resizable=0;points=[];" vertex="1" connectable="0" parent="GJ4CANVCQQ8pxDGnjlaz-16">
          <mxGeometry x="-0.3498" y="1" relative="1" as="geometry">
            <mxPoint as="offset" />
          </mxGeometry>
        </mxCell>
        <mxCell id="GJ4CANVCQQ8pxDGnjlaz-18" value="Redis中Token缓存有效期刷新" style="whiteSpace=wrap;html=1;" vertex="1" parent="GJ4CANVCQQ8pxDGnjlaz-44">
          <mxGeometry x="209.36363636363635" y="410" width="128.1818181818182" height="60" as="geometry" />
        </mxCell>
        <mxCell id="GJ4CANVCQQ8pxDGnjlaz-19" value="" style="edgeStyle=orthogonalEdgeStyle;rounded=0;orthogonalLoop=1;jettySize=auto;html=1;" edge="1" parent="GJ4CANVCQQ8pxDGnjlaz-44" source="GJ4CANVCQQ8pxDGnjlaz-15" target="GJ4CANVCQQ8pxDGnjlaz-18">
          <mxGeometry relative="1" as="geometry" />
        </mxCell>
        <mxCell id="GJ4CANVCQQ8pxDGnjlaz-40" value="未过期" style="edgeLabel;html=1;align=center;verticalAlign=middle;resizable=0;points=[];" vertex="1" connectable="0" parent="GJ4CANVCQQ8pxDGnjlaz-19">
          <mxGeometry x="-0.0925" y="1" relative="1" as="geometry">
            <mxPoint as="offset" />
          </mxGeometry>
        </mxCell>
        <mxCell id="GJ4CANVCQQ8pxDGnjlaz-28" value="&lt;font style=&quot;font-size: 24px;&quot;&gt;&lt;br&gt;&lt;span style=&quot;color: rgb(0, 0, 0); font-family: Helvetica; font-style: normal; font-variant-ligatures: normal; font-variant-caps: normal; font-weight: 400; letter-spacing: normal; orphans: 2; text-align: center; text-indent: 0px; text-transform: none; widows: 2; word-spacing: 0px; -webkit-text-stroke-width: 0px; background-color: rgb(251, 251, 251); text-decoration-thickness: initial; text-decoration-style: initial; text-decoration-color: initial; float: none; display: inline !important;&quot;&gt;Token校验&lt;/span&gt;&lt;br&gt;&lt;/font&gt;" style="text;html=1;align=center;verticalAlign=middle;whiteSpace=wrap;rounded=0;" vertex="1" parent="GJ4CANVCQQ8pxDGnjlaz-44">
          <mxGeometry x="128.1818181818182" width="153.8181818181818" height="10" as="geometry" />
        </mxCell>
        <mxCell id="GJ4CANVCQQ8pxDGnjlaz-29" value="True" style="ellipse;whiteSpace=wrap;html=1;aspect=fixed;fillColor=#d5e8d4;strokeColor=#82b366;" vertex="1" parent="GJ4CANVCQQ8pxDGnjlaz-44">
          <mxGeometry x="246.75" y="500" width="50" height="50" as="geometry" />
        </mxCell>
        <mxCell id="GJ4CANVCQQ8pxDGnjlaz-36" value="" style="edgeStyle=orthogonalEdgeStyle;rounded=0;orthogonalLoop=1;jettySize=auto;html=1;entryX=1;entryY=0.5;entryDx=0;entryDy=0;" edge="1" parent="GJ4CANVCQQ8pxDGnjlaz-44" source="GJ4CANVCQQ8pxDGnjlaz-10" target="GJ4CANVCQQ8pxDGnjlaz-29">
          <mxGeometry relative="1" as="geometry">
            <mxPoint x="423" y="175" as="targetPoint" />
            <Array as="points">
              <mxPoint x="416.59090909090907" y="175" />
              <mxPoint x="416.59090909090907" y="525" />
            </Array>
          </mxGeometry>
        </mxCell>
        <mxCell id="GJ4CANVCQQ8pxDGnjlaz-37" value="是" style="edgeLabel;html=1;align=center;verticalAlign=middle;resizable=0;points=[];" vertex="1" connectable="0" parent="GJ4CANVCQQ8pxDGnjlaz-36">
          <mxGeometry x="-0.8671" y="2" relative="1" as="geometry">
            <mxPoint as="offset" />
          </mxGeometry>
        </mxCell>
        <mxCell id="GJ4CANVCQQ8pxDGnjlaz-32" style="edgeStyle=orthogonalEdgeStyle;rounded=0;orthogonalLoop=1;jettySize=auto;html=1;exitX=0.5;exitY=1;exitDx=0;exitDy=0;entryX=0.5;entryY=0;entryDx=0;entryDy=0;" edge="1" parent="GJ4CANVCQQ8pxDGnjlaz-44" source="GJ4CANVCQQ8pxDGnjlaz-18" target="GJ4CANVCQQ8pxDGnjlaz-29">
          <mxGeometry relative="1" as="geometry" />
        </mxCell>
        <mxCell id="GJ4CANVCQQ8pxDGnjlaz-30" value="校验失败" style="ellipse;whiteSpace=wrap;html=1;aspect=fixed;fillColor=#f8cecc;strokeColor=#b85450;" vertex="1" parent="GJ4CANVCQQ8pxDGnjlaz-44">
          <mxGeometry x="32.04545454545455" y="240" width="50" height="50" as="geometry" />
        </mxCell>
        <mxCell id="GJ4CANVCQQ8pxDGnjlaz-38" style="edgeStyle=orthogonalEdgeStyle;rounded=0;orthogonalLoop=1;jettySize=auto;html=1;exitX=0;exitY=0.5;exitDx=0;exitDy=0;entryX=1;entryY=0.5;entryDx=0;entryDy=0;" edge="1" parent="GJ4CANVCQQ8pxDGnjlaz-44" source="GJ4CANVCQQ8pxDGnjlaz-12" target="GJ4CANVCQQ8pxDGnjlaz-30">
          <mxGeometry relative="1" as="geometry" />
        </mxCell>
        <mxCell id="GJ4CANVCQQ8pxDGnjlaz-39" value="校验失败" style="edgeLabel;html=1;align=center;verticalAlign=middle;resizable=0;points=[];" vertex="1" connectable="0" parent="GJ4CANVCQQ8pxDGnjlaz-38">
          <mxGeometry x="0.0443" relative="1" as="geometry">
            <mxPoint x="35" as="offset" />
          </mxGeometry>
        </mxCell>
        <mxCell id="GJ4CANVCQQ8pxDGnjlaz-41" style="edgeStyle=orthogonalEdgeStyle;rounded=0;orthogonalLoop=1;jettySize=auto;html=1;exitX=0;exitY=0.5;exitDx=0;exitDy=0;entryX=1;entryY=0.5;entryDx=0;entryDy=0;" edge="1" parent="GJ4CANVCQQ8pxDGnjlaz-44" source="GJ4CANVCQQ8pxDGnjlaz-15" target="GJ4CANVCQQ8pxDGnjlaz-30">
          <mxGeometry relative="1" as="geometry" />
        </mxCell>
        <mxCell id="GJ4CANVCQQ8pxDGnjlaz-42" value="已过期" style="edgeLabel;html=1;align=center;verticalAlign=middle;resizable=0;points=[];" vertex="1" connectable="0" parent="GJ4CANVCQQ8pxDGnjlaz-41">
          <mxGeometry x="-0.6968" y="-1" relative="1" as="geometry">
            <mxPoint x="9" y="1" as="offset" />
          </mxGeometry>
        </mxCell>
        <mxCell id="GJ4CANVCQQ8pxDGnjlaz-91" style="edgeStyle=orthogonalEdgeStyle;rounded=0;orthogonalLoop=1;jettySize=auto;html=1;entryX=0;entryY=0.5;entryDx=0;entryDy=0;strokeColor=none;" edge="1" parent="GJ4CANVCQQ8pxDGnjlaz-174" target="GJ4CANVCQQ8pxDGnjlaz-43">
          <mxGeometry relative="1" as="geometry">
            <mxPoint x="370" y="750.0000000000005" as="sourcePoint" />
          </mxGeometry>
        </mxCell>
        <mxCell id="GJ4CANVCQQ8pxDGnjlaz-92" style="edgeStyle=orthogonalEdgeStyle;rounded=0;orthogonalLoop=1;jettySize=auto;html=1;exitX=1;exitY=0.5;exitDx=0;exitDy=0;dashed=1;" edge="1" parent="GJ4CANVCQQ8pxDGnjlaz-174" target="GJ4CANVCQQ8pxDGnjlaz-43">
          <mxGeometry relative="1" as="geometry">
            <mxPoint x="370" y="750" as="sourcePoint" />
          </mxGeometry>
        </mxCell>
        <mxCell id="GJ4CANVCQQ8pxDGnjlaz-75" value="" style="edgeStyle=orthogonalEdgeStyle;rounded=0;orthogonalLoop=1;jettySize=auto;html=1;" edge="1" parent="GJ4CANVCQQ8pxDGnjlaz-174" source="GJ4CANVCQQ8pxDGnjlaz-72">
          <mxGeometry relative="1" as="geometry">
            <mxPoint x="310" y="1000" as="targetPoint" />
          </mxGeometry>
        </mxCell>
        <mxCell id="GJ4CANVCQQ8pxDGnjlaz-72" value="用户信息数据填充" style="whiteSpace=wrap;html=1;rounded=1;" vertex="1" parent="GJ4CANVCQQ8pxDGnjlaz-174">
          <mxGeometry x="250" y="860" width="120" height="60" as="geometry" />
        </mxCell>
        <mxCell id="GJ4CANVCQQ8pxDGnjlaz-90" value="" style="group" vertex="1" connectable="0" parent="GJ4CANVCQQ8pxDGnjlaz-174">
          <mxGeometry x="750" y="950" width="1120" height="600" as="geometry" />
        </mxCell>
        <mxCell id="GJ4CANVCQQ8pxDGnjlaz-89" value="" style="rounded=0;whiteSpace=wrap;html=1;" vertex="1" parent="GJ4CANVCQQ8pxDGnjlaz-90">
          <mxGeometry width="1120" height="600" as="geometry" />
        </mxCell>
        <mxCell id="GJ4CANVCQQ8pxDGnjlaz-22" value="通过Redis获取&lt;br&gt;登录用户信息" style="whiteSpace=wrap;html=1;rounded=1;" vertex="1" parent="GJ4CANVCQQ8pxDGnjlaz-90">
          <mxGeometry x="170" y="40" width="120" height="60" as="geometry" />
        </mxCell>
        <mxCell id="GJ4CANVCQQ8pxDGnjlaz-57" value="&lt;font style=&quot;font-size: 8px;&quot;&gt;&lt;b&gt;[入参]tenant&lt;/b&gt; 等于&lt;br&gt;&lt;b&gt;[缓存]用户登录系统&lt;/b&gt;？&lt;/font&gt;" style="rhombus;whiteSpace=wrap;html=1;" vertex="1" parent="GJ4CANVCQQ8pxDGnjlaz-90">
          <mxGeometry x="170" y="140" width="120" height="50" as="geometry" />
        </mxCell>
        <mxCell id="GJ4CANVCQQ8pxDGnjlaz-48" style="edgeStyle=orthogonalEdgeStyle;rounded=0;orthogonalLoop=1;jettySize=auto;html=1;exitX=0.5;exitY=1;exitDx=0;exitDy=0;entryX=0.5;entryY=0;entryDx=0;entryDy=0;" edge="1" parent="GJ4CANVCQQ8pxDGnjlaz-90" source="GJ4CANVCQQ8pxDGnjlaz-22" target="GJ4CANVCQQ8pxDGnjlaz-57">
          <mxGeometry relative="1" as="geometry">
            <mxPoint x="230" y="140" as="targetPoint" />
          </mxGeometry>
        </mxCell>
        <mxCell id="GJ4CANVCQQ8pxDGnjlaz-58" value="&lt;font style=&quot;font-size: 8px;&quot;&gt;用户是否有权限列表？&lt;/font&gt;" style="rhombus;whiteSpace=wrap;html=1;" vertex="1" parent="GJ4CANVCQQ8pxDGnjlaz-90">
          <mxGeometry x="170" y="240" width="120" height="50" as="geometry" />
        </mxCell>
        <mxCell id="GJ4CANVCQQ8pxDGnjlaz-59" style="edgeStyle=orthogonalEdgeStyle;rounded=0;orthogonalLoop=1;jettySize=auto;html=1;exitX=0.5;exitY=1;exitDx=0;exitDy=0;entryX=0.498;entryY=-0.052;entryDx=0;entryDy=0;entryPerimeter=0;" edge="1" parent="GJ4CANVCQQ8pxDGnjlaz-90" source="GJ4CANVCQQ8pxDGnjlaz-57" target="GJ4CANVCQQ8pxDGnjlaz-58">
          <mxGeometry relative="1" as="geometry" />
        </mxCell>
        <mxCell id="GJ4CANVCQQ8pxDGnjlaz-78" value="否" style="edgeLabel;html=1;align=center;verticalAlign=middle;resizable=0;points=[];" vertex="1" connectable="0" parent="GJ4CANVCQQ8pxDGnjlaz-59">
          <mxGeometry x="-0.1367" y="-1" relative="1" as="geometry">
            <mxPoint as="offset" />
          </mxGeometry>
        </mxCell>
        <mxCell id="GJ4CANVCQQ8pxDGnjlaz-62" value="资源权限（返回菜单资源编码）&lt;br&gt;1、管理员：返回所有菜单列表&lt;br&gt;2、非管理员：按照配置权限进行当前用户菜单获取&lt;br&gt;数据权限：（返回如图）&lt;br&gt;1、直接查询角色配置数据权限信息" style="rounded=0;whiteSpace=wrap;html=1;align=left;" vertex="1" parent="GJ4CANVCQQ8pxDGnjlaz-90">
          <mxGeometry x="375" y="335" width="250" height="90" as="geometry" />
        </mxCell>
        <mxCell id="GJ4CANVCQQ8pxDGnjlaz-66" value="" style="edgeStyle=orthogonalEdgeStyle;rounded=0;orthogonalLoop=1;jettySize=auto;html=1;" edge="1" parent="GJ4CANVCQQ8pxDGnjlaz-90" source="GJ4CANVCQQ8pxDGnjlaz-63">
          <mxGeometry relative="1" as="geometry">
            <mxPoint x="230" y="490" as="targetPoint" />
          </mxGeometry>
        </mxCell>
        <mxCell id="GJ4CANVCQQ8pxDGnjlaz-63" value="重新查询权限" style="rounded=1;whiteSpace=wrap;html=1;" vertex="1" parent="GJ4CANVCQQ8pxDGnjlaz-90">
          <mxGeometry x="170" y="350" width="120" height="60" as="geometry" />
        </mxCell>
        <mxCell id="GJ4CANVCQQ8pxDGnjlaz-64" style="edgeStyle=orthogonalEdgeStyle;rounded=0;orthogonalLoop=1;jettySize=auto;html=1;exitX=0.5;exitY=1;exitDx=0;exitDy=0;entryX=0.5;entryY=0;entryDx=0;entryDy=0;" edge="1" parent="GJ4CANVCQQ8pxDGnjlaz-90" source="GJ4CANVCQQ8pxDGnjlaz-58" target="GJ4CANVCQQ8pxDGnjlaz-63">
          <mxGeometry relative="1" as="geometry" />
        </mxCell>
        <mxCell id="GJ4CANVCQQ8pxDGnjlaz-83" value="否" style="edgeLabel;html=1;align=center;verticalAlign=middle;resizable=0;points=[];" vertex="1" connectable="0" parent="GJ4CANVCQQ8pxDGnjlaz-64">
          <mxGeometry x="-0.1298" y="1" relative="1" as="geometry">
            <mxPoint as="offset" />
          </mxGeometry>
        </mxCell>
        <mxCell id="GJ4CANVCQQ8pxDGnjlaz-67" value="查询用户权限：仅限" style="rounded=0;whiteSpace=wrap;html=1;align=left;" vertex="1" parent="GJ4CANVCQQ8pxDGnjlaz-90">
          <mxGeometry x="385" y="490" width="240" height="60" as="geometry" />
        </mxCell>
        <mxCell id="GJ4CANVCQQ8pxDGnjlaz-68" value="" style="shape=image;verticalLabelPosition=bottom;labelBackgroundColor=default;verticalAlign=top;aspect=fixed;imageAspect=0;image=data:image/png,iVBORw0KGgoAAAANSUhEUgAAAhUAAAMWCAYAAABGB3RkAAAgAElEQVR4Aey9+Vsbt/o2/v45Hr1eDzsfDGbxBWY3m9ku9h0CYcsGWVkCzU5ISNIkJGZJ0tCsNG3TtM1pk3PO5/T9n+7vVzPWzNjYYwMmAfr84Evj0Uh69OiWdOvRo5n/40hIgtGvuroa//f//t8tv/8pSgX/hYuLdo+xVJTdzoeTMTU9Yw7kz1Shbak66Ffb4dCeyXKhdsaFRF06URYLiZP/3y5FfpZWhng2NFSeDZWHy1gFffmJHaVo1cntHKtC65iiAyG/eF6uo05Wpc7B+Rmm5/XZrfxRyg/VA/3finPSCemEMEAYIAzEjoH/Y0QoeNyXJRXGJECZ/LcSD0FEWvWT6C4nZQ4iQQTU/HWEQokPJkKCYAgAsvL8IIJUVh5McAQRUfMPEBQ5b1n+8HXdko/8bDApkvOIUr6Qk8LYOwzpinRFGCAMEAYiY+DgkQodcdA3bKilQh9H15EBQLoh3RAGCAOEAcJAvDDwVUhFvISnfKgjEAYIA4QBwgBhYP9ggEhFGH8RAuj+ASi1BbUFYYAwQBg4OBggUkGkQnWEpY57cDoutRW1FWGAMLAfMUCkgkgFkQrCAGGAMEAYIAzEBQNEKghIcQHSfmTMJBOt5AgDhAHCwJfFAJEKIhVEKggDhAHCAGGAMBAXDBCpICDFBUi0GviyqwHSN+mbMEAY2I8Y2DGp2I+VIZmokxEGCAOEAcIAYeDrYYBIBVkqyFJBGCAMEAYIA4SBuGCASAUBKS5AopXB11sZkO5J94QBwsB+wQCRCiIVRCoIA4QBwgBhgDAQFwwQqSAgxQVI+4Ulkxy0YiMMEAYIA18PA0QqiFQQqSAMEAYIA4QBwkBcMECkgoAUFyDRyuDrrQxI96R7wgBhYL9ggEgFkQoiFYQBwgBhgDBAGIgLBohUEJDiAqT9wpJJDlqxEQYIA4SBr4cBIhVEKohUEAYIA4QBwgBhIC4Y2BWpYEkShmYlfLdhwuZzEx7OMZQmM1kwxhhGvjXhlx8kvN804e2ahLk+hkSmxMfKJFmlhLffSSjfZrpY86fnvh6jJd2T7gkDhAHCwOHCwBZSUV1djWg/DgJOGjqvmfDiloS2MgnufIbWkyY8v8aQypgcz0nF0oCELBdDabOERy9NmKsmUkGd6HB1ImpPak/CAGGAMKBgICypMFIOJxw8nrklrG+Y0JCgkQRONE76TRhyaqTiRqtmufBNmfD6vO55bumYN+H59yZsfifh1gRDpjnwfI2EzU3F0sGtHeL3fklCWsBqIVtKIqQ3qgPF0QBAGCAMEAYIA4SB+GNgx6TC2izhp+sMDsaQWC7h7roJa1MMYzdNuODdSip443nGJfw0L6nbI75pE17ekNBQzJBfKuHSigk32wOkwsGQmysht4NvrUho49f852SwBCwhRukJLPEHC+mUdEoYIAwQBggDRhjYMalI65WwOSPJ2xy9CyY8PiWh2MtwasGEizXRSUU4ocomTXh1XiEdIn47PhXh0ot8KKSOQBggDBAGCAOEgb3FQERSEc6vgjeG2P5I6zMFSIWECb+E426FSBy9GzupSKuUsLhswttXJrx7bcKPb5U89Y1uRCpiSa/Pi673FkykX9IvYYAwQBj4e2MgIqmIBIytpILhzJoJY7kKqRhaMiYVP4rtDyvDxQ0TloYZPIGtjdbp2EkFizF9pHrQ/b838Kn9qf0JA4QBwkD8MRBEKv6RmCxbIv7xj3+EPa+akJAgx5vNZugtFZMrJoznGVsquBMnd9QU2xvMybC8aUJXwNGTx9dcCEMqKiS8CXOkNNb0BJr4g4Z0SjolDBAGCAOEgXAYCCIVjoQkVFRUoLy8HFarNYhY8P/8vtfrle/rfSqG7phwq5vBliph4UWwpSLSkVJmYZjfMOH+CYbCXIaKNgm31sKQijwJ65smTFQEHDfTA46cMaYPV2m6R52BMEAYIAwQBggD8cfAFlLBiUVeXh4KCwuDSAX/n5OTo96zt5nwc+D0h7NFwstNE35al3DhcjCpUF9+tW7CfH/wy6+cNRKW/CZsvjRh5bKErgnF+VPf0NyC0XjOhBevlOOl3DlUxMeSXjxLYfzBQzolnRIGCAOEAcKAHgNhSQUnFoVFRSqJ4GQilGSwXAmrGxKakxTLgS2FIdXBkJDOkOZQ7ukLomsCHmGAMEAYIAwQBg43BiKSisSkFJSXe5Gbmxt2O4RbENoum/DqjoSuCgm5WQyJViIT1GEOd4eh9qX2JQwQBggDkTEQkVRwa0Vq+v/IjpncQTOcEpmdoeO0CavfmfDjpoSRbCIV4fRE9yIDkHRDuiEMEAYIA4cHA4akghMLcYSUGv3wNDq1JbUlYYAwQBggDOwFBohU0Oduw1qh9gJslCcNYoQBwgBh4HBjgEgFkQoiFYQBwgBhgDBAGIgLBohUEJDiAiRafRzu1Qe1L7UvYYAwEAsGiFQQqSBSQRggDBAGCAOEgbhggEgFASkuQIqFwdIztNIhDBAGCAOHGwNEKohUEKkgDBAGCAOEAcJAXDBApIKAFBcg0erjcK8+qH2pfQkDhIFYMECkYp+QCmtmA/pnH2Goil4gFgtw6Rka4AgDhIHDjAFX3wKmJ/qQl3iw5oRdkQqWJGFoVsJ3GyZsPjfh4RxDabKiAFYjYXNT+QgY/6iY+L3fNKEvJbqS+GvAR7414UZr+Gf5Z9S1PCW028I/Fwl0jEk4/siE908klJmVtPljW7+SGil9PO87ik/h2sY7zJ3ohTsG3cRSdsXMr3j247/k39N399GwTf3EUsZun2F2J3yzlSh1MdgrStB7MgfJbHvtuFsZ9ip9ZmcN+i7Wyb/e2WLk0Cvsw1rEWF4+us7kI30H7X4Q8MOqLsG/MY+ibdaPsWz0Pfis9uH11z9j8cpplKZ+mf4R6/gRqX7M2oXpzU/wX+6EnTEwVoqRlU9YXz6FrG3qYq/6aCz5MpcVn4ZtqP4KMttc9eid/x6P126gJt0ctv/EUocv/cyOSQWf9DuvmfDiloS2MgnufIbWkyY8v8aQykFkZ8jMZMjKZBhaMGFtQpKv+f+EwCRuVNlopMKeEsjPK2Ftc+ek4odXJpwv+3qkgtmrcPzJr7jYnQ1zHIFrS8lCRmY2MrxTuL1fSYUlQyYVJVkM1vJi9B7PQWIcdWCEr72OsyTYkJBiR0JuHlqIVEQcEHdFKg4AfiJNutHwJ0jF/BG33I+zChoxePsD/Nd6kfQF+kis40ek+smk4ukGbj69hRobA8s/jVsPvsMikYqIfSEcJhhLhnd6E/6FfnleDffMfru3c1LhlrC+YUJDgsacORE46TdhyBl8r/2KCf5h7ZPlQgmypWPehOffm7D5nYRbEwyZAcKhkophCRfvS9h8YcKDKQk5Fi1vng/LluCPQCqYQ0LftAnPX5jww3MTFo9JSFfz55YKCbduSNg4w+QJPdRSYSgfL/eJhDNzJrxdkdDcbMKzFyYsDSh5ybIZlC904Gi6jdW1KbhDiBZzHcfCD2voSNfqa66Yx8ONyygVdUjyonv+Ce69/Aj/xivMTbYgIzSf7BO4GYZUMObG4OPPmGqxqiD3TG7CP9uk/meOIrTNruPeqz+wuvESs8cbkBqSv6jHTkLG0lA5XY7CNAZzcSF6R11w6AZMlpCC4kEvOi740DNVheb+bKQFLC4s2YWG2QoUZWj6sRR60H3GrbWxQfpY5E1vrURHdzYKBivQfaEarUN5cOpMkcyWCHdXGdrO1aDrdDmq61PkVZk+b5aWjeYIpILZEuDuKkXbBR+6z3rha0wNqr8+n9BrxuzwjNWips6JimPV6LpQhcYuJxJ1/WM38seSfzT5jcpn+QXomq1VrTmqVWfEpaxsY2nfKPgJ1dl2/zOD/hWt/7Caq/C/0ywNqtXwzpg6ObCEIrTz/vX97/B/t4GpMR9SAvgXpGK6za71x9rrWN34BiXimSj9k6X4MLTwEg9ff8L6m/dYvHoChYHxOpr8Qlcs0vgRpX4yqXh1E8fnfsBkrRVZw89w6ex8EKkw1q9iqZkZHcDk8nv4X/2E67MDcH0hix/LseHzcQf+34l/BP3+6rYiI6D/ap8dHxutONlux6cxO951WNGo6teM8wMO3C/QLAwVPgc+N1q09rSaMdJgwy9jDvxr2I7HVWY4deOf2gapQ7i0+R16XNpYJ+L2Y7hjUmFtlvDTdSYPgonlEu6um7A2xTB204QLXq3ynByEIxX8vm/ahJc3JDQUM+SXSri0YsLNdiWtIBUv7kjoLGHwVEm49Z0JS91a3lyhkUgFT182KeH1LQm1BQz5XgmXV0xY7BD5K9sfs70SHj81wWtm0JOKqPJxUvHahNFSCSfumrB6hqGoV8LmqoRC2dxnXL4AQ8HJN1ida1GBJu4zVoAh/ydc7ExV4zwTyqRvkfO3wjvzCx4uTKCqpBA5ZX04u/YbZjvS1OcV/eyMVDBmQdHpTTy6fRoVnnzkeo/g3NrvuNiZHpS/kDc0ZKwcI2t/YO1tyO9SN7j8smwsBeVnS+FO5CuZAnQNZcKq61SpjRXoHslBRoYDSZmpKD5ajaa6xEBaOwpGa9FUp3zsjjEzMruq0dGRolp8jNKHyhvuP58Uu8+UorQ4CcmZqSgZrUFHd5osIy8vraUS3eNuuFwJSHG74Dtbg+oSjaTJdYxAKkT6zqM5yMxMQHKuE1WnauArD04fTi453wCp6Bh1Izc7ASl5LvjO+FBXqU1Cu5FfkIpI+cciv2H5NhuS0h1IKveg+6wH2fya/5Ktcvvx8qO1L4uCn0i6i+U+Y8b9K9qkzBwZcOW64eq8Bf/GTdTza/5zpsj45/kXTm5i9cE8fMUe5FUdw9zGr5hqUfp7KKkwO3JQP7+J9aVhpMn9P3r/zD/5Gqt3z6LMnYssTyOGbr/HwmhRoP9EX1TIOItEKqLVj29/vLuL5pZFfDvVi66lJ+hqmsH9gKUiun4VUrF87yKaSj3IqxzDxY0/8U1vVtzGHyMcMCtDfooZBYU2efujl1/zXyJTxy9OKv41bMN8vhlF6RbM9DjwscmCBLl9jEkFn1+qfA78s8uK5nQzirIsuDNox+PC4PlNbgPmkeeCc40aQTGS/WvH7ZhUpPEJdEYCV07vggmPT0ko9jKcWjDhYo2mGB4fjlSEq3jZpAmvzisWDZ6O+1Tc7dPyKj5pwuas9l9WeARLBU9/8rEJc9Xa83kjJvw4J/JXSMWcTylnqjyYVESVj5f7vSTvtZVPKmRFJjgbEqoCpMKofJF/2fn3eHiuOmxHKTj1FmtXuwJ7knwQ+IhzjY6wz/L8ik7/gOULtUHxEVcaUSwVTAby75jQtWX26AbW5luD8hf1CA35pJDsCgykYkDlYYZCCkKfD/c/s7Mand1pKkkIfSahuhS9x7LlLRNmToH3TDW8+VrHi5Y+NL/Q/3xS7OnPUMs3ezzonsxTtvdYAgqP+VBTopWX1lyJri6NBPL8IlkqGEtA8YkaVORr+EyqK0dPTzApDJVJ/BeTfn2lTW2P1KYKdHdr6Xcjf7T8Y5HfqHy1HgY+FdHaV+TxpUJ9/4pGKoRMEbcHmBtHHn3CVKvWfvKiYaZBbk9BKp5sKqR8/YdP8PtvojlXeT6W/umd/oDHcy1BRF2VK0r/V5+LQCrU+Ag+I7Kl4t1jtDg7MbXyBkv3TsJZfQV+g+2PYP0qpOJSf4aKbz4ehluACVn0YTzGH56fkU8FJxX/bbXAFlgIWfJs+PeQFd6YSIUZU0fsuKn7sneB147/NGmWDFEfxrLQc+8zLnYmqboQcfsx3Dmp6FOcGrnD44RfwnE3d8ZhOHo3dlKRVilhcdmEt69MePfahB/fao6SglToHTVzjprw/ooU1EkiWyoknHtiwk9vlbzl/N9o6YWj5ryPwTVkwouzEjyjWvm8sQzli0QqAkSD529UvgBD2YVfIpIKc/kcHrxaRJWVgTnHcG3zW9TrtptSq85i9tGP8L8JWAM2PwdtX/Aydk4qyjH+7DPWA4OabHHY/ISnV3tUpi7qsFehNc+N1ukatI0Vo6o9F/n5CUFls6QsNMyWw5PKwLLz0H6+AE7d9ky09NHk5pNil85SxBKSkF2SJFvnGEtC2elgUpBYW45eHQnh+UcmFTx9LXpmfOiZFr/aLekjySgm/ZpSjdSElr8b+aPlr9TfWH6j8kW9jHwqorWvyGOvQqP+tXtSwftXMGnPOvpM7V+CVMwPFcGVfwRTr37BRI1GQLglMFr/dFRexNLbj7j34CHOnT+H9hq3uj0Xs/y7IhXr6ExPRNnRaxhtzgWruxHkqGmsX4VU6Ld/9PrZqzYPzTcaqfjUoJEA5rCgJ1/ZwuCWPKPtDx7/zZAD/z3mwH/Gtd9frZag+Y3LI0jFXFfy34VUMJxZM2EsVyEVQ0uxkQpuXrq4YcLSMIMnV0JuroTWaW1SjxepuNSm5M3zl3+BPXg9qWCZEpa/k9A3qlhf5IaMJl+MpCJS+QK8pefe4+F5X1iwMEstJjY+4ESVBSk9j7C+OKQ6aTFrPSa+/xXzI/XIC1gC6mZ+jDOp+ICz7SHWhhgtDbFsfwgdGIXW5CS4KrNRyn0PpmpQX6VZahizoWDEh4YaO/gqvSuMVcMovVG5PC50UtQ/Hx9SUY2q0oDZX5j/k7RBSl9e6HW0SX+38kfLX6m/sfxG+hP1MSQVMbSvyCfeYbT+FfOkHGklL5OC6KSCT6p8q6Bi5j38V7tUnxuFVETvnw5nBXy9pzA668e9tx9xZSBPHmtiln9XpOIZujM1SxxrXMRTsf0RZfwSpGqnpCJe4892SIUeg7GSiiVPYFtFt72iz4dfM+ZC731uqYjdyhuax5f8HxdLxeSKCeN527NUMCfD8qYJXapjC0PNha2kIur2hyu8o6bY/rjSqIHakc7gCTiRBpEK2cIiYfG6rvxo8kUlFcr2S6TyRSPnjn+P9Wu9qglN3OchH0xq5n/Dt5O1qL/yBy4PZKrkgznHcf3dMppV/ZnhnfqwlVS4IvlUpKFz6TO+6VPM5bwTVM7+hnuT5YFBh+/j/YnzTdoevz09H3nO2ExwfFLa7fYHM5vVrQeuj6Q6L3oHnUFM3lFZgp7hfJQfq0GVJ3hCjiW9Xt+h10aTIjf/x7T9kZqNpjCOmsr2gQ9VRZqlwZKUgJTk4DqEyiT+i0k/2vaH3tIi0vIwmvzR8o9FfiP9CVk4qeg0OFJq1L4ij70Io/Uv7mRs1H+ETKzyGzwOc6SUT+qxbH+ISdVcdhH3N/1oS1PGM2X7w7h/mi1WmHWWO759+XThSMDSFqP8EcaPqPWTfSqeoSeIVNzSSEWU8UuQitDtj5Uw/mdCFn0Yj/GH58dJxZ8RjpTy7Q+9pSK4fIbxLgfWS0R7MTQ3OPDep/R3Pt7y7Y+7bm1+Skgwo1jnCC7yY6wCx777iIlAWnF/v4Y7JxU6n4qhOybc6mawpUpYeBGjpcLCML9hwv0TDIW5DBVtEm6t6Sb1gE/Fq3tRHDUdEhbemnCpjcEVOMLKPeA5qeCOmpv3JTQXMbhLJMz5uY9GsE8F3/7gjZM5KGHzpa78aPLFQCqMyheAsHjn8eDVXdQlaeAScTx0NC9hddmPSy+eo1fn/cssDZh88TuunmyBO9eDkrZ5zD35ZSupcHRhZvNnnG3zwMmPmGY6kRA4IZAzsoE1/zXUl3jgrj2Lq69+wqlqxRIgHDVXHszBV5yPnNIeTK78E5f6XSqx0csZ72tefnZ/DdoHspDudCAxIxmFQ4ojJm9bUR5LykT9lA/d54vg0r2LI9b0Ip9wodGkyAeFtOaKrY6axRoJ43kyWzpqZviKPkE5Yppig9XM8Rns6JmUnYGKkz7U6xwtw8kk7olJv2M0z9BRMzKpMJY/Wv6xyG+kP7UeGTlomSlHSV6i4qgZYqmJ1L4ifbSQy9lQasX5QvO2jivH0r+M+o+Qi7lPY+mHZxiuLFIcNdOFY7EFhZNvZUfNGp2j5oXm8I6ajBVhePUzFkbcAdKvOGpG6p+MOVB3+SPuXx1FaUEuMt3V6F/8gOWpOpWoxyS/wfjB6xixftFIRZTxS5CK5XuzsqNmLnfUfM4dNbWFldDxXoYs1YrNY3bMuhSLQn6CtggwIhVcpkLuI3HEhl6nGSW5Vjwfc+BGwIeCj2HcUfNznxWdGWZ4nBYsHnHgaYCE6OtkKZnBvbf30RBhjtA/ux+ud0wq7G0m/Bw4/eFskfBy04Sf1iVcuBwbqeCVd9ZIWPKb5Ml85bKErgnd9kOAVNwclfDNQ5N8pPThtIRc3ZE5ngdvHE+PhJXnJvy8aQJ/uRbfipHjEiQMzJqw8YIfWTXh1kn9kVXFUVOQCuaU8HBTIxVR5YtCKqKVz+PlZ1gW2hZ/xYOrg3DZtclSjU/sxdzmZzz1n0WObjLl8Wm+Kcyv/oKV1/y42BiaJ19tJRXMirzeJdza+ANP3n3G03ffo1/ox+ZG49QK7vIjbc+e49xgRdDAKx95m3uK+6/+gH/jJeYmWtTjmkK+vQzNKWkoP1qBTu5zcKFKOdIZ0rG4NSd/uBbdA+lBFgwuVyzpjeSPNinqj5R2n/aiJtyRUsaQUlGI5rM+9M7WonfWi8LAMWFmT0R+dxnaz/vQdcaL2uY0OHQrSyPZxKRfU5uBivFqdPMjpd1OJOn6x27kjyX/aPJHK5/Xj29hZbWXoWPKJx8v3eLoatC+RvoRccxmhf+YA28qtMlAxEULo/UvFqX/8PwZc6L6/FM8fPNJfpFV0JFtcaT0BT9S+j2moxwpdY1s4On6DAoCGInWP82ZrTi29AaP337C+uv3WFqchld3RD02+SOPH0b1Uxw1I1sqeFoj/QpSMT3Si4mH77HCj5Re/HJHSgU2OCltr7PjtzHleKn+SGg0UsEsZgzU2/DziB2fhuy4U2pWjwzLurOZMdpox4dRBz4P2+GvscAV0v8taQ04/vg33DxetmV8EzLut3DHpILlSljdkNAcGORtKQypDoaEdIY0x9bJcb9VfD/Jw98H0b3wI/xPV9ET5kjRfpJ1v8nCWCJKTvlQUxrbtoGQn7ly0ao6SApHSR4WbunYIs2XDKPJJyb9at3pk3jKt9f5xyrrTttX5G/JseHTcTtOhJBREU/h/nzVtyAV+tMxf7e2Smu+hqUXv+L6ZD1SQsjGftbFzkkFY2i7bMKrOxK6KiTkZjEkfqEXk+xnhe5UNj6Ip5d1wxuwIuw0n79bOpaZi9aZYuSEsfIY6YJZbUgUzpFBoT3ohIlRHnsZF00+MenrT3/EU569zj9WWXfaviL/4io7/rfLor6wSNyncH+SCdEuglQInxJx/+8UppS1wZuTpG5XHZS675hU8AryV3F3nDZh9TsTftyUMKI7c3tQFEBy7u/BJVr7pDR60TPoDOvoGi3tQY7f60l/r/OPVfe7aV9uuh7tcuCRZ/tbH7HKR8/tzfhBpGJv9Pol8LorUvElBKQyDi64qO2o7QgDhAHCwN8LA0Qq9smnz6nj/b06HrU3tTdhgDBwGDFApIJIhXo88zACnOpEAzdhgDBAGPhyGCBSQaSCSAVhgDBAGCAMEAbiggEiFQSkuACJVgJfbiVAuiZdEwYIA/sVA0QqiFQQqSAMEAYIA4QBwkBcMECkgoAUFyDtV9ZMctGKjjBAGCAMfDkMGJKK/3FmoqqqCsnJB+OTqwScLwcc0jXpmjBAGCAMEAZCMRCRVKT/jxMVFRVwOpUwKSm2r1OGFrDb//zbHqVHJdydlpAZ8u2L3eb9JdNbMxvQP/sIQ1X0CvMvqXcq6+sOen0X6yJawoziqN2C241/46bw6ANcmu1G+h6Mg3ud/162p6tvAdMTfcgL84XPvSyX8g7GqNBHWFKRlp4hEwpBJHjICYb4LxKzJAlDsxK+2zBh87kJD+cYSpODJ01mk3DttQnvHzBk76AzcFLRMCXh5T0JBbr0zMpw460Jm9+wwKd8GU77TfjpobTlw1tC3mhh+aQJb6eC5Y+Uxjdlwi8/SPLv/aaEdt0XMkPTOIpP4drGO8yd6IU7Jbb8Q/MI/V8x86v8gaJnP/4LT9/dR4NB+aFp4/Wf2Z3wzVai1MVgryhB78kcJOvbyJYId2cZ2i8oH8yqa00H/4JsPMoXb3zkExP/9VyoRlN/DjJiHFgyO2vkdDxtb5hPk0eTcUv556vQNJADZ9LBensj//R4l8Gnx6PpIVp8JOIg2i00DJdfNJyFS7Obe0Vn3sE/0xAXnO5GDn1a/qn56ulNLH97Erm6PqZ/xuiaVV2CP8wn2EWa3eYv8tlJyGxFaB4ZRmUGg6OwC8O9VUjV1TFavM1Vj9757/F47QZq0g9W/9uJvvZ7mi2kIjU9PSyBCCUWfLLvvGbCi1sS2sokuPMZWk+a8PwaCwaEV8LLRxL8b0zoiuNHfWRSsW6Cf92ERhsDc0tYuS/B/4VIhT1FQhb/1LpXwpoBqWD2Khx/8isudmfH9R3utpQsZPBPmXuncPtrkQpLhkwqSrIYrOXF6D2eo37lVHwau2s0D1muBCRnO1F5sgYNNcqnn3fbMcSkXlvtkD8pnuRMRdHRanQNxPbKbkuCTfkUeW4eWnZBKkT5ic5U+dPs3UczZZK72/p9qfS7IRWhhCAcgYj1Hq9vuGf5fWaAs73Q034kFbutZzRSsdv8d5OeWQrQNHJU/oKqraADw92VwYuTKPG8bMaS4Z3ehH+hP2j+2Y1clDa8JSKaXoJIRUJSCqqrq7dYJEQmnFjweLPZLE/i6xsmNCRoK09ONE76TRhyavfcoya8OCvh6F0T5mu1+/zZkW9NWBhhmH8gyZ82X55hyNV9lIxbDlRrQAhZkEnFCwlTF03gny/POWrC3TMSVnTPsQQJ/dOKJeXtUxOuj0pI0zPgVAkTCya8fmnC+jUJR84HWyqYQ0LftAnPX5jww3MTFo9JWz79zfgn0A1IhaPpNlbXpuAO+coccx3Hwg9r6NB9ithcMY+HG/jpDjAAACAASURBVJdRKj5tnORF9/wT3Hv5Ef6NV5ibbEFGaD7ZJ3AzDKlgzI3Bx58x1WJVV1yeyc2gT6Pzr6O2za7j3qs/sLrxErPHG5Aakr9o+3AhY2monC5HYRqDubgQvaMudUIVnySv9Wrl2z25qKxOlskVS3ahYbYCRRkaJiyFHnSfcas6ZgkpKB70ouOCDz1TVWjuz0ZawCIjSIX+g1qsoEBJH2hj/afJu06Xozrcp8nTstEcgVQwWwLcXaVou+BD91kvfI2puvrZ4RmrRVD56dlomS1BXuDjZvzT3x3d2SgYrED3hWrl0+06S4qRfGr96pyoOFaNLv5p8y5nkKXHSD7eXkbls/wCdM3WqtYaQRB6R1ywM4ZY2icUE4IUiLz0oXhWf8/oWjzPQyOc6Z/b6TVLrcXw4ms8fv0rlm6Mo/PCD0GWimj9hKX4MLTwEg9ff8L6m/dYvHoChfpx0eFB85QfdzZ+D/TjVmToLHacxCxfPIGehbfwv/6ApcUpeNO0fsHjuUVStkoun0KWfgxj2eh78BkzowOYXH4PP/9E+Kz2iXBWcxX+d5/V9Go+d8bUydcof1n/4hPt3/NPtG9gKswn2mdG+3FGLv8drs10IVNXv2jtwlge6oYHZCu3Oa8Vwx3lSAiqo3G8yJ+lDuHS5nfocWm6E3EU7owg7ERvQaTCkaCQBqOMOKng8dZmCT9dV7YeEssl3F03YW2KYeymCRe8SqNy4tC/aMLVJobiEyY8n5DUCU6Qipd3JXSVMHgqJCx+Z8KdXg0QtmQmWwNyB0x4ryMLvHyZVGya0NVswvPzEoaWJAw1StgIPMfzL5sw4Yf7EpqLGDxVEm59Z8K1Zk0235SEd/clNBUyFNZKuLmmkQo5/aSE17ck1BYw5HslXF4xYbFDk0+WIwqpKDj5BqtzLWq9hW4ZK8CQ/xMudqaqcZ4JZdK38EGdWeGd+QUPFyZQVVKInLI+nF37DbMdaerzSvk7IxWMWVB0ehOPbp9GhScfud4jOLf2Oy52psv5M1aOkbU/sPY25HepW/2KJ2MpKD9bCncigzxJDWXCKiZ0ZkZmZzU6+jPgCENU+KRZMFqLpjrFcsEtG5ld1ejoSFEtOqmNFegeyUFGhgNJmakoPlqNprrEgHzBkzqzOZDTU4megKVAWEq6x91wuRKQ4nbBd7YG1SUayZH1F4FUiPSdR3OQmZmA5Fwnqk7VwFeupFcn/VLN3MpSXGicLUV+YELhk3r3mVKUFichOTMVJaM16OhOk3Uk8o8kn8i/Y9SN3OwEpOS54DvjQ12lPVB/M9JaKhFJPl43w/JtNiTxr7OWe9B91oNs8aXWZKtC+mJoH4FlEXKSIK5FGMu90GdC/xvhTJSz05AxGypm3mP1wRxqijxw153F7JMPKqmI1k94ufknX2P17lmUuXOR5WnE0O33WBgtCrSTBZ6J11hdvoS6Eg9yygdwbu0jLvVnq7rik/rqxgpGm8uQ62nC0Xu/YXmuRSWw1mTFKuk6soynEUjF8r2LaCr1IK9yDBc3/sQ3vVlK+Y4MuHLdcHXegn/jJur5Nf85U9R+bJy/FYWTm1h9MA9fsQd5Vccwt/ErplqUcUt8+Gv53qxSfvUpfPPin+o4Fds44kL1kR4UOhiYqxGDLcXqOML1y5hxvGh7xjzymHquUeuTIo7CA0Aq0nolbM5I4JNv74IJj09JKPYynFow4WJNYOK2Srjy0oSBVAZLtYS332rOloJU3O3TJunikyb8cFH7L4Bga41EKiT0OBmu+014cleCq0rCpo5UjD804XqLll/JSRPeTivEhpd/4rEWz//XzwaTipOPTZir1tLnjZjw45xGjLh80SwVZeff4+E5hYiJ+oiw4NRbrF3tUlaGsmXhI841OtTBRjwnwqLTP2D5Qm1QPNuhpULpgL9jItBWvIzs0Q2szbcqgxGzI9kVGIDEQMTDDGVSFzIZhSwlA9WTPnSdLEFFgxPpycGdPaG6FL3HsuUtE2ZOgfdMNbz52jOclHR2p6kkQ1+WmHR7ZnzomfahZ7YWXSc8yA3sqfI94sJjPtSUaPmlNVeiq0sjcTw/FpFUJKD4RA0q8rX2T6orR0+PQupE+cJSwax2ZHVWoOeE5lfCJ/We/gxVfrPHg+7JPHmFGE0+kX99pU1t79SmCnR3i/KN5eN1Mypf6NJo+yNa+4RO/qH/eRmR7vH7Rj8h316HgtxPtSp65mSv6uJvOlLBJ6rI/YTL553+gMdzLUEToZCbr8IHlj9hukUhg/x+esMFTPZ7VVxwUrF+tUdNb6m7gdWnM0E+ZDydre1uRFJxqT9DxQkfV0IXMrFsf4TP340jjz5B6IfLIS9+Aj4nglRcHnCq5ZdPfcDD8764jSNCl9FCxrLQc+8zLnZ+nUMF0eT7u8RHtFRwi0TojytFWCrS+kwBUiFhwi/huJuvrpm8zaGSijIJLx5LcPOVd4KEW29M6Ays4gSpuNGqDdp8C+P9FUntXKIRjEjFkXQJ1UdNONPMwOok1VGTMQnnnmgEh+elzz9cvN5RU8T/9NaEd6+V349vtsoXlVRc+CUiqTCXz+HBq0VUWRmYcwzXNr9Fvc5smlp1FrOPfoT/TcBasPk5aPuC12nnpKIc488+Y31TZ4nY/ISnV3vUFYzQ/25CZrUhvTQH5YNedJ0vR5HLog4+LCkLDbPl8KQysOw8tJ8vgFNn1bDmudE6XYO2sWJUteciPz9BlU1MunU1iUjKcKL6QjUqdISEsSSUnQ4mBYm15ejVTfKy/iKSCp6+Fipp4cRlulZNL8pX42dq0X2qEO5MrX58Uu/SWaJYQhKyS5LkFWg0+UT+grRwWfXyK+kjy8efNyqfx8v1N3DUjNY+PL0gDSLU3wu95v/1P0Eq9PeipQl9drf/+Up6/FkwaeCTvHDUVOKN+4mj8iKW3n7EvQcPce78ObTXuOWFApctXP6hMuvLk9OklqOupULdnhDPh5/0le2P6TaNtGQdfbalH++cVGzVjz5/QSr05Yduswr59zoUpGKui16BsNe6Nso/IqmIlGgrqWA4s2bCWK5CKoaWtIk8d0TCe35C46Xy+3FT0qwYAZ+K3ZEKE4YyNVLCGjSLhiAFguDw+uyEVFxqk5Cbq/vpfAB4ntFIRem59yprD9Ups9RiYuMDTlRZkNLzCOuLQ0gS2wfWekx8/yvmR+qRF7AU1M38GGdS8QFn20OsEQFLRCxmy9D6GP3nK8D01gr0HHGqpJGbngtGfGiosYOvwrvCWCWsyUlwVWajlPs2TNWgvkqx5OgnXU5QMzur0DWQriMd8SAV1agqdSjbBGJ7IEkhDaJ8mdSkO5CYZFFXnkIPoZO6uM/D+JCKyPLxMozKF7IYWSpiaR9BJkQo8hX/RSju85Df09+PdK1Ps1fX4SZ9/SSvxEfuJ0Iuh7MCvt5TGJ31497bj7gykBdYqW+dlEUaEerLE/fChQeRVMR7HAmnF3GPb5P03ueWititqSIthcGEfzf6iAOpkDC5YsJ4XrClgg/0fFvkzpCEnGwm/1qnTXh2UiEBwlIRuv2xOauRBFGxyJYKE47qSUWjnlQwRNv+4NsbYnuEyxNu++NKoyaPI53Bo3NC5fIxl7GjZu7491i/1gubzvFI1Iv7TdTM/4ZvJ2tRf+UPXB7IVFdyzDmO6++W0axadszwTn3YSipckXwq0tC59Bnf9AlzuRmVs7/h3mR5YLDjZt0/cb5J8zGwp+cjz6mYDvmkuZvtD2ZOgqc/H9m6I8aW0iL0HstRiRPXg6OyBD3D+Sg/VoMqj7bKl3VrNgdN1El1XvQOKqRETOpiJW/OcaN9ukT275DTxrr9kZqNpjCOmnx7oviED1VF2vaJJSkBKcnBpEKUL9pUHxpN6vHZ/ogsH5fDqHwhJycVnQZHSo3aR+ShJwWh98LF6Z8R8TwU1yL+S4RiH16Y98Nvf0TuJ1xGs8UKs87CxrcRny4cCViklO2D6RZtWzOjZR5TQxUqtuNBKkK3P1ZC/LhY5Td4bHCklNcjPGmJbfsjkqVit+PIdjDAWAWOffcREz6tz24nPT0bH2Kxc1Kh86kYumPCrW4GW6qEhReKpYJZJVx6KeFYnjYpJ7Sa8NNdCU7ZEVE5/fHyjoTOEoYC7qj5THPU5JN8slPnqPlYQgU/wpnJkMyPkPL3VGwak4qyU4qjZpPOUfOqgaPmrXVJfU8FL79sUsJmwNHTXSJhzm/C3b4QnwqHhIW3JlxqY3AF5NO/i8HinceDV3dRF+E4raN5CavLflx68Ry9Oq9lZmnA5IvfcfVkC9y5HpS0zWPuyS9bSYWjCzObP+NsmwdOfsQ004mEgOd1zsgG1vzXUF/igbv2LK6++gmnqsVKX3HUXHkwB19xPnJKezC58k9c6nepxGY3nYwPJu6hGrQNZMmOjkmuDJSP16C9TXPE5PmzpEzUT/nQfb4ILt27NriDXHZ/DdoHspDudCAxI1k+sskdOXnbhJIKxhJRcrIWTbWa42dacwW2OEIWayRKLt+WjpoZvuJPUI6YpthgNfP8FUdIkT4pOwMVJ32oVx0lgx1Fw+nKaFKX8zeQT9SvYzTP0FEzknxcHqPyhbwsIwctM+UoyUtULDIBS4waH6F9RLwgAiIU90UY7j6/p7+v/6+/L/KIJeT6bCi14nyhWT3WHFu6UEfNc5h7qvepMO4njDlQd/kj7l8dRWlBLjLd1ehf/IDlqTqZNHAceybfYC3gqJnrHcT5Jx9xqU/rZ0akgluLkpy8X2dDdtT0z6BE7udZSOTjYOD0h3CUzOWOms+5o6a2QOF6YO7TWPrhGYYrixRHzXTRT6Llb0Hh5FvZUbNG56h5oTnYUTMSqYilDeL1jKVkBvfe3kdDhLE2XuVQPsbkIyypCPWlCP3PlWpvM+HnwOkPZ4uEl5sm/LQu4cLlAKkolrDxwgSfjsHLWwVvJLQnKFYNfqT0xrCEi+JI6ax2pFRsX4gjpSJ8v2nCmeLopILLKB8p/f+dSeWXcz014YbBkdJnCxKGpjRHTZF+YNYk12PzOxNunWTI1NVHfoYxeHokrDw34edNE7h8fCuIxynxWWhb/BUPrg7CFThqKOLk+MRezG1+xlP/2S0v7UrzTWF+9ResvObH1MbQPPlqK6lgVuT1LuHWxh948u4znr77Hv2B8pnNjcapFdzlR8GePce5wYqgAZfxo2JzT3H/1R/wb7zE3ESLepxTL+NOr83JqSgeKEfbeR96zleioSsLKTriINefWZE/XIvugXR1W0SUZ05JQ/nRCnRyf4YLVcqRzMCAISZdvaUgqdaL3gm3uhetP7LZfdqLmnBHShlDSkUhms/60Dtbi95ZLwoDx3yZPRH53WVoP6+8vKu2OU09yRKufCG3CKNN6kbyqfnXZqBivBrd/EhptxNJuqN6RvJxGaKVz5/hk1ZWexk6pnzyRL/FkdWgfXh6PQnQXwsdhLunjxPxIhR56v+L541CZrPCf8yBNxXbX6UqR0rf4PHr33Dn5kl0T2s+FbzMaP3EnNmKY0tv8PjtJ6y/fo+lxWn5nQtCXp6+ZWYVdzbE0fCtR0qFD4dII0Jl+yXMkdB37zBaopGK6ZFeTDx8jxV+pPSidqRUy8eJ6vNP8fDNJ/l4qX+2KTA+Kb5V4qipCJ8G8ufp5frzo+cv+JHS7zEd5kjp1yYVlrQGHH/8G24eL9syjggdUGhMBuKlny2kgh8r1f+ED0VogSxXwuqGhObAIG9LYUh1MCSkM6Q5tEk1NJ34z1ebnFSI7Qdx/zCG/Jx798KP8D9dRU9hdN0cRh1EqpNsYTjlQ01p8NZHpOf/LvcFqajWnV75GnU3ap/QiV//n1+Ln15ucS/cs/rntnttybHh03E7TvzNVqnCUiG2b7art8PwfFrzNSy9+BXXJ+uRErLoOwz1O2h12DmpYAxtl014dUdCV4WE3CyGRN2Lq6IpQpAKvaNmtDQHOZ5PEull3fDqrBgHuT7xkp1l5qJ1phg5Yaw48SrjIOYjSIXeEvM16nFQ2qe4yo7/7bIgI4zv0tfQ25cqU5AKvaXgS5W9X8pJKWuDNydJ9VHZL3L9XeXYMangCmN2ho7TJqx+ZwI/2TGSHfsq/O9GKv6uAItW75RGL3oGY3u1drS8DlP8fiEVB6F9uD/FaJcDjzzb3/o46JghUvFlTPoHHSdfUv5dkYovKSiVRZ2HMEAYIAwQBggD+xsDRCpCXshDgN3fgKX2ofYhDBAGCAP7FwNEKohUqCdVqKPu345KbUNtQxggDBwEDBCpIFJBpIIwQBggDBAGCANxwQCRCgJSXIB0EBg0yUgrPcIAYYAwsLcYIFJBpIJIBWGAMEAYIAwQBuKCASIVBKS4AInY/96yf9Iv6ZcwQBg4CBggUkGkgkjFIccAfytmQf9NXOffjrnUrX7J9SAMUCQjTaSEgYOFgQNPKvhLtCrL7XjSYIHrb/Y2PepsB6uzfa32YjmnsLi5gWMNZcgJfNr+a8lC5RJmCQOHGwNfjVTwt+BN9jrwsCD8WzibGhz4fyf+If/+Om5Dn+5DSnpQ8nzaGhz4vdeKoi9IKmKVTy/rl77m3xxpm1nHt6/+Cf/GK8yf6UDmNl6lbiSveJOf+ADR+uufsXjlNEpTw7dnaF4VM7/KHzbi6Z++u4+GkA+NhT4f+n9L+a9+xOK1s/BmHKxviLCqS/BH+SR1aN23+5/VXIH/2UV4vmD/2K6M9Pzhnmioff8+7btvSYXDwZCdZEZ2lhWbBqTia4F1v8vHyVbh5Cb8386ihn/avKwXp1c+4tqQOy7bHWJSnz/ilj/LnFXQiMHbH+C/1oukGCYvW0qWnC7DO4XbuyAVWvn16L/5HqtLw0iPofyvhZvQcr8IqSi7iIcvr6LsAOklVE/0/+8zKVFbH+y23jGpEJaGZa8Vi/0OfB6zY6PRivzAV+J4/PkBB+4XaO/jr/A58LlRWUmK9A+9Ftzsc+DzqB0bDRa4Q74yx1KseB2BVFT77Jo1o98Kd8igyaxmDNbb8OOwHZ+G7fD7LMgOyd8IwLGkN5KP2cw40WTDL6MOfA6Ur9+iYQ4zLnTY8fuYA/8ds+NNqxWVuhV7tHhD2Vk6Ou98xnx3ikoiUuvO4fRghbynzpxjuPbDKwzma5YFW+MiVja+QYlowxQfhhZe4uHrT1h/wz+/fgKFCcrzglToP2TEaq9jlacPtIP6yWT+6fXvNjCl+2SykJ1ln8DNCKRCtrTwTy6/+gOrGy8xe7wBqUI2lo2+B58RVH7uBG69e4yWwJcqi868w/LFE+hZeAv/6w9YWpyCN02rr5F8on4zowOYXH4PP/+k9GzwJ6WN5OP1Myqf1VyF/12YT1rfGZM/3R5L+wgdRgtZwTksbS6iOqR/REtH8Qd7cKf2o/b7GhjYNan42GPFEacZxS4rHg87sF6skIhYScVvIn22Bf5hB1aKNBLCFWI0advsZtmakV9qw18hpIL7WlTU2PHvPit6nGYUZllwZ9CBpzF+SjrW9JHk4+mbGuz4vd2KNl5+pgVLg/agjx6VVdvx7x4r6lLNcKdbMN3lwMsKrf7R4o0Aw5gFFTMfsHylV52I9c8zloXue5+wOFogkw7GrKic/YCHU3WqI1/+yddYvXsWZe5cZHkaMXT7PRZGiwLPB0/qZkcO6uc3sb40jDTGwPPjlpLVB/PwFXuQV3UMcxu/YqolVSU5cvtGIBVc/qLTm3h0+zQqPPnI9R7BubXfcbEzPWz5cl6Zx3Dj3QraA1swfFJf3VjBaHMZcj1NOHrvNyzPtcARg3yCVCzfu4imUg/yKsdwceNPfNObFSjfWD4uj2H5jgy4ct1wdd6Cf+Mm6vk1/zlTFNIXQ/vo2zPSNW+H1LY78K9NbSHdkdLQfZqMCAOEgZ1iYNekQj9Je6vt+FeTZomIxVIRml5YMkSFIk3aIp6H9oJwpMKMs30OPNCtxLPyrFgssaiTpj6P0GtOimJJH4t8Iu8qnx0f67Q9/8YGB/5stMAWYQUZLV7kGyk0Z3Vj6umf8K88xsSxAZQ4bUETesaRNTxZPoUsPsmafTi18QGnaqzqM97pD3g81wJrGPnEpPtk8w+svf0D6z98gt9/E825ShmMuXHk0SdMtWpleiY24Z9pUPPnckeyVDDmwZD/d0zUaJaF7NENrM23Bib1EFJjc6F65jXW/WeQG5CXT+rrV3tU+S11N7D6dAYFMqkwlk/U71J/hipvwam3WJ1rCZRvLB+vm1H5os2Mtj+itY/II1zIWDlG1v7A2uYnPH37CmNViWo9wj1P92gSIQwQBuKBgV2TCr2jpbvcjr9aLfIgHqulIlJ6UblYJu1IpOKbITsWcrRJSeQZS8jljyW9kXwZ3HrTb8enMQf+M+7Af45p2z9chkSXFe/GHfil14Y7dVaMZpuRoJvAo8XHVA9bFkraJ3Bi4RX8r77DkWKHOrmwjBFc/eE5el0M5rJZ3H9xA16dQ6yj8iKW3n7EvQcPce78ObTXuGEPyCcm3fmhIrjyj2Dq1S+YqNEIBJ/Uxp8Fk4Kso8/w9GpPEKmLTCp4+s9YD5AWTlzkCTKQXpSvkZrPWF27g3aPVj8+qetJDEstR11LhbK9EEU+kb9+e0Uvv1K/yPLxtjEqX7SdEamI1j4ij3Ah/3R6sssNl7sEFcfX4P/2ODJ12AqXhu7RpEIYIAzsFgNEKiK8o2C3pIJZLLg54sCa14KSVDMKUszoabCrPiWi4RISzegstmK+wY734w48K9W2P/gz0eJFPtFCPskUnXmNtRv9KnFhLANddz7h2lA2Ck6+gT+MVcLhrICv9xRGZ/249/YjrgzkBVbqmqWAm9grZt7Df7VL3lrgssSHVHzA2fbAtoDYHggciRSTvkxqct3IykgKIitchtBJXa+jaPKJ/I1JRWT5opUvZDEkFTG0j8jHKCSfCpoojPBBcYSPeGJg16Qi0vYF9ykY73JgvUQ49jE0Nzjw3qf5XPAjpZHSi0qyZCteRXDUFM9EslSc7Q/e/sgusOF+mXnL5CPy0Yfy9kcM6SPJxxKt2Dhuw2DA8ZLro7E+mFSYzcGyFHjt+KvdgsTAijJavF7e0GtmrkDv1Uuoz9QsNba2u3j6aDLofR5p/X6sL83j+PLvOFuvrfJ5fmaLFWadYyvffni6cCTgk6CRCvnZsou4v+lHW8ARMubtD1d4R01l++NPnG/StmPs6fnIcyZtITWhdRf/jUnFzrY/VoK2PyLLx2UwKl/IyCq/wWODI6VG7SPyiBay0lk8eHUVXrJUqFa6aDqjeJpoCQM7w8CuScXvAUfLIm7qP6o5avIGKfTa8Z8jNvQ6zSjJteL5mAM3sgXJUN5T8bHXpjh6Bhw1VwOOnqJBmdWC5WMOLHnMyOFHTJPMSDJzR0CG1ESdo+aADb5AfIpFia/w2fGfgKNmUZYF94YceFKsTbKijHAhzz+W9BHlM1uwOGrH82rFUlHjscE/pJEKnn9PiwMfWq2oTTcjL9WM050OfKy3wCzv+RvHh5NZf4+xTLTf/h3fXhuXHR1zSjpx/OFH3D/vCyJVLP0orrz9J1ZfLcHn0HTDmAN1lz/i/tVRlBbkItNdjf7FD1ieqgvIF0wqGCvC8OpnLIwoR1a5o2Xh5FvZUbNG56h5oTnEUdPRhZnNn3G2zQNnZjYyMp1IkNtPcYRceTAHHz8SW9qDyZV/4lK/K06kwlg+YalYvjcrO2rmckfN59xRMzNQvrF8vC1iIhXu01j64RmGK4sUR830hKCJL1L76Ns62jWrpvdURNMRxe9sAiG9kd5CMbBrUqEeCR2z4/tGKwp0K1tmMWOg3oafR+z4NGTHnVIzUtQ9eYVUPKqwYKnPrhxJbbCoR1KFoHzyLS624e2wA38d5z87zqRw0sB9HrQXZGkvyrJj3hkgLjYzhhrs+GnYsbMjpTGkjyQflz8rx4q1I0rd+HHRwRqNVPB4S5IFl7vs+GNcOVL6Q4cNTYnaxB4tXugoUmh21mPo6nN8++KfWHu5iauzR+EOHAkVaVjg6OmqbutCxJkzW3Fs6Q0ev/2E9dfvsbQ4DW96QLdhjnS6RjbwdH1GxYB6ZPMFP1L6PabDHSllVuT1LuHWxh948u4znr77Hv25gTISitA+9xT3X/0B/8ZLzE20IN3gSKmQW4TRJnUj+QSpmB7pxcTD91jhR0ovhhwpNZCPyxCtfP4MY05Un3+Kh28+yS8D8882BZMKg/YR9YwWssILuPf2MTpc9qC8o6WjeJowCAOEge1iYNek4kGEN2JuVxB6/uuAl7FiDK/9iek2Oh2gx6AgFfrTK/r4L3Udj/bhVqvamRfwv/uEdfr2BxGrCH5kXwrTVM7XGeu/lN53TSr0pze+lNBUTvxAyQrP487mAzQGXhhFulV0K0iF3lHza+gmXu3DLXvWpCxk0bc/iFQQqSAM7CEGiFTsoXK/xiS03TLdJ15hfeGI6hy63fSH9fn9QiqofeJHoA8rVqlehJH9hIEdk4r9VAmShToVYYAwQBggDBAGvj4GiFT8zS0V1Am/fiekNqA2IAwQBg4LBohUEKmg/UXCAGGAMEAYIAzEBQNEKghIcQHSYWHZVA9aMRIGCAOEgZ1jgEgFkQoiFYQBwgBhgDBAGIgLBohUEJDiAiRi9jtn9qQ70h1hgDBwWDBApIJIBZEKwgBhgDBAGCAMxAUDRCoISHEB0mFh2VQPWjESBggDhIGdY4BIBZEKIhWEAcIAYYAwQBiICwaIVBCQ4gIkYvY7Z/akO9IdYYAwcFgwQKSCSAWRCsIAYYAwQBggDMQFA0QqCEhxAdJhYdlUD1oxEgYIA4SBnWOASAWRCiIVhAHCAGGAMEAYiAsGiFQQkOICJGL2O2f2pDvSHWGAMHBYMECkgkgFkQrCAGGAMEAYIAzEBQNEKghIcQHSYWHZVA9aMRIGCAOEgZ1jgEgFkQoiFYQBwgBhgDBAGIgL38G3GgAAIABJREFUBohUEJDiAiRi9jtn9qQ70h1hgDBwWDBApIJIBZEKwgBhgDBAGCAMxAUDRCoISHEB0mFh2VQPWjESBggDhIGdY4BIBZEKIhWEAcIAYYAwQBiICwaIVBCQ4gIkYvY7Z/akO9IdYYAwcFgwQKSCSAWRCsIAYYAwQBggDMQFA0QqCEhxAdJhYdlUD1oxEgYIA4SBnWOASAWRCiIVhAHCAGGAMEAYiAsGiFQQkOICJGL2O2f2pDvSHWGAMHBYMECkgkgFkQrCAGGAMEAYIAzEBQNEKghIcQHSYWHZVA9aMRIGCAOEgZ1jgEgFkQoiFYQBwgBhgDBAGIgLBohUEJDiAiRi9jtn9qQ70h1hgDBwWDDwtycVjDFUltvxpMECF2M0wW6TZH1t/X3t8g/LQLCX9WDMDo93DmcbGpB2CPvYYa/fXmKD8j58ZIpIBTOjrcGB33utKNqDAY+5rPg0bEP1HuQdS4fcbfnR0rO91h9jqK2y4/2YA//vxD/w15gNTTpd7lX5TQ1KeXKZx23os2yPcO42fSxte1CeYSwHrd2PcLmxHkm6tosmf2n9Cu4c+07+LbU0wBqS1lowg6XeAaTr7ttzz+Hm4DjyzNtrr2iyGMXvtH5GefI4xioxOnIPPelKXRizoqrlCWa8Lnnxw1g6mrueqTriuloaX8XRHHMgvgLDw0r80tgKrvbNoTsnHWadvqLJsJt4xixIKJ9B48J7dF+Z2kIokztW0D3eSgu5bS7kdtMmXyLt355U7LWSo03K+738ry6/w4onx+24kmtGTpIZ2YlmOL7AoOhwMGTz8rKs2NwBqdht+r3GxX7Pn5NFu8OJtCQnfM2r+Kbas2XyYa5TWBg6BncAD4wlwte6hllvzpZn93t9w8nHErsxNT4Pn1WQihx09T/BWJ4lQBqsSEh0Ii25A6fG7mMwh+srHQkBQsUSOnF+/Dra05xIT85HefV1LA6fQ1kgv3BlxuseYwlIbbmDtht+lPUvooNIxaHAZCz4OLCkgg86k70OLHutWOx34POYHRuNVuTrVijVPjs+Nlpxst2OT2N2vOuwojFBW8HweL4SlVej/VZ1cOKKY8lWvDpux1ii9rwly4rfh22oFZ3WZsaJJht+GXXg87Adfp+2hcJybPh8XFvtquV0W5EhBkGrGSMNNvwy5sC/hu14XGWGcxsTJnOYcaHDjt/HHPjvmB1vWq2otAUGoFjK36X8RvqTdWg1Y7Dehh+H7fgU0E+2rn1iAShLseJ1hEndqHwNHxYs9dnxedSOjQZL0AqWGdRfyGZUvnjGKDRKz+T2t+P9iB2fhux4UGHWsKHi21j+U612fBx14F2bFWN1dnysUyYcI5lEHGMO5BWfw4VBP26PPcHCkcvozU5WBz+uw9TsIZzofYjFET8udU2gKkXLn9nbcHb8EroKj+PC0ApuDi1itDAHFoHvlAFcHA+slMcfoM+p9SUuA982yPJMyOXztEOeAUyOXwvqo4ylyqvxicJEVS5V/rQhzI+dQ5koL6Ed58auoTHQZ3ctfzT9RK2fGamuIzjeex8LYfRnyTuH2wPH0eCdw/zwCm4MzKPdmaDWk2WHkCZzDcbHltCZFqLHlH7McPIR6PuqfjJP4PrRU/AI/VibcGp8AS1JwenF8/EMGctF/uhFZDvtYAVTaN8hqWB2C5aGHPjUbUX+NsbGeNaF8treFs2BJxUfe6w44jSj2GXF42EH1osV0x8HAp90/jVsw3y+GUXpFsz0OPCxyYKEADhtdrO8Gs0vteGvUFLBzLgw4IC/UMvPW2PHp0aLbIble/lNDXb83m5Fm9OMwkwLlgbteOQJmB6tDPkpZhQU2uTtj15+zX+JTB50efoqnwP/7LKiOd2MoiwL7gza8bgw9g5fVm3Hv3usqEs1w51uwXSXAy8rYi9/N/Jz/Rrrj6Gixo5/91nRw/Uj18+BpyWaPo06K3Na8eO4A/85Zsdfxx34X37Nf8M2NMTYfpx0/i7wkW3F+ogDjwPtGa39hGxGpEA8YxRGSs8nvMoaO/7VZ0NnhhnF2Rb4hx24XxBovwCpMJK/tMqO/x6xod9pRrnbirUhx7ZIhdk5hsvDl9DuykVGSj68tTex2DugEltL2iBmh66gK9eDrNRC1Dbdx2JLPexiknKO4vLYQ5ytboI7NQ/FFZdxc2QaFYLYWpJkS0NaxhFMjV9BgyMY2xbnCOZHFjGYXwhXmhddLXdxbeQ0inWTB2MlGBpaxkBWcFquc+bokElNrV2Jc5YvYLG1We3fu5U/mn5YtPqlDWBmOFC/1FK0tj/GTZ3+MspuYGnoOgaKS+FKK0F7ux9LHR3qFlFy8WX5f6LQNycPY7OoDNmKM+dMYnHo+JZJN7FoHkvd3UgV6WXLxVbyEQ6/jJVjZO0PrL0N+V3qVkljuHTiHse3WSy+dkMqEq14csyB/w5ZUa7DhSiHwu1N+F9CXweeVOgnKW+1Hf9q0lZSnFT8t9UCWwCMljwb/j1khTcEnPaCraSCK5/n959WhYTwTnJ+wIE77q2Dm2ioKm4ZCVkpRto+4PlNHbHjZraWX4HXjv/o5Bf5RgobGxz4s1GrX7jnIpUf7tntyK9PH05/vH5n+xx4kK/VLyvPisUSS2yDksWMPE7Csvn2gx0n0wOkLMWsThpChkjlc1Khx0dDvR2/10UmNWHrb2ApEeUbhUak4mw/JxGafmTS2hBMKiLJz/V7okcj0Zwk9bRsj1Sk80mtowNi0tLXg+dfVPcIFyvy1JWzxT2Fpe4+dW/cmj+NpaETKBCTh4NbLq6jSWfd43ky5yiujEwGkQV+v6D2Ia7Vlat4SCr6RvaR0FvrmL0VZ8avokFnYRRyMnnlfhvtKQyM5aFnwI+RXLssbzzkN9KPkCFS/Xj5cv18paoPg61gNsgHpLjOj8XmenV8snsuYqn3iErqCmqXca22TNW/Oec0Fo+MIidk/EorvRZERoRs7ur7uFlfqaZnWcdxfejEFvIhnteH3IqU7HLDlRvyy9hqMdKnC3e9G0sFz8/hMCMrxAoTrhy6tz8IxoEnFQ91g7K73I6/WhVLAgcYJxWfGjSSwRwW9ORv3WIINynx9OYsK34btaHVzMCSrNg4ZkOfDtwZ3DrSz7dWAqvoYw58btTK43lEmtT5oPPNkAP/PRZIG1iJ6+WP1kkSXVa8G3fgl14b7tRZMZq9dcKNVD7Pezfy62ULpz+lfnYs5GiTpj5NrNeRJmV9+kjlc1Khx0eFL7h9Yqr/HpKKb4aC9aPHL9efkfw8fuaIA0t5mn453kNJrV5PodfWzDFcGl3Bpa5ZDFcPoMaZrk7wjDnR2vMMS6PruKX+nmKptUmdBLO8t3C7pV5LY81GiccLZ8gWly3gUCm2/bgcspNh9zOc8miTlLN8MSg/+TlOSIa3EhIljyIcCVgxLFnHcZVPmILgxEF+I/3odRm+for+Tnoc6qQuT/7trbJPEGNJqO98hvOl6Wq8bLloa5YtQdwnoa79Gc6VaPFppdex1NaiWoqEDEW1j3Cjzqvmo+jGDl/rU8yUK06d/J5M2jo6VUuISL/X4W5JxV7LR/nHl4z8rUhFJPCEm5T4s8xswcKwHddcDOnFNvxvp1UzJVosuDniwJrXgpJUZRXd02DfNqlY8mgrcLE9EknOcPcTEs3oLLZivsGO9+MOPCsNXolHIhVsl/LrZQmnv/1OKmKu/z4mFbODuyMVvA0dySWoKh5Af9MibowvYyhbrPTLcXT4HgZzXHCm6H4J2iRZ1hjegVKPDX7tqriN280a+eD3lG2NRzii29YobVjBN1UFQZOjvHrv0awj+rwZy0R771OM5dlR2vAYc5WaVYWb7+MhfyT96OUIXz9e/kP06/xIiuoe41ptiVw/xgrRP7iG4cBJDZ4ft1xcqSkOxHvQN7iCo9laf9bHi/K5c2pDxzNcKM0I0hu33HTrnDr58+7qb7eQD5FPaLjb7Q99fkQq4jtp63W7H68PPKnQm4f5doXeUhBqqYjUAOEmRf4sNym3NznwS40Ffa3BpnSWaMXGcRsGxf4xY2isDy5fzsNlxZ9hjpTySZdvf9zVbackJJhRHGI6jiQzv282m9VVIv/Pt0/+arcEmbM5qQhb/i7l18sVTn+8fty8r9/+yC6w4X5ZsMz6fMJd75WlIub2kx12t3+kVNRFcfjdml7oJ9r2RyRLC0/PLRn+gA8Ox2pbU+zbH/y4n8ViUU3zwnJwtiRNmdTMdTg+voDmgFMfN4enpOYhVcV7Opq7n2GyMCloMhP1FiGXk5OP+RCywCz1ODG+hI5UxdLCHfu6+p8h1CEzu3IJtxprVDlFvjzkjqa+1mc4XdqK8eHraNb1HbZL+aPpR8gRsX5y+crWjCIrt1w8wYkCxRGTWRpwclwfnyyTgzPFqQFSUYMxnVOmQqC09Fr5HvQPrgaRE7k8iw/HRpfQqeqXl/8Uk4WaI67II1y4n7Y/wslH9/YvUTnwpEI4shXxrYij2h4zB50RqeCDcGqizlFzwAYfP0KYZEaKzhEqId+Gf/fb8GTUjlPJmqmZWzEWR+14Xq1YKmo8NviHwpCKVCs2j9kx61IsEvkJYs9ccdT83GeVHfU8TgsWj3DiopVh1HHEHvqHVitq083ISzXjdKcDH+u1iYKnZ5HKj4P8Rvrj8lX47PhPwFGTO6LeG3LgSXFs9RN1j0QqorWfmHQjTsqx1t9qwfIxB7hFST7SmmRGUoh5X8gaLmQR0nP5haNmh85R89t8gY9o2x8MtbWKo67XzpCYZsWDodi3P/hxxfPjSxjMyUZqQgaysodxYeQ22tVJqAB9g+uYrq5GdkoePMXncWl4BpUBZ0vGSjE45MegztKgr7/Zmqw4aSYVoKv7Gc6Vu5X/DodMEJi5HEePPsFsTQ2yUwvg9c7i0tjjIMsFz4+vrm919CI7STlemhZIL8ri77KY61nAjbaWYDLNdid/NP1ErR8rxMDgE8zUVCM71Y0S7zyuDU6iRJCy1EHMj02jUt2uKcTA0AqGAj5W3JIxMPQEF6q8cCZlo6h8HteGzqFUpGcOJHGdJHfjzPgS+lxcP8nq1ghLHsDs+CU0pTiRkVqMqpprWBicQPEXOE7K24a/U8OelotEZy4Sqy+h48oluPi106kuhOT3VJwaUp6R43h8etD7SHg/Hm2141WzVfU1EW1P4f4kFgeeVDz0WnCzTzlS+n2jVXUa44AzJhWKT4M46inCv47bMa8zWTKbBf5jDvw1YFWPZgkwZ+VYsXbELh9n5cc5B2vCkApmRnudHb8FXt6kt6TwI42jjXZ8EEdSayxwbWPCsiRZcLnLjj/GlSOlP3TYtjrJGZS/G/l5Z+c+IUJvItTrj9dvqMGOn4YdcT9SGq38aKSCt2Fs9WcoLrbh7bBDPoXC63cmJXZixMlDpPTykdLGwJHSo3Y8DHOkNBIp4vKzRAtuDihy/WvQhvmmbZAKlghPxTzmj65haWwV1/ov40i+Sx3wef5JWYOYGFjGzZHHmO+cRH2G7rijrRmT4zeCrAOiX/CQ+w+IF1fpw1uNPoVUMAucnrOYlY+iXsdg4RDOjAdbG3g+ltR2nOz343bgaKpIL8rKrbqLpfEVjOZq2zIibjfy820FI/1Eqx+XIdl1FBP9j3BzeBnzHSdQnarJaM49g1tHRlSnS2ZtwsT4zaDjnqk5ozgz8AiLI49k/del6/Sf1IPpgE6EfpeGJ1AYcOLkTp23AvG3R5Yx2zoKb7LV0Kok9BaPkFueCmfeo2fpl6Bf9+0byA4s2jip2BJ/Yz6IPPDx9/ExB155tW2geMhHeewdITnwpOKBzlGTgLJ3QCHd7k/dctKSlmhGooXBV+fAbwanW6gN92cbUrtEbheWZcVHfvrrC7xbg9ohcjtsRzcHnlToV3LbqTg9Gx8AkR6/nh7lLaDAll1OihlzfXx7iVZ0hMmvh8l4697N/cR6rMgKOUYb73Iov/hhhkjFIXvvOnWO+HWO/a5LvsVzZVjZgvrvuPJG1ZIvtGe+33VD8h38fsBJM3eQfxLjC/OozfdHmx9YUkEA2h8AonagdiAMEAYIA4QBgQEiFWSp+GLOWwJ0FNIARBggDBAGDicGiFQQqSBSQRggDBAGCAOEgbhggEgFASkuQKJVx+FcdVC7UrsSBggD28EAkQoiFUQqCAOEAcIAYYAwEBcMEKkgIMUFSNthsvQsrXwIA4QBwsDhxACRCiIVRCoIA4QBwgBhgDAQFwwQqSAgxQVItOo4nKsOaldqV8IAYWA7GCBSQaSCSAVhgDBAGCAMEAbiggEiFQSkuABpO0yWnqWVD2GAMEAYOJwYIFJBpIJIBWGAMEAYIAwQBuKCASIVBKS4AIlWHYdz1UHtSu1KGCAMbAcDRCqIVBCpIAwQBggDhAHCQFwwQKSCgBQXIG2HydKztPIhDBAGCAOHEwNEKohUEKkgDBAGCAOEAcJAXDBApIKAFBcg0arjcK46qF2pXQkDhIHtYIBIBZEKIhWEAcIAYYAwQBiICwaIVBCQ4gKk7TBZepZWPoQBwgBh4HBigEgFkQoiFYQBwgBhgDBAGIgLBohUEJDiAiRadRzOVQe1K7UrYYAwsB0MEKkgUkGkgjBAGCAMEAYIA3HBAJEKAlJcgLQdJkvP0sqHMEAYIAwcTgwQqSBSQaSCMEAYIAwQBggDccEAkQoCUlyARKuOw7nqoHaldiUMEAa2gwEiFUQqiFQQBggDhAHCAGEgLhggUkFAiguQtsNk6Vla+RAGCAOEgcOJASIVRCqIVBAGCAOEAcIAYSAuGCBSQUCKC5Bo1XE4Vx3UrtSuhAHCwHYwQKSCSAWRCsIAYYAwQBggDMQFA0QqCEhxAdJ2mCw9SysfwgBhgDDw/7H33W9RJF3b/05VvROXzMPAkC5yGCQocIGgZHUUVEQwkteAIixiQBkEEwsoY1jd4O7qvs/3PN//dH9fzUxP9/REdFTC+aGv6u5Kp07d0+fuOqemdycGiFREIRVCCJQf55gf4cgUggxwFH1t1weFKbMBPWMP4aymOfzcOeoePxAT/sOVC3c/mjz27mmMDHYjL5HmLpquKH93GuqdNK87mlSIJA7nGMezVQb3c4aFCYHy5MAHjzBzTL1geHdfIPszSIEkFQ3DHOt3OAo19YVJ4OYmg/tHAasQkOXOuRjeLnDkaMptBQyVQwybw4Hyh6tfN8zw/hX3HO/cHIfMgfWkPL131TJv1hhc1xlqMwLLhWt/u9wX+zg2n3FUfqZO5TispWcxtfoaE2e6kJ8Sn/FXjf6Gp2/+8RxPXt9Dg07/20V/keQQFhvqxvah3C5gqSpD10AOkqPoORZiIMvoyyn3lFQrVzQ5zPZ6dE3+jMXlm6hNN8REbLTt0zkZWsLAt8NAEKmoqalBtGM7TJA0mm1TDGuzHK0VHPkFAi0DDM+nBFI1D0bh4Fh/yOF6ydCeFB+DIsfvIRUrDK4VhkazgMjnWLrH4fpGpMKSwpGVKZDl4FiOQCrmjnjL5RQI9E1zvJrdWSsuX0oqhKUa/Y9/w3hHNgwaXHwphs0pWcjIzEaGYxg/7VRSYczwkIqyLAFTZSm6+nOQ+IU60pIJPYFQ8pRUmQMRgxxCJMMx4oZruifg9620Qem3Mxqka9J1JAyEJBWRKkjCESn/W+VJI76yytCQoBIFSTQGXAxOm3ovv49h7QLH8XmGyf3qfeVNfrpXYPI+h3uN4cGoQK5JLSNXDvyrATqy4CEVaxzD4wyTdQI5xxnmz3MsacqJBI6eEe9KyuYThht9HGmah7ZI5RicZnixzrAyxXH0UuBKhbBydI8wPF9jePWcYeY0R7pBlU/qWmRzuCKQipstanmRy/HIzdHpI1dyfBtjHMdvMrjXGR5Pc9SmacpHkD8W/UWTP1L/opbD7Vb175+HOa8OhY1jwc3Rn6/Ka2lgcD9jqNLoyNr0Ex4tDyNfc8+jN3s/pl8t43C6Wt9QNYmF1aso95UVSQ50TD7GnfUPcK1uYGLoIDL07WSfwa0QpEKIfBxb/IThgyb/76VoyA3XWJP/WlhL0Dq2gjsbf+HR6jrG+huQqmv/a/6ehEjDvpFKFKcJGEqL0dVn96y6aftUiEGkVFtefx5LvVjkkO2KVCeuuJ+h067Omb4/uiaDRxj4vhjYsaTC1Mzx9obX9ZBYyTG/wrA8LHDyFsNlh/ehIw1fzwzD9SaB0jMMzwe5+kD3uQfW5znaywSKqjhmnjHc7lIfWOZk4VkNyD3C8E5DFjwPOOn+cDO0NzM8v8ThnONwNnKs+srJvisGGV7d42guESiq5ph9xjDVrMpWN8zx+h5HU7FA8X6OW8sqqfDUH+J4Mcuxv1CgwMFxdYlh5rAqn0eOrZCKTI6HboYjqd42pFF/9YzhfJNAQSHH4G2OjXGBBJ87J5r80r0STn+xyB+xf6tAbi5H7mHp2uJolefysAkYffI55xlcfao+D4wyrF/y5isPlsKBl3g0cdA/78p9IQrhdH3EeFuqP69o0Gv0ve2b4Bh9j4XpQVSXFSOnohsXln/H2OE0f3mv/j+PVAhhRMk5Nx7+dA5VRQXIdRzFxeU/MN6WHtC+Iq8+FaISvct/YXlTd1zp8OhHXz7UtRApqLxQjvxEAVFQiHZnJkwa0huqjn6VQV9GSyJknra8cq6kSt1Y5RCiyDNnFxvJBaLojtLva0BJ/8H637GkIq2Lwz3KPbEMXdMMi2c5Sh0CZ6cZxmt9hsbEcW3da0SNNRybd9Wlf2n0pFGc71aNdOkAw6tx9VoBjLklHKng6LQJ3HAxPJ7nsFdzuDWk4tQCw42DantlAwybI15iI/s/s6jmy+v6sUBSMbDIMFGj1s/rZXgzoRIjKV+sKxUGM0fjMMObhxwFPsMhjfrbaxxm37XxAMfrFYZSn9GOJn8k/cnxRJM/Uv+K7iO5PzKPcPyi6NvAMfaMYUyjL9lGxaV3WLgYenWt8Owmlq+3w+IZr1xZ+ICLjdawRr3k3Cs8uLw/IF985kqF10D+gUEfVqWs2X2rWJ5sCWhf0YM+FcKCZHs+7Lm6IyMxpvr69mK91hOCUPWUMkoqy8hz7RGqXrR7QmSh884njLclfdUxRpOD8oMNCemEdKJgICypCBVXISttF/dHWjfzkQqOQZd3GVwaMunm8JOKCo61RY58aTQSOGZfMrT53CWyrDSKWveAdGG8u8aD3tYikYqj6Rw1xxnONwuIA9wfqCkEx8XHqixSd9r2Q+VLI6sEair5bzcZXr/wHm9eBssXjVT84qv/1s3waomhp1AlKdr+pHwiVaDlIEe6x8hGkz+y/mKRP1L/CkAjkQqRwXHfzXHCLmAo51hd5agzquOTbVRcfh+WVBgqJ3B/YwbVJgFhO4kp913Ua9xpqdUXMPbwDVwvfasB7k8B7guPzj6bVFTi1NNPWHFrVhrcH/HkemfMKw2Kjr5lqiUK4fpVyigkQimn3Feut5oqpGKiPZlIxQ7dhbXVOafyO4+shCUV4SZz+5EKgfPLDCdzvTswnHOqIc/t5Xgnd2ise483bq4SjriQCgZnpmrERIO6oqEYVYXgSH1+Dqm40upb9leW/3W7N6KRijmn142QkxHoFpDy6I26ds6jyx8bqYgkf6T+FVkikgohIOf7/jGve2tzXAQRwvKL77BwqS6kERLG/Rhc/RVnqo1I6XyIlRknknyrNsJUj8Gff8Nkbz3yfKsBB0bfxJlU/IoLhz5vpSEe7g9Fx5FShRhESrX1teXkfe219lxbJ9ZzIezouidXKr7uakys8lC5nWfwaM6+/pwFkIofEpM9KxE//PBDyIdwQkKCJ99g+P4+Te1KxdASw6k8L6lQVirkSoR0i9x2cuRkC8/RMsLwdMBLApSVCr37wz2mkgQFgOFXKhiOa0lFo5ZUCERzH0j3gOIekfKEcn9ca1TlsaYLFGmCUKV8wh57oKYyHiWNZNSlPNHkD+X+UPQn68vxRZI/Uv+KjKKK42WELaW2boa3cxzDCwxX6lVdKfVzT/2Mlakuv4tHuS9TIUyonfwdd4f2o/7aX7h6JNOPe2E7hRuvH6DZv7JlgGP412BSYQ8XU5GGtrlP+LHbG4MhhAH7xn7HnaFKTx9e98ffuNSkBnJa0guQZ4ttaX8nuD+kjiWRUHSuPVfubSUVogqnn33AYN33f/5sRW4q+/UNGel4++g4gFRYE5JQVVWFyspKmEzqw05OmLyW9x0Oh/8h8T0nUhtT4bzNMNshYE7lmF7zrlQIE8eVdY7TeaqhSWhheDvPYfPFDEijuH6bo61MoFAGaj5VAzWlUUy2aQI1Fzmq5BbOTIFkuYXUF6gZiVRUnPUGajZpAjWvRwjUnF3hGveHQMUQh9sX6JlfxjHhkjEgupgKK8f0JsOVVgG7T75Eo5dg6d07+vmKZNTl+KPJH01/0eSP1L8iq8jjWHEzDFb5Ajc1uzVkGZHOcVe6h9Y4mq3qXCv1jY5J3N+Yx4Ew24mtzXN49MCFK2vP0aXZVSCMDRha+wPXBw4iP7cIZa2TmHj8PphUWNsx6v4FF1qLYJNbTDNtSPC5YHJ6V7HsmkJ9WRHy91/A9Y23OFvjjdlQAjWX7k+grrQAOeWdGFr6E1d67Nvi96XoT5/GQgyUMjKNdOjbjnZtLBvFnc17aAgzl9HqU/72MTw0F7t3LoJIhSQWeXl5KC4uDni4yeucnJyAe98TGJZWhl98uz9sBznW3QxvVzguX/WRilKO1TWGOs0WPY+r4CXHoQSN0T3BMa5sKR1Tt5Qqy//KVkYlfedmOF8anVRI3Xi2lP7/YFLPn3M9YbgZYUvp02kO57AaU6HUPzLGPOOQWyVnBwQyNePxlBECRZ0cS88ZfnEzSPkUV9CXkAql/54w8kvS4Wk/jP6U+pHkj4lUCIHGiwxrG97tpTI4V7atHFKOY3MMr65yz64V5b6SSj9868xvuH/9GOyWYNLzj7VUAAAgAElEQVQhErsw4f6EJ64LQX9allY3jMlH77H04h1mrp9E89BGMKkQJuR1zWF29S88fv0JT17/jJ5cbz/CnI/G4SXM//wHXE+f4+KxqoD/gRAJJTg08QT3Nv6Ca3UdE4MHg7YMK+PYLqlCGCLJoxAJWUZbXnseqX6oPGNaA/oXf8et/oogF1eo8nRP/Y2QLkgX3xIDIUmFJBbFJSV+EiHJhJ5kfEshQ/Xl+c+FVY5m31uLOUUg1SqQkC6QFuKNVd+GYhQV94M+n64j/xC3i/4k+ZPuL23ArX7u5P9BdEy/gevJI3QWBxMLfXm69s69Qg5iSbU6U8iDNg3VhrZOpPO05inMrf2GG0P1SNGR6kj1KC/yb5j0Q/r5GhgISyoSk1JQWelAbm5uSHfI1xBmK21Ko9Z6lWHjNkd7FUdulkCi5o+rorWlGMVIxihaG3s5f7voTxRxPN3kaIuyJC5jENIrOuDwrSLs5bnbaWNPqWiFIycprv+IutN0QPISAdgpGAhLKuRqRWr6vzyBmTJAczsOSFgEDp9jePSMQe7s6M2O/S10uxjF7ajXWGTaLvor7md4c5NH/WZFLGOiMvTgJgwQBggDX4aBiKRCEovtsoWUJvrLJpr0R/ojDBAGCAOEga+NASIVmqC/r61sap9+0IQBwgBhgDCwmzFApIJIxbZ0be3mHx2NjYwKYYAwsFsxQKSCSAWRCsIAYYAwQBggDMQFA0QqCEhxAdJuZd00LnqjJAwQBggDsWOASAWRCiIVhAHCAGGAMEAYiAsGiFQQkOICJGLysTN50hXpijBAGNitGIhIKv5ly0R1dTWSk+lTw7sVADQuergRBggDhAHCQLwwEJZUpP/L5vm4mM3mTZOSYvt6YrwEo3a2BnJTZgN6xh7CWR37H4BJHcs/sUrbX4r69gxYfZ/9jpfu7d3TGBnsRl7i1mSKV//UztYwRPoifREGCANfioGQpCItPcNDKBQiIVP59VLl+ks7jVd9kcThHPN9sOs5w8KEQHmy14CJWg632/sRKuVjYDKVH9zqTolu5KL9Y2TdsNr2OzfHIXP0NvXjbpxQ21BkvHckfDvhPsBlLT2LqdXXmDjThXzN2ITFhrqxfSi3C1iqytA1kBP0z5Pya5lZbftwuC8bKVFIRXrLPrS3pfrdJdHaN9vr0TX5MxaXb6I2nT5XrZ9/uqYHOGGAMLDbMBBEKlLT00MSiO1GLKTRb5tiWJvlaK3gyC8QaBlgeD4lkCo/bW4RyPR9Ctw5zbA8yD2fLZefLk+I4aNE0UiFJcXXnoNj+TNJhdXTBsfxGYaVIe9n1dMStkYqhKUa/Y9/w3hHdtC3EYQxw0MqyrIETJWl6OrPCfhK5lbBHEQqYmhfiGQ4RtxwTfd45mWrfVJ5eugSBggDhIGdg4EAUpGQlOL5W+5wKxLyvvzbboPh+791inyOlVWGBo0RlkRgwMXgtKmGWd47dI3BdSLwk9kSpJ6VjkmG5z8zuJ9xzA6qnxb3kwr5ae97HO41hvvDHDlGtW1PG9kcrjCkQlg5ukcYnq8xvHrOMHOaB33aWvbTPsWwdDKwXU/bqRyD0wwv1hlWpjiOXgr8NLosY236CY+Wh5EfgigJkYZ9I5UoThMwlBajq88e4OKQJEH5emTX6ewgwiESU1DmrELb5VocPJqFgkO6lYoo7Uv5vONw4or7GTrtwWNUylC6cx4aNFc0V4QBwkA4DASQili+9bFdvgViauZ4e0N4jGRiJcf8CsPysMDJWwyXHarxCkcq5P26EYb1mxwNpQIF5RxXlhhuHfLWVUjF2m2OtjKBomqO2WcMcx1q21KpIgypkPUrhjhezHLsLxQocHBcXWKYOayrH4ZUeOQb5nh9j6OpWKB4P8et5WBSUTjwEo8mDvpdEtqJFiIFlRfKkZ8oIAoK0e7MhEnj4jBYLUhIsSCxpgx6UiGEAZltNeg4lQ97VgJSinJRN1gT6P6I0r4iixBFcLo+4mLj9yejikyU0kORMEAYIAzEHwM7llSkdXG4R7kn0LBrmmHxLEepQ+DsNMN4rWq4pXEOt1KhB1TFEMPGJe+KhkIq5rvVtkoHGNxj6rWsH4lUDCwyTNSo5fN6Gd5MBK6YyH5CrVTI+2cWGW4c9NaX1/VjwaSi4tI7LFysCUkq9OMLd20sLwlBKhJQeqYOtWVeIiBJRlZHbQCpCNee/r4QWei88wnjbRTsq9cNXcf/oUY6JZ0SBr4fBsKSCrkioT/kRG2XlYq0buYjFRyDLo7+fOEhGMfnYycVafs4Zh4wbG4wvH7B8GbT26Ycp0IqbraopCDnOMO7azzgbT88qeC4+Jjh7aa3bU/7L0PUD0sqvPW1BClUoGbF5fdfiVQkoeJcLaoK1PHrYypi/eEqpGKinbYmx6ozKvf9Hoqke9I9YeDzMRCWVIRT6vYjFQLnlxlO5npJhXMuNlIhTALjqwxzJwSKcjlyczlaRuJPKq60etuW7XuODNVISx2HX6mIjVSUX3yHhUt1X2GlIp6kwo6ue3KlIvGL5AyHSbr/+Q8A0h3pjjBAGIgnBnYBqeAYWmI4lbe1lQphE3jgZmj3BXpK4157OZhURHV/2EMHasr2pPvjWqNKIqzpAkWaIFI5keFJhbd+NPdH7qmfsTLVBbMmVmKrAPn67o8qnH72AYN1FFOx1bmh8vTAJwwQBnYSBnYuqdDEVDhvM8x2CJhTOabXYlypMApMrjLcOyNQnCtQ1coxuxxMKjbuRAnUtHJMbzJcaRWw+7awJhq9BEcGarrvcTSXCOSXcUy4GOa71ZiKSFtKJdmo0wVqzq5wbA6rJEUCzeiYxP2NeRxICrwfDYQyRsKcrAnUPJOPjBTvtdkjf3Cg5v6hz4upMJaN4s7mPTRsUcZoY6B8etgSBggDhIHthYGQpEIfS6G/3g6TaGll+MW3+8N2kGPdzfB2hePy1dhIhRyDrZZjzsXgXmdYusrRPugN/pR50qj33mW41cfx4wLzbCldGOHI1W8pFQJFnRxLzxl+cTPPn2tJV4ynjQSOI2MMq2tyyyrD7IC6ZVXmR/vzK6HZUvp0msM5HByoKeMVWmd+w/3rx2C3xE4shJDujf3+LaX+raW+P8vyyK/ZUtrizEZhW+CWUlkm2mFMa0D/4u+41V8REIsSrR7lR9ct6Yh0RBggDGw3DASRCrmtVHtslxgKveJELsejVY5m39uvOUUg1SqQkC6QZo3duOrb3YnXwlqCjuk3cD15hM7i7TP2tOYpzK39hhtD9UgJ8T8aO1HXJDM9xAkDhAHCQHgM7FxSIQRarzJs3OZor+LIzRJING0fg/qtQSeEBekVHXD4Vkm+df+h+kupaIUjJynonz5DlaV74X+kpBvSDWGAMLBTMLBjSYVUsPwr7sPnGB49Y3jj5ujN3rukYqcAjuSkhyNhgDBAGNi9GNjRpIKAuXuBSXNLc0sYIAwQBnYeBohUxBBsSMDeecCmOaM5IwwQBggD3x4DRCqIVETdwUE/zG//wySdk84JA4SBnYgBIhVEKohUEAYIA4QBwgBhIC4YIFJBQIoLkHYioyaZ6U2QMEAYIAzEFwNEKohUEKkgDBAGCAOEAcJAXDBApIKAFBcgEduPL9snfZI+CQOEgZ2IASIVRCqIVBAGCAOEAcIAYSAuGNjzpEJ+42NfpQWPG4ywf8GXPncio4xFZiFMKD5+H1fGOpD+HfQjhBH5lRO4UN+A1O/Qfyw6ojL0RkkYIAwQBrwYIFIhDGhtsOKPLhNKvoLREnYTPp4wo+ZrtG0tQevoCu5u/AnX6gYmzx9Gpu6vykX1FbhWJz97bEIkoGbEjQd3B5D7FcYQ7YcohBUVB+5iqqMnKukrqL2H6fqquLDtaHJRPhkRwgBhgDAQjIE9Tyq+Nii+FqmQny4vHnLDdXcMtaUFyKnowrmlD5hy5gcY1S8lFV9bP/Fsn0hF8A88nvqltki/hAHCQDQM7FhSIY3qUJcVDxwmzPRY8emkBauNJhRovoZZU2fBh0YTBg5Z8PGkBa8Pm9CYoH4fROb/3zM/eI7/9piQr3kTF8kmbPRbcDJRLW/MMuGPE2bs9/UhzAacaTLjfZ8Vn05Y4KpTXSgix4xP/VZ/+/5+OkzI8PUjTAb0Npjx/qQV/5ywYLHaAJtGhkiTJ0Q62m5/wmRHip9EpB64iHPHqmAUAqL2OlyvP+Hpm38Cjie3T/rdCCXnX+PB+Bl0Tm/C9eJXzM0Mw5GmjlfmK/WfPDiLLI1sQmSj+/4njPb14PyDd3BtvMbUaDsyNZ+GFwkV6Lq2hgcbv2HuxkkcvvwaDy7v98sbaXwyT5KE26efeY65riN+vSn1hLUSnYdu42avC5MtHWjcH7xSISxGzDmt+NhhQoFGfqUNSukhSRggDBAG4oeBHU8qPnSacNRmQKndhMUTVqyUGvxGS5KGf06YMVlgQEm6EaOdVnxoMiLBZ1zMFgOykwwoKDcjiFQIAy4fscJVrLbnqLXgY6MRJmm0hUBTgwV/HDKh1WZAcaYRc8cseFjkLS9MAgUpBhQWmz3ujy55Lo9E4TX6QqC6zoo/201oTjegJMuI28csWIzx0+Uy1qBq9Fc8uNaFVA2RUn4cwpoBe24+7G2zcK3eQr08l4ctxdO/LCdJw6PVJfQ1VyC3qAnH7/yOBxMHYfXpx5SchYzMbNiPPkA4UvHgzhiayouQV3MWP679ibHDaR79S9KXf2YDK0s30FhWgsKmUUw++XVLpMJkSUdakg22sknoSYWM9Sirf4jZztNwZOQgO8eJgaOuIPeHSDTh8Wkr/uM0oZJIhf+3oeCE0vg9TEmXpEvCwP9gx5OKJ2Uao19jwT9NRv+DU5KK/7QYYfYZE2OeGf/rNMGhMy6WwmBSIcHhqLHg3y1eEiKN5KUjVtzOV9/k9QCqlisjB9T+ZX4494dsb/ioBbc0X1YtdFjwb438+vb114asDgw/+RuupUUMnj6CMpvZP3albCT3hyQVK9c7PSRJljceuIlHT0ZRqNOPuXU+LKm4esTm77Ny+FcsXKrzXAuRiY47n/Bjl0IyzDhw9e8tkQplDKaC0RCkIgftPU/QX2Dy9WdAecNSEKmQbVitBmSZw8+b0g+lZBQIA4QBwsCXYWDHk4qFQtVY5Fda8N8W70qCBIYkFR8bVCMvrEZ0FgS7GMKRCkOWCb/3mdFiEBBJJqyeNqNbY5wy5OpIj3StWPHvU1b8+7QVnxrV/qQMkUjFj04r/nPaV1fWP2UNkD8WcAtzFsoODeLM9AZcG89wtNTqN/Ke/iMEakpS4Rpt8JcXqZU4cLDK7x5R+o9EKkZaLf76RTLGY6zJZ+RLcPzRR1xoUOdH9rcV94fSf2hSUYSeY0s4nqO2TzEVX/YwUPRNKemRMEAY+FwM7ClSEU5J4UiFMBgxfcKCKbtAeqkZ/6fN5De4wmjErV4rlh1GlKV6XRudDZYtk4q5Ip9bROMeCSdnpPtCWFBy/gWWb/b43TuyfLSVCi2pCNf+55KKE8tEKsLplO7TQ5swQBjYjRjY8aRC7/7QrhToVyrCTWBYUiEEDjVZ8b7WiO4WK7R9SV/9ar8Zx3wrFzLGorE+NKn4O8SWUsX9Ma9xpyQkGFCqCQwNJ6+8LwxV6Lp+BfWZ6pu6x/g/HArYein2/YjFMFtK9SsV4fr7PFLhDeScaEv0rVwYUDPxIY4rFbG7P8KNi+7TQ50wQBggDMQXAzueVPzhC9Qska6I48GBmlr3hxY8kgSkJmoCNY+YUZfkvU7R7GBIKDDjf3vMeNxnwdlk1YDLVYyZPgue13hXKmqLzHA5Q5CKVBPcpy0Ys3tXJAoSfIGcvkDNT90mtGUYUGQzYuaoJC5qH1p59ecyZuHQT3/g7tQpVBUVIKesDf0LH3DvUp0/EFPWEfnnMPfqKU7sK/EGaqYn+N0VkUiFEGYk2bLVQE3XKMoy5XUWEs0yUNVLGsK7P4wov/gWj+6cQ2GSCdaCXow8+T1mUiEDMRMTbWqgZs9JFCXJ63QkGGX/wYGag8eCYyokeetrsWCj2RTzzhq9ruk6vg8d0ifpkzCwezGw40nFgsOIW93eLaU/N5pQqNkJEWmlQhobGdOgbPVU0v/2WzBpUw27MBvhOm3Ff4+YUKQLYMzKMWH5qMWznfVliwnHakOQCmHAoQMW/H7S25d2JUVuSe1rtOBXZUtqrRF2jfzRfngGWz2c15/j7tqfWF534/rYceRrtszK+kLYUHPpCRZefvRsD1ViHmReZFJRiVNPQ2xJff0afWXRSYWn74yDGHR9wJNXH/FoeQp9k2+3QCpkzMRT/5ZS/9bSU/fQneGdH++W0nnPltIfW3vQfCDEllKzEYunrdhwqAG90fRK+bv3gUdzS3NLGPi6GNjxpOK+JlCTwPJ1wfI5+hUGM5JtGbCaBMou/oKFizX+lZLPaW+rdUSWCR/6LRhIUoniVtug8tsPVzQnNCeEge2JgR1PKrS7Pwhk2wtkWheKLbcOvQt/40p35jclFfkOC/7baQr44y7CyfbCCc0HzQdhYPdggEgFfZnuqxl5Ifahf9XrQnm8+Q4z13qRb/l2KwYybkYG2D7W/JcJPbx2z8OL5pLmkjCw/TCwY0kFgWn7gYnmhOaEMEAYIAzsbQwQqaCViq+2UkEPl739cKH5p/knDOw9DBCpIFJBpIIwQBggDBAGCANxwQCRCgJSXIBEbyR7742E5pzmnDBAGNBjgEgFkQoiFYQBwgBhgDBAGIgLBohUEJDiAiQ9W6VreoMhDBAGCAN7DwNEKohUEKkgDBAGCAOEAcJAXDBApIKAFBcg0RvJ3nsjoTmnOScMEAb0GCBSQaSCSAVhgDBAGCAMEAbiggEiFQSkuABJz1bpmt5gCAOEAcLA3sMAkQoiFUQqCAOEAcIAYYAwEBcMEKkgIMUFSPRGsvfeSGjOac4JA4QBPQaIVBCpIFJBGCAMEAYIA4SBuGCASAUBKS5A0rNVuqY3GMIAYYAwsPcwQKSCSAWRCsIAYYAwQBggDMQFA0QqCEhxARK9key9NxKac5pzwgBhQI8BIhVEKohUEAYIA4QBwgBhIC4YIFJBQIoLkPRsla7pDYYwQBggDOw9DBCpIFJBpIIwQBggDBAGCANxwQCRCgJSXIBEbyR7742E5pzmnDBAGNBjgEgFkQoiFYQBwgBhgDBAGIgLBohUEJDiAiQ9W6VreoMhDBAGCAN7DwNEKohUEKkgDBAGCAOEAcJAXDBApIKAFBcg0RvJ3nsjoTmnOScMEAb0GCBSQaSCSAVhgDBAGCAMEAbiggEiFQSkuABJz1bpmt5gCAOEAcLA3sMAkQoiFUQqCAOEAcIAYYAwEBcMEKkgIMUFSPRGsvfeSGjOac4JA4QBPQaIVBCpIFJBGCAMEAYIA4SBuGCASAUBKS5A0rNVuqY3GMIAYYAwsPcwQKQiCqkQQqD8OMf8CEemEGSAo+hruz5ETJkN6Bl7CGc1zeFW56h7/MBn4f5r1wvXfrj70cZt757GyGA38hIJI9F0Rfl7jyzEOuc7mlSIJA7nGMezVQb3c4aFCYHy5MAHgjBzTL1geHdfIPszSIEkFQ3DHOt3OAo19YVJ4OYmg/tHAasQkOXOuRjeLnDkaMrFOhGyXOUQw+ZwoPzh6tcNM7x/xT3HOzfHIXNgPSlP7121zJs1Btd1htqMwHLh2t8u98U+js1nHJWfqVM5DmvpWUytvsbEmS7kp8Rn/FWjv+Hpm388x5PX99Cg0/920V8kOYTFhrqxfSi3C1iqytA1kIPkEHqWRjrUEantUOWVe5HqKXmyrHIeLg3VnnJPSbV1o43XbK9H1+TPWFy+idp0Q9T+tW3TORlZwoAXA0GkoqamBtGO7aA8aTTbphjWZjlaKzjyCwRaBhieTwmkah6MwsGx/pDD9ZKhPSk+BkWO30MqVhhcKwyNZgGRz7F0j8P1jUiFJYUjK1Mgy8GxHIFUzB3xlsspEOib5ng1u7NWXL6UVAhLNfof/4bxjmwYNLj4UgybU7KQkZmNDMcwftqppMKY4SEVZVkCpspSdPXnIFGno3DGPdx9qdfPzdvKnGj7kOf661ByiBjGK0QyHCNuuKZ7Ap4jW5GNyhLB2MsYCEkqIilEEo5I+d8qTxrxlVWGhgSVKEiiMeBicNrUe/l9DGsXOI7PM0zuV+8rb/LTvQKT9zncawwPRgVyTWoZuXLgXw3QkQUPqVjjGB5nmKwTyDnOMH+eY0lTTiRw9Ix4V1I2nzDc6ONI0zy0RSrH4DTDi3WGlSmOo5cCVyqElaN7hOH5GsOr5wwzpznSDap8Utcim8MVgVTcbFHLi1yOR26OTh+5kuPbGOM4fpPBvc7weJqjNk1TPoL8segvmvyR+he1HG63qn//PMx5dShsHAtujv58VV5LA4P7GUOVRkfWpp/waHkY+Zp7Hr3Z+zH9ahmH09X6hqpJLKxeRbmvrEhyoGPyMe6sf4BrdQMTQweRoW8n+wxuhSAVQuTj2OInDB80+X8vRUNuuMaa/NfCWoLWsRXc2fgLj1bXMdbfgFRd+1/z9yREGvaNVKI4TcBQWoyuPrtn1U3pU2uolXsyDXf/S/MUchAu1cqgPw9XRytrtPEqbYpUJ664n6HTrmJDyaOUCANhIDIGdiypMDVzvL3hdT0kVnLMrzAsDwucvMVw2eF9GEjD1zPDcL1JoPQMw/NBrj7Qfe6B9XmO9jKBoiqOmWcMt7vUB4k5WXhWA3KPMLzTkAUJKg+pcDO0NzM8v8ThnONwNnKs+srJvisGGV7d42guESiq5ph9xjDVrMpWN8zx+h5HU7FA8X6OW8sqqfDUH+J4Mcuxv1CgwMFxdYlh5rAqn0eOrZCKTI6HboYjqd42pFF/9YzhfJNAQSHH4G2OjXGBBJ87J5r80r0STn+xyB+xf6tAbi5H7mHp2uJolefysAkYffI55xlcfao+D4wyrF/y5is//MKBl3g0cdA/78p9IQrhdH3EeFuqP69o0Gv0ve2b4Bh9j4XpQVSXFSOnohsXln/H2OE0f3mv/j+PVAhhRMk5Nx7+dA5VRQXIdRzFxeU/MN6WHtC+Iq8+FaISvct/YXlTd1zp8OhHXz7UtRApqLxQjvxEAVFQiHZnJkwa0ivrRDLWSp6+beV+pFRfR38t6+rvaa+1bcv72vLKuZIq9WIZrywrRJEHGxcbyQWi6I7SyIaU9KPqZ8eSirQuDvco98QydE0zLJ7lKHUInJ1mGK/1GRoTx7V1rxE11nBs3lWX/qXRk0Zxvls10qUDDK/G1WsFKOaWcKSCo9MmcMPF8Hiew17N4daQilMLDDcOqu2VDTBsjniJjez/zKKaL6/rxwJJxcAiw0SNWj+vl+HNhEqMpHyxrlQYzByNwwxvHnIU+AyHNOpvr3GYfdfGAxyvVxhKfUY7mvyR9CfHE03+SP0ruo/k/sg8wvGLom8Dx9gzhjGNvmQbFZfeYeFi6NW1wrObWL7eDotnvHJl4QMuNlrDGrOSc6/w4PL+gHzxmSsVXsP1BwZ9WJWyZvetYnmyJaB9RQ/6VAgLku35sOfqjozEmOrr2wt3rTfM0a5lO9HK6PND9b2VMtqy8lx7hGo72j0hstB55xPG25Liqsto/VK+aphIFztXF2FJRai4CjnR28X9kdbNfKSCY9DlXQaXhky6OfykooJjbZEjXxqNBI7ZlwxtPneJLCuNotY9IF0Y767xoLe1SKTiaDpHzXGG880C4gD3B2oKwXHxsSqL1J22/VD50sgqgZpK/ttNhtcvvMebl8HyRSMVv/jqv3UzvFpi6ClUSYq2PymfSBVoOciR7jGy0eSPrL9Y5I/Uv/JQiUQqRAbHfTfHCbuAoZxjdZWjzqiOT7ZRcfl9WFJhqJzA/Y0ZVJsEhO0kptx3Ua9xp6VWX8DYwzdwvfStBrg/BbgvPDr7bFJRiVNPP2HFrVlpcH/Ek+udMa80KDr6mqnWQIc71/cvy2nvRbvWllXO9XWU+9pUKSNT5Vzma8+15WM9V0jFRHtywDhirU/ldq5BpLn78rkLSyrCKXf7kQqB88sMJ3O9OzCcc6ohz+3leCd3aKx7jzdurhKOuJAKBmemasREg7qioRhVheBIfX4OqbjS6lv2V5b/dbs3opGKOafXjZCTEegWkPLojbp2zqPLHxupiCR/pP4VWSKSCiEg5/v+Ma97a3NcBBHC8ovvsHCpLqRxEMb9GFz9FWeqjUjpfIiVGSeSfKs2wlSPwZ9/w2RvPfJ8qwEHRt/EmVT8iguHPm+lIR7uD0XHkVK9gY52LduSZaId+j6jlQ/Vr1InUp/6fmK5FsKOrntypSK+qz6x9E1lvtyokQ6/rw4DSMUPicmelYgffvgh5EM4ISHBk28wfH9fo3alYmiJ4VSel1QoKxVyJUK6RW47OXKyhedoGWF4OuAlAcpKhd794R5TSYICzvArFQzHtaSiUUsqBKK5D6R7QHGPSHlCuT+uNaryWNMFijRBqFI+YY89UFMZj5JGMupSnmjyh3J/KPqT9eX4IskfqX9FRlHF8TLCllJbN8PbOY7hBYYr9aqulPq5p37GylSX38Wj3JepECbUTv6Ou0P7UX/tL1w9kunHvbCdwo3XD9DsX9kywDH8azCpsIeLqUhD29wn/NjtjcEQwoB9Y7/jzlClpw+v++NvXGpSAzkt6QXIs8W25P4t3R+K8Q6XanUqz/UEQJ8fy3UsbWjLhDuPpS99GSGqcPrZBwzWff/nnF42uv6+BpP0H13/AaTCmpCEqqoqVFZWwmRSH3ZSkfJa3nc4HP4H7/dUsDamwnmbYbZDwJzKMb3mXakQJo4r6xyn81RDk9DC8Haew+aLGZBGcf02R1uZQKEM1HyqBmpKo5hs0wRqLnJUyS2cmQLJcgup/J8Kd2RSUXHWG6jZpAnUvB4hUHN2hWvcHwIVQxxuX6BnfhnHhEvGgOhiKqwc05sMV1oF7LKR0i8AACAASURBVD75Eo1egqV37+jnK5JRl+OPJn80/UWTP1L/iqwij2PFzTBY5Qvc1OzWkGVEOsdd6R5a42i2qnOt1Dc6JnF/Yx4HwmwntjbP4dEDF66sPUeXJtpfGBswtPYHrg8cRH5uEcpaJzHx+H0wqbC2Y9T9Cy60FsEmt5hm2pDgc8Hk9K5i2TWF+rIi5O+/gOsbb3G2xhuzoQRqLt2fQF1pAXLKOzG09Ceu9Ni3xe9L0Z/WWMt70a5DlVHa0qb6drR5W21DthXp0Lcd7dpYNoo7m/fQEAYz0epTfnTDQzravToKIhWSWOTl5aG4uDjg4Savc3JyAu59T2BYWhl+8e3+sB3kWHczvF3huHzVRypKOVbXGOo0W/Q8roKXHIcSNEb3BMe4sqV0TN1Sqiz/K1sZlfSdm+F8aXRSIXXj2VL6/4NJPX/O9YThZoQtpU+nOZzDakyFUv/IGPOMQ26VnB0QyNSMx1NGCBR1ciw9Z/jFzSDlU1xBX0IqlP57wsgvSYen/TD6U+pHkj8mUiEEGi8yrG14t5fK4FzZtnJIOY7NMby6yj27VpT7Sir9460zv+H+9WOwW4JJh0jswoT7E564LgT9aVla3TAmH73H0ot3mLl+Es1DG8GkQpiQ1zWH2dW/8Pj1Jzx5/TN6cr39CHM+GoeXMP/zH3A9fY6Lx6oC/gdCJJTg0MQT3Nv4C67VdUwMHgzaMqyM43uleuMf7VrKqS8TSvZoZaLlK/0o5ZRUuR+qz1juGdMa0L/4O271VwS50mKpT2XU3ybpYm/qIiSpkMSiuKTETyIkmdCTjO8NGM9/LqxyNPveJswpAqlWgYR0gbQQb6x6eRWjqLgf9Pl0HfkHsV30J8mfdH9pA271cyf/D6Jj+g1cTx6hsziYWOjL07V37rWGOpROZH64MkpepFRpM1IZfZ5SR6YyT5/qyytltPXCnac1T2Fu7TfcGKpHio68h6tD9yM/J0g/e08/YUlFYlIKKisdyM3NDekO+d5gkUat9SrDxm2O9iqO3CyBRM0fV0WTTzGKkYxRtDb2cv520Z8o4ni6ydEWZalaxiCkV3TA4VtF2MtzR2MP/aBPqWiFIycprv+8SroOrWvSy+7VS1hSIVcrUtP/5QnMlAGa2xEEwiJw+BzDo2cMcmdHb3bsb6HbxShuR73GItN20V9xP8ObmzzkNytiGQeV2b0PN5pbmlvCwLfHQERSIYnFdtlCSuD49uAgnZPOCQOEAcIAYWArGCBSoQn624riqCz90AgDhAHCAGGAMBCIASIVRCq2pWuLfqiBP1TSB+mDMEAY2AkYIFJBpIJIBWGAMEAYIAwQBuKCASIVBKS4AGknMGiSkd70CAOEAcLA18UAkQoiFUQqCAOEAcIAYYAwEBcMEKkgIMUFSMT+vy77J/2SfgkDhIGdgIGIpOJftkxUV1cjOZk+AbwTJpNkpIcOYYAwQBggDHxPDIQlFen/snk+LmazedOkpNi+nvg9B7Mb+5Z/MlV+nGN+hCPT91nu7zFOU2YDesYewlkd+x+MfQ85t9qn1G/a/lLUt2fAGmf92runMTLYjbzE3aWzreqYypORIwzsHQyEJBVp6RkeQqEQCZnKr5cq19sFICKJwznm+2DXc4aFCYHyZO8DXNRyuN3ej1ApHwOTqfzgVndK9Id8tH+MrBtW237n5jhkjt6mVm+yfeec2oYi47uHHLka4ybLNQxzrN/hKNTc17YV6vxz5Av3gS9r6VlMrb7GxJku5Gt0Jyw21I3tQ7ldwFJVhq6BnLj9s2VmW63/y5NdY6XI2cJfsIfSR7h78muhWW37cLgvGylR9Jvesg/tbal+d1G08Zvt9eia/BmLyzdRm06f0Q43B3R/7xgcmuvdP9dBpCI1PT0kgdhuxEIa27YphrVZjtYKjvwCgZYBhudTAqny0+YWgUzfp8Cd0wzLg9zz2XL56fKEGD4WFI1UWFJ87Tk4lr+AVNw+5v2cupTLc6QLGKMYt1h+mJ8jXyhSISzV6H/8G8Y7soO+iSCMGR5SUZYlYKosRVd/TsBXOGORM1wZY4IZCSkWJOTm4eBXJBXh+g91P4hUxDB+IZLhGHHDNd3jwWWodune7n/Q0hzTHO8VDASQioSkFM/fcodbkZD35d92Gwzf/61L5HOsrDI0JKgrBJIIDLgYnLbAe4euMbhOBH4yW06wZ6VjkuH5zwzuZxyzg+qnxf2kQn7a+x6He43h/jBHjlFt29NGNocrDKkQVo7uEYbnawyvnjPMnOb+T1vL9uVKxczhwPa0wJNG3r+CscCDPs0dqX2lHc/n3sPJl8oxOM3wYp1hZYrj6KXAT6/LNqxNP+HR8jDyQxAxIdKwb6QSxWkChtJidPXZA1wI0ggf7shG4bEqdFyuQYszDzaNK0CYE5HfXoHWi7VoP1eJmvoUWHSESqRlozkMqRDmBOS3l6P1ch06LjhQ15ga0L+ig3CplE/5qmXX6ewgQiQSU1DmrELb5VocPJqFgkO6lYoo41f6FalOXHE/Q6c9/FwrZSkl40MYIAzsZAwEkIpYvvWxXb4FYmrmeHtDeIxIYiXH/ArD8rDAyVsMlx3qw1sa71CkQt6vG2FYv8nRUCpQUM5xZYnh1iFvXYVUrN3maCsTKKrmmH3GMNehti0nPpzRlvUrhjhezHLsLxQocHBcXVJJhMyPRirMyd7Vi9wjDO90pCJa+wooI8lXN8zx+h5HU7FA8X6OW8vBpKJw4CUeTRz0L/kr7XrGLlJQeaEc+YkCoqAQ7c5MmDSkQBrtjvPlKC9NQnJmKsr6anG4I81TRggD0g7uQ8epfNjtCUjJt6PuQi1qykwBfYUjFUr9tuM5yMxMQHKuDdVna1FXGVhfK6/+3GC1eFZDEmvKoCcVsv3MthqvfFkJSCnKRd1gTaD7I8r4lf6EKILT9REXG78/GVdkopQMF2GAMPA1MLBjSUVaF4d7lEMa165phsWzHKUOgbPTDOO1quGX+aFIRShlVgwxbFzyrmjIer13Gea71bZKBxjcY+q1bCOS0R5YZJioUcvn9TK8mVDbl6Til5cMr1+ox8Jxtbwio7klNKmI1L5SN5J8ZxYZbhz09ifHWz8WTCoqLr3DwsWaAEOvtB0tlaSisyfD7zYxFBWhYyjP654SCSg+XYfaMtXQpjXvQ3u7GrMg2w9PKhJQeqYWVQWqvpIOVKKzM23LshrLS0KQCtm+Kp8kGVkdtQGkItr4lXwhstB55xPG2yjYWdEJpWTQCAO7EwNhSYVckdAfEgTbZaUirZv5SAXHoIujP194CMbx+dhJRdo+jpkHDJsbXqP+ZtPbphynQiputqhGK+c4w7trPOBtPLzR5rj4mOHtpkoY3rxU68v2Jam438eRm6seWZpASOVHF5pURG5fqRtNPi0BCxVTUXH5/ReRioDAxoQkZJcleVaXhEhCxblAUpC4vxJdGhLimYcw7g9v/f3oHK1D54hy7A+qr+ghUhqaVATLJ0mSdjyR2tTmKaRiop22Zmv1Que706jQvO7teQ1LKsIBY/uRCoHzywwnc72kQhpqraGUxjvUSoUwCYyvMsydECjyGfWWkfiTiiutKmHwkIcMdWVAyjrXqZKWcDqPRCrCta+09aWkovziOyxcqtvy27/sP5IRjg+pqEF1uRVJ6ZojybhlWb8+qbCj655cqUjcsmzKPFK6tx/UNP80/zsFA7uAVHAMLTGcytvaSoWwCTxwM7T7Aj0l+ai9HEwqoro/7KEDNWV70j1xrVElDdZ0gSJfEKmyUvH5pCJy+woARRT5ork/ck/9jJWpLpg1sRJK29HSyKQiRvdHajaaQgRqCuF1T1SXqO4TY1ICUpLjRSri6f6owulnHzBYp8oaTXeUT0aEMEAY2IkY2LmkQhNT4bzNMNshYE7lmF6LcaXCKDC5ynDvjEBxrkBVK8fscjCp2LgTJVDTyjG9yXClVcDu2xaaaPQSHBmo6b7H0VwikF/GMeGSMRqBMRXhSIUkHck2TaDmIkeVr/1kc/T2FTDKHSLh5NMHas6ucGwOqyRItmF0TOL+xjwOJAXeV9qPlEYmFQakNVcFB2qWBgZaCnM6akflikSCd4tpihkmgxx/YKBnUnYGqgbqUL/PEtNqgKxvTtYEap7JR4bcwppigdkzf8GBmvuHPi+mwlg2ijub99DwGTqMpF/KI6NDGCAMbDcMhCQV+lgK/fV2GISlleEX3+4P20GOdTfD2xWOy1djIxVyDLZajjkXg3udYekqR/ugN/hT5kmjLgM1b/Vx/LjAPFtKF0Y4cvVbSoVAUSfH0nOGX9zM8+da0hXjaSOB48gYw+qa3LLKMDsQuGU1kvtDCG/MhLKlVEnln3edL43evjJHchxh5dNsKX06zeEcDg7UlPEArTO/4f71Y7BbtkYsIpEKj340W0o7zjlQG2pLqRBIqSpG84U6dI3tR9eYA8XpvvFbElHQUYFDl+rQft6B/c1psIbY+qroQpsqMRnKllIl7fL9mZdHPs2W0hZnNgrbth5TYUxrQP/i77jVXxEQi6OVhc7JMBAGCAO7BQNBpEJuK9Ue2yWGQq9wkcvxaJWj2ff2Z04RSLUKJKQLpFm3Zvz0bdN14A9cWEvQMf0GrieP0Fm8M3Qr7Llo8QdwKoGcMi2GPUbi8aU4SGuewtzab7gxVI+Ub9Tnl8pM9QOxT/ogfRAGtoaBnUsqhEDrVYaN2xztVRy5WQKJX+mvnAlUcuXGgvSKDjh8qzDbXSfCZEaiNoDTf26Jyz+WxjL+lIpWOHKS/FtqY6lDZbb2ACN9kb4IA9sLAzuWVEggyb/iPnyO4dEzhjdujt7snfEWTT+C7fUjoPmg+SAMEAYIA/HBwI4mFQSC+ICA9Eh6JAwQBggDhIF4YIBIxf8QkOIBJGqDcEQYIAwQBggDRCqIVMS0BZMeFvSwIAwQBggDhIFoGCBSQaSCSAVhgDBAGCAMEAbiggEiFQSkuAApGnulfHrDIQwQBggDux8DRCqIVBCpIAwQBggDhAHCQFwwQKSCgBQXINEbyO5/A6E5pjkmDBAGomGASAWRCiIVhAHCAGGAMEAYiAsG9jypkN/G2FdpweMGI+yf8SXOaKxtp+cLYULx8fu4MtaBdNJPXH50Ox0TJD+9rRIGCAPhMECkQhjQ2mDFH10mlHwFoynsJnw8YUbN12jbWoLW0RXc3fgTrtUNTJ4/jEzdX5WL6itwrU5+9tjkJ8ZrRtx4cHcAuV9hDOGA+aX3y+pduH36meeYOzWOat2H4GJpv7Jxxd+G0tbFsvSwxKKg9h6m66vC5sfSJ5WhhzVhgDCwkzGw50nF1568r0Uq5Ke7i4fccN0dQ21pAXIqunBu6QOmnPkBRu1LScXX1s/Xat9sTUdakg1pWb2Y+ExSYbZmIC3JjubDTzFZ6/C0l2w2BuhXKz+RCjIGWjzQOeFhL2Jgx5IKaVSHuqx44DBhpseKTyctWG00oUDzNciaOgs+NJowcMiCjycteH3YhMYE9fsgMv//nvnBc/y3x4R8zZu4SDZho9+Ck4lqeWOWCX+cMGO/rw9hNuBMkxnv+6z4dMICV53qQhE5Znzqt/rb9/fTYUKGrx9hMqC3wYz3J63454QFi9UG2DQyRAKkEOlou/0Jkx0pfiOXeuAizh2r8nwwS9Reh+v1Jzx980/A8eT2SaT6+ig5/xoPxs+gc3oTrhe/Ym5mGI40dbwyX6n/5MFZZGlkEyIb3fc/YbSvB+cfvINr4zWmRtuRqVkREAkV6Lq2hgcbv2HuxkkcvvwaDy7v98sbaXwyTxrpGw3dONg6j1u9i5g81ItSzfwJUx7q66dw5fgSpp0z6HdUIEkjo2xDJHdjLAyp8NfvXcGMcw5n91UhWV9fmFHX8hTjVblBcgtrJToP3cbNXhcmWzrQuD94pUJYjJhzWvGxw4QCXdvRxk/5ZJQIA4SBnYaBHU8qPnSacNRmQKndhMUTVqyUGvwPf0ka/jlhxmSBASXpRox2WvGhyYgE38PdbDEgO8mAgnIzgkiFMODyEStcxWp7jloLPjYaYRICMhajqcGCPw6Z0GozoDjTiLljFjws8pYXJoGCFAMKi80e90eXPJdHovAafSFQXWfFn+0mNKcbUJJlxO1jFizG+GlxIYyoGv0VD651IVVDpBQACmsG7Ln5sLfNwrV6C/XyXB62FP9XOiVpeLS6hL7mCuQWNeH4nd/xYOIgrD79mJKzkJGZDfvRBwhHKh7cGUNTeRHyas7ix7U/MXY4zaN/Sfryz2xgZekGGstKUNg0isknv26ZVMw4r6E7vxD2tH3obF/CjcYaWDz6NyK/5g5mOk/DkZGDbHsnBp0unC5I9s+/1EU4UiH1V1B7FzcOH0NZWjbsWQdx8ugSzhapJM1TPwypkLEmZfUPMav0n+PEwFFXkPtDJJrw+LQV/3GaUEmkImBuFKxSSoaTMLB7MLDjScWTMo3Rr7HgnyZ1eVqSiv+0GGH2PcyNeWb8r9MEh+7hbikMJhUS5I4aC/7d4iUh0kheOmLF7Xz1TV7/Q6iWKyMH1P5lfjj3h2xv+KgFtzRfVi10WPBvjfz69vXXhqwODD/5G66lRQyePoIymznooR3J/SFJxcr1Tg9Jkm0bD9zEoyejKNTpx9w6H5ZUXD1i8/dZOfwrFi7Vea6FyETHnU/4sUshGWYcuPr3lknFTwcbVPlyz2P2WJ8ntkMIOw53PUF/gcnff17NnWCjHmalQogctPcs4bhG/5mOGfzUWOtvzzN/YUmFrK/2L+ezvGEpqH/ZhtVqQJY5PG7080rXu+cBS3NJc7nXMLDjScVCofqwzq+04L8t3pUEOZGSVHxsUI28sBrRWRDsYghHKgxZJvzeZ0aLQUAkmbB62oxujXHIkKsjPdK1YsW/T1nx79NWfGpU+5MyRCIVPzqt+M9pX11Z/5Q1QP5YwCjMWSg7NIgz0xtwbTzD0VJroFGMEKgpSYVrtMFfXqRW4sDBKr97ROk/EqkYabX46xfJGI+xJs+1ECU4/ugjLjSo8yP726r7Qxv4KKxF2FdQ7HFRCFGEnmNLOJ6jtp9ROY25gw3+lRiP/sOSCln/KX46uYLZPu/xU9+T4PphSUVw/xRTQQZE+c1QSljYqxjYU6Qi3CSHIxXCYMT0CQum7ALppWb8nzaT3+AKoxG3eq1YdhhRlup1bXQ2WLZMKuaKfG4RjXsknJyR7gthQcn5F1i+2eN378jy0VYqtKQiXPufSypOLMeXVGjliw+pcKGv0A5biuZITPCTJI/+iFQE6EM7B3ROhpMwQBjQY2DHkwq9+0O7UqBfqdAPXrkOSyqEwKEmK97XGtHdYoW2L+krX+0345hv5ULGWDTWhyYVf4fYUqq4P+Y17pSEBANKNYGhinyhUmGoQtf1K6jPVN/UPcb/4VDA/22IfT9iMcyWUv1KRah+5L3PIxXeQM6JtkTfyoUBNRMfvmilQivfVtwfoyECNb3uj8c4la+6T8wJ2ciOmVTE7v7Qyk3n9BAmDBAGdjMGdjyp+MMXqFkiXRHHgwM1te4P7URKEpCaqAnUPGJGXZL3OkWzgyGhwIz/7THjcZ8FZ5NVAy5XMWb6LHhe412pqC0yw+UMQSpSTXCftmDM7l2RKEjwBXL6AjU/dZvQlmFAkc2ImaOSuKh9aOXVn8uYhUM//YG7U6dQVVSAnLI29C98wL1LdYHL//nnMPfqKU7sK/EGaqarb+KRSIUQZiTZstVATdcoyjLldRYSzTJQ1Usawrs/jCi/+BaP7pxDYZIJ1oJejDz5PY6kQgZqzgcHaubrAjVN9Rg4+QAnC3ORLreYJqXBKt1ZvkBNb6BnNrJsDTh+ZBkXSjP8b+aRtpSGCtQcPBYcUyHJY1+LBRvNpph39ujnmq7JCBEGCAM7BQM7nlQsOIy41e3dUvpzowmFmp0QkVYq5MNexjQoWz2V9L/9FkzaVMMuzEa4Tlvx3yMmFOkCGLNyTFg+avFsZ33ZYsKx2hCkQhhw6IAFv5/09qVdSZFbUvsaLfhV2ZJaa4RdI380EBls9XBef467a39ied2N62PHka/ZcinrC2FDzaUnWHj50bM9VIl5kHmRSUUlTj0NsSX19Wv0lUUnFZ6+Mw5i0PUBT159xKPlKfRNvo0bqfC0r9lSess5izOhtpQKI7JLhjHuXMHcqaeYO/UTDqV451eY89DQcBNXT6zglnMOgzU1ATtpov35lXdL6bxnS+mPrT1oPhBiS6nZiMXTVmw41IBiKTsdpAPCAGFgN2Jgx5OK+5pAzd04QTt9TMJgRrItA1aTQNnFX7BwsWZPGVSRZcKHfgsGklSiutPnlOQnY0gYIAyEw8COJxXa3R/hBkn3v88PQOtCseXWoXfhb1zpztxTpCLfYcF/O00BfxxGePw+eCS9k94JA18fA0QqaCn6qxl5Ifahf9XrQnm8+Q4z13qRb9k7b+wybkcG+D7W/JcKPdS+/kONdEw6Jgx8PwzsWFJBoPl+oCHdk+4JA4QBwgBhIBQGiFTQSsVXW6kIBTi6Rw8iwgBhgDCwezFApIJIBZEKwgBhgDBAGCAMxAUDRCoISHEBEr157N43D5pbmlvCAGEgVgwQqSBSQaSCMEAYIAwQBggDccEAkQoCUlyAFCuLpXL0xkMYIAwQBnYvBohUEKkgUkEYIAwQBggDhIG4YIBIBQEpLkCiN4/d++ZBc0tzSxggDMSKASIVRCqIVBAGCAOEAcIAYSAuGCBSQUCKC5BiZbFUjt54CAOEAcLA7sUAkQoiFUQqCAOEAcIAYYAwEBcMEKkgIMUFSPTmsXvfPGhuaW4JA4SBWDFApIJIBZEKwgBhgDBAGCAMxAUDRCoISHEBUqwslsrRGw9hgDBAGNi9GCBSQaSCSAVhgDBAGCAMEAbiggEiFQSkuACJ3jx275sHzS3NLWGAMBArBohUEKkgUkEYIAwQBggDhIG4YIBIBQEpLkCKlcVSOXrjIQwQBggDuxcDRCqIVBCpIAwQBggDhAHCQFwwQKSCgBQXINGbx+5986C5pbklDBAGYsUAkQoiFUQqCAOEAcIAYYAwEBcMEKkgIMUFSLGyWCpHbzyEAcIAYWD3YoBIBZEKIhWEAcIAYYAwQBiICwaIVBCQ4gIkevPYvW8eNLc0t4QBwkCsGCBSQaSCSAVhgDBAGCAMEAbiggEiFQSkuAApVhZL5eiNhzBAGCAM7F4MEKkgUkGkgjBAGCAMEAYIA3HBAJEKAlJcgERvHrv3zYPmluaWMEAYiBUDRCqIVBCpIAwQBggDhAHCQFwwQKSCgBQXIMXKYqkcvfEQBggDhIHdiwEiFVFIhRAC5cc55kc4MoUgAxxFX9v1YWHKbEDP2EM4q2kOtzpH3eMHYsa9LKs9ZF/aa+U8kgyyTKR8JS9cuXD3lXrhUnv3NEYGu5GXSBgJpyO6v3vJQLzmdkeTCpHE4RzjeLbK4H7OsDAhUJ4c+EAQZo6pFwzv7gtkfwYpkKSiYZhj/Q5Hoaa+MAnc3GRw/yhgFQKy3DkXw9sFjhxNua1MVOUQw+ZwoPzh6tcNM7x/xT3HOzfHIXNgPSlP7121zJs1Btd1htqMwHLh2t8u98U+js1nHJWfqVM5DmvpWUytvsbEmS7kp8Rn/FWjv+Hpm388x5PX99Cg0/920V8kOYTFhrqxfSi3C1iqytA1kIPkEHpWjLRMQx3aPpSy8p5yrqRKOf21cl+bxlpGX05eaw9tm9HGa7bXo2vyZywu30RtuiEmYqNtn87J4BIG/gdBpKKmpgbRju2gOGk026YY1mY5Wis48gsEWgYYnk8JpGoejMLBsf6Qw/WSoT0pPgZFjt9DKlYYXCsMjWYBkc+xdI/D9Y1IhSWFIytTIMvBsRyBVMwd8ZbLKRDom+Z4NbuzVly+lFQISzX6H/+G8Y5sGDS4+FIMm1OykJGZjQzHMH7aqaTCmOEhFWVZAqbKUnT15yAxhI60hlt7LnUY6VrJU1JF5/pr5f5WUm0b8lx/HUo2EcN4hUiGY8QN13RPwHNkK7JRWSIXexkDIUlFJIVIwhEp/1vlSSO+ssrQkKASBUk0BlwMTpt6L7+PYe0Cx/F5hsn96n3lTX66V2DyPod7jeHBqECuSS0jVw78qwE6suAhFWscw+MMk3UCOccZ5s9zLGnKiQSOnhHvSsrmE4YbfRxpmoe2SOUYnGZ4sc6wMsVx9FLgSoWwcnSPMDxfY3j1nGHmNEe6QZVP6lpkc7gikIqbLWp5kcvxyM3R6SNXcnwbYxzHbzK41xkeT3PUpmnKR5A/Fv1Fkz9S/6KWw+1W9e+fhzmvDoWNY8HN0Z+vymtpYHA/Y6jS6Mja9BMeLQ8jX3PPozd7P6ZfLeNwulrfUDWJhdWrKPeVFUkOdEw+xp31D3CtbmBi6CAy9O1kn8GtEKRCiHwcW/yE4YMm/++laMgN11iT/1pYS9A6toI7G3/h0eo6xvobkKpr/2v+noRIw76RShSnCRhKi9HVZ/esuil9KsZaSeV9rfGOdK0tp9TXpkofSqrNC3eulA2Vhqsj7yvlo43XXy7ViSvuZ+i0q9hQ8iglwkAYiIyBHUsqTM0cb294XQ+JlRzzKwzLwwInbzFcdngfBtLw9cwwXG8SKD3D8HyQax4wXvfA+jxHe5lAURXHzDOG213qg8ScLDyrAblHGN5pyIIElYdUuBnamxmeX+JwznE4GzlWfeVk3xWDDK/ucTSXCBRVc8w+Y5hqVmWrG+Z4fY+jqVigeD/HrWWVVHjqD3G8mOXYXyhQ4OC4usQwc1iVzyPHVkhFJsdDN8ORVG8b0qi/esZwvkmgoJBj8DbHxrhAgs+dE01+6V4Jp79Y5I/Yv1UgN5cj97B0bXG0ynN52ASMPvmc8wyuPlWfB0YZ1i9585UffuHASzyaOOifd+W+EIVwuj5ivC3Vn1c06DX63vZNcIy+x8L0IKrLipFT0Y0Ly79j7HCafAnMSwAAIABJREFUv7xX/59HKoQwouScGw9/OoeqogLkOo7i4vIfGG9LD2hfkVefClGJ3uW/sLypO650ePSjLx/qWogUVF4oR36igCgoRLszEyYN6VXqaA2z9lzmh7vW3teeh6qj9KNN9XW0eUobsoxSTkmVPG2q1I11vEIUebBxsZFcIIruKI1sSEk/qn52LKlI6+Jwj3JPLEPXNMPiWY5Sh8DZaYbxWp+hMXFcW/caUWMNx+ZddelfGj1pFOe7VSNdOsDwaly9VoBibglHKjg6bQI3XAyP5zns1RxuDak4tcBw46DaXtkAw+aIl9jI/s8sqvnyun4skFQMLDJM1Kj183oZ3kyoxEjKF+tKhcHM0TjM8OYhR4HPcEij/vYah9l3bTzA8XqFodRntKPJH0l/cjzR5I/Uv6L7SO6PzCMcvyj6NnCMPWMY0+hLtlFx6R0WLoZeXSs8u4nl6+2weMYrVxY+4GKjNaxRLzn3Cg8u7w/IF5+5UuE1XH9g0IdVKWt23yqWJ1sC2lf0oE+FsCDZng97ru7ISIypvr69cNdawy3LaI13tGulrJIqfeivlfvadCtltGXlufbQthnruRBZ6LzzCeNtSXHVZaz9UznVQJEudp4uwpKKUHEVcoK3i/sjrZv5SAXHoMu7DC4NmXRz+ElFBcfaIke+NBoJHLMvGdp87hJZVhpFrXtAujDeXeNBb2uRSMXRdI6a4wznmwXEAe4P1BSC4+JjVRapO237ofKlkVUCNZX8t5sMr194jzcvg+WLRip+8dV/62Z4tcTQU6iSFG1/Uj6RKtBykCPdY2SjyR9Zf7HIH6l/5WESiVSIDI77bo4TdgFDOcfqKkedUR2fbKPi8vuwpMJQOYH7GzOoNgkI20lMue+iXuNOS62+gLGHb+B66VsNcH8KcF94dPbZpKISp55+wopbs9Lg/ogn1ztjXmlQdPQ101AGWjHiSqrtX3tPOZep/tDWCXWu1A2Vp9xTyiht6+8r11tNFVIx0Z5MpGKH7vba6pxT+fiRl7CkIpyStx+pEDi/zHAy17sDwzmnGvLcXo53cofGuvd44+Yq4YgLqWBwZqpGTDSoKxqKUVUIjtTn55CKK62+ZX9l+V+3eyMaqZhzet0IORmBbgEpj96oa+c8uvyxkYpI8kfqX5ElIqkQAnK+7x/zurc2x0UQISy/+A4Ll+pCGgdh3I/B1V9xptqIlM6HWJlxIsm3aiNM9Rj8+TdM9tYjz7cacGD0TZxJxa+4cOjzVhri4f5QdBwu1RptbZlw92UZJU97rtxTUm2e0q7Mi3YoZZX6Snn9tXJfpto6sZ4LYUfXPblSEd9Vn1j7p3LxM3Cky2+vywBS8UNismcl4ocffgj5Y0xISPDkGwzf39eoXakYWmI4leclFcpKhVyJkG6R206OnGzhOVpGGJ4OeEmAslKhd3+4x1SSoAAy/EoFw3EtqWjUkgqBaO4D6R5Q3CNSnlDuj2uNqjzWdIEiTRCqlE/YYw/UVMajpJGMupQnmvyh3B+K/mR9Ob5I8kfqX5FRVHG8jLCl1NbN8HaOY3iB4Uq9qiulfu6pn7Ey1eV38Sj3ZSqECbWTv+Pu0H7UX/sLV49k+nEvbKdw4/UDNPtXtgxwDP8aTCrs4WIq0tA29wk/dntjMIQwYN/Y77gzVOnpw+v++BuXmtRATkt6AfJssS25fyv3h9RTKOMc6p6+rFImXKqdC/25Ukd/X3utLRPuXFs+1nMhqnD62QcM1n3/51ysMlO5b288SeehdR5AKqwJSaiqqkJlZSVMJvVhJ5Unr+V9h8Phf/B+T6VqYyqctxlmOwTMqRzTa96VCmHiuLLOcTpPNTQJLQxv5zlsvpgBaRTXb3O0lQkUykDNp2qgpjSKyTZNoOYiR5XcwpkpkCy3kMr/qXBHJhUVZ72Bmk2aQM3rEQI1Z1e4xv0hUDHE4fYFeuaXcUy4ZAyILqbCyjG9yXClVcDuky/R6CVYeveOfr4iGXU5/mjyR9NfNPkj9a/IKvI4VtwMg1W+wE3Nbg1ZRqRz3JXuoTWOZqs610p9o2MS9zfmcSDMdmJr8xwePXDhytpzdGmi/YWxAUNrf+D6wEHk5xahrHUSE4/fB5MKaztG3b/gQmsRbHKLaaYNCT4XTE7vKpZdU6gvK0L+/gu4vvEWZ2u8MRtKoObS/QnUlRYgp7wTQ0t/4kqPfVv8vhT9yVRrsLXX+vtKnryvzQt3ru1Df66to89TrpUyMo10KOVjTY1lo7izeQ8NYTATaztULrTRIb3sbr0EkYr/x96btzWxbG3jX6e7fhkfZg6BQOBiHsI8XcwzSlBQRBQHBGE7oAjiiBoEJ7ayt3HY7slzzvY85z3n/U73761OKt0J6U7AqETWH31Vd1fVqlWr7vS6u2pVmhOL/Px8lJSUhDzc+HVeXl7IvW8JDluXhF8Cuz8cHTJe+SS835Rx/nKAVJTJ2HopoUGzRU9ZKvhZRneSxukekXFRbCmdU7eUiul/sZVRpB98EqbLopMKbhtlS+n/CyZV/pzrqYTrBltKny3J8MyoMRWi/qE5SekH3yq5MsmQremPUoYxFA/IWH8h4RefBK6fWAr6HFIh2h/W0Z+TDkW+jv1EfSP9YyIVjKH1rISX2/7tpTw4l8sWB9djZFXCm8uysmtF3BcpXx/vWv4d96+OwGnbSTpY8iDmfZ/w1Htmx5+WZTTMYOHxr1j/6QOWr46j/dT2TlLBLMgfXMXK1j/w5O0nPH37I4Zd/naYtQCtM+u4/eOf8D57gbMj1SH/A8GSStE9/xT3tv8B79YrzE917NgyLPrxLVPhvLkO2vNYrkUZbT3tuV6/Yi0jyolUtKcnN9p9c0YLJh79gRsTlTuW0qLVpXz1d0m2OLi2iEgqOLEoKS0NkghOJsJJxrcGjfKfC1sy2gNvE9Y0hnQ7Q1ImQ0aEN9ZwfYVTFMsP4fl0bfyj2C/24+SPL39pA27Dx47/H0T/0jt4nz7GQMlOYhFenq5Dx144bJGG20d7X3suykW7x/NjPYRMngq52jSSHG0do/OM9kWsvvwd1041Iy2MvBvVo7xQvJA9DrY9dElFckoaqqrccLlcEZdDvjVwuFPruixh+5aMvmoZrhyGZM0fV0XTTzhFI2cUTcZBzt8v9mPFMp69ltEbZaqaxyBkVvbDHZhFOMhjR32P/NBPq+yCOy8lrv+8SraObGuyy/drF11SwWcr0jP/pgRm8gDN/QgCZmPoOS3h8XMJfGfH0dzY30L3i1Pcj3aNRaf9Yr+SCQnvrssRv1kRSz+ozPf7cKOxpbElDHx9DBiSCk4s9ssWUgLH1wcH2ZxsThggDBAGCAO7wQCRCk3Q324MR2Xph0YYIAwQBggDhIFQDBCpIFKxL5e26Ica+kMle5A9CAOEgUTAAJEKIhVEKggDhAHCAGGAMBAXDBCpICDFBUiJwKBJR3rTIwwQBggDXxYDRCqIVBCpIAwQBggDhAHCQFwwQKSCgBQXIBH7/7Lsn+xL9iUMEAYSAQOGpOJvjmzU1tYiNZU+AZwIg0k60kOHMEAYIAwQBr4lBnRJRebfHMrHxRwOf5qSEtvXE79lZ77HtvmfTFWMyrh9QUZ24LPc36KfluwWDM89hKc29j8Yi4eevP8ZjWVo7suCfQ/9/9z68ejD58j4kvo7h5ZwYWoI+clfd0w/xx5UlxwmYWB/YyAiqcjIzFIIhSASPOVfLxXX+2VQWYoMz1zgg10vJKzNM1Sk+h+QrF6Gz+f/CJX4GBhP+Qe3htKiP0T5w9zog1wNM6rsDz4Z3dboMrV24/I9q6oMoeOHhzJcGufJy7XMyHh1R0aR5r5WVqTzvein94Eve9lJLG69xfyJQRRobMdsDjTM1aDCyWCrLsfgZF7c/9mSf80zp7cGPWO5SNtF/4VN9Opn99YHvzcxOFeGvF38xbuQ/TVSPf0jtZ3ZWYO+3vTgcla08bE6mzG48CMebVxHfSZ95juSTene/nZgND77b3x2kIr0zMyIBGK/EQvubHsXJbxckdFVKaOgkKFzUsKLRYZ0/mlzG0N24FPgniUJG1Oy8tly/unypBg+FhSNVNjSAvLcMjY+g1TcGvF/Tp3rpRyZDOY9OM/wH9de9ItEKpitFhNPfsfF/twd30Rg5iyFVJTnMFiqyjA4kRfyFc5wnfbTtTnJiqQ0G5Jc+ejYx6RiNzbbQSpiGB/GUuG+4IN3aVj53eymPSq7/x7oNCY0Jt8aAyGkIiklTflbbr0ZCX6f/223yfTt32pYgYzNLQktSeoMAScCk14JHkfove4rErxHQj+ZzQ2vzHQsSHjxowTfcxkrU+qnxYOkgn/a+54M30sJ92dk5JlV2YqMXBleHVLB7DKGLkh48VLCmxcSlo/LwU9bc/l8pmK5J1SeFhDcyQdnMNbkHZ/mNpIv5Cife9fTL13G1JKEn15J2FyUcfhc6KfXuQx720083phBQQQixlgGai5UoSSDwVRWgsExZ3CJgn/Aq3i8EfVNDlQfr0Pf+Vq09jmQrLEfd4I9/bkoGqlG//k6dHry4dBMxfN88dXJweO5IYSFpTvRNleBAs2HxEyuAvRMFwZtbFQ/aJ+MXLTrkApmTUJBXwW6zjeg/4wbDa3pwf7x+syaguJhN3rO1aPjsBOF3TXo6U5TZwqi1Bc66KXR9GfJaSj3VKP3PG8/R2k/ZKbCYHy0bbJ0Dy75nmPAqY9FbXk6J8dFGCAM6GEghFTE8q2P/fItEEu7jPfXmPKQT66ScXtTwsYMw/gNCefd6sORO+9IpILfb7gg4dV1GS1lDIUVMi6tS7jR7a8rSMXLWzJ6yxmKa2WsPJew2q/K5kbVc9q8fuUpGT+tyGgsYih0y7i8rpIInh+NVFhT/bMXrkMSPoSRimjyxYAb6dcwI+PtPRltJQwljTJubOwkFUWTP+PxfEfQUQq5St9ZGqrOVKAgmYEVFqHPkw1LYJZFkIqesQK4cpOQlu9Ew3QDmmpsQVncafZPV6CiLAWp2ekoH6tHT39GUIbJblNmE5LryrGDVLAklJ1oQEOVJSgvo70GfX3pwRkVo/qiH0yHVDBmQkZHDXpH85CdnYRUlwO1J+uD7XH7p7VWY+BEEfKcyUgvzUfTqbogqYhWX7RvlBrpz+Vn99ah/1gBnDlJSCt2oWGqLnT5w2B8tO0yVgyP9y+cbf32LwtaveicHBdhIPEwkLCkImNQhm9WBn+4Dy5JeHRSRpmb4eSShIv1quPn+ZFIRSSwVp6SsH3OP6PB6/GYittDqqyySQm+OfWayzBy2pOPJMzXqeXzj0p4N6/K56Til58lvP1JPdZG1fJCR2tnZFJhJF/UNdLvxCMJ1zr87fH+Ns/tJBWV5z5g7Wxd0HELudFSQSqaa6zBuult1ejvzwhec1IxMJylkoDiYvSfyt8xDW+uKN1BKnj7XN7AoUxluYgxO0on6lFbag7KFzrq1ef5+qSCk5Z6VBeq45HSVIWBAb/+vH9FY41oCvSPO/nc4QYNqTCuL3SLJY2kPwuQqvpyPxHg7ef014eQilhkKzZgORi48wkXeykYO1abUbnEc3Y0Zl9nzHRJBZ+RCD/4oOyXmYqMISlAKmRMeWVMFDCFYIzejp1UZNTIWH4g4fW236m/e+2XyfspSMX1TtWp5I1K+HBFDr5JK+V0lj8Yk3H2iYT3r1XC8O5ntT6Xz0nF/TEZLpd65GgCIcWPIDKpMJYv6uqTCn99LQGLFFNRef7XzyIV9RXq229yYxUGNSSCk4qQ6fqkFOSWp4QsMfB+RHKqiu3zCtBzrgQ5ZgaW6kTLhTLkRgiY1auvyNCdqUhB5elGDMw2YOCCOBqD+nOnXj7ZgNoSFR+8P2L5gzHj+mJ8Ykkj6e+XH0p6wu0Zi2zFBgFSMd9HW8djtRmV+zoOiuyceHbWJRV6g7n/SAXD9IaEcZefVHBHrXWU3HlHmqlgFoaLWxJWjzAUB5x654X4k4pLXSphUMhDljozwHVdHVCdkp7NjUiFnnwh63NJRcXZD1g717Dj7V/I10vFTMVuSIWerEhOlZdlpjRUn6lDVb5J2X0y4MmGNUKQq159RYYhqahDbYUdKZmaI8U/E8JYMspPRiMV+vX1+hrpfiT940sqnBi8x2cqknc9zpH0pXuJ5whozGjM4oWB74BUyDi1LuFY/u5mKpiD4YFPQl8g0JOTj/rzO0lF1OUPZ+RATS6PL09caVVJgz2ToTgQRCpmKvZOKozlC4CwKPpFW/5wHfsRm4uDEZ21aCNSKkhFtOUP7UxFJDn8XiSnyu9zGzoH6tHdnqYsPTTXqvEaWll69RUZ6bloixCoKZYXakvVmRZzShLSUgWp8AeiNlaKa//ygzpT4Y/50Kuv1S/aeST9hX7xWf6oxvHnHzHVoPY1mk6UT06IMEAYiISBxCUVmpgKzy0JK/0M1nQZSy9jnKkwMyxsSbh3gqHExVDdJWNlYyep2L4TJVDTLmPptYRLXQzOwLZQvsOBOzweqOm7J6O9lKGgXMa8l8dohMZU6JEKXj/VoQnUfCSjOiA/1RpdvhhsvkNET7/wQM2VTRmvZ1QSxGWY3Qu4v30bTZpdFkK2USpIRc9YvmGgph6p4DEC1lRNoOaJAmTxLaBpNlg1O0gsZSXoP16OpnNVKE5XdY+1PrNmon6Wzygk+beYpllhMXH7+gM1lUBIZxJScrNQPdmA5kCgKc/P7KpF/1ge0u0mmLNyUH+qXrP8YVzfyHY8L5r+PD88ULPx1N5iKszls7jz+h5adjnG0fpA+eR0CAMHDwMRSUV4LEX49X4Aiq1Lwi+B3R+ODhmvfBLeb8o4fzk2UsH74KiXseqV4HslYf2yjL4pf/Anz+NOnQdq3hiT8cOapGwpXbsgw6VxaKJc8YCM9RcSfvFJyp9r8aUYJS9JxqE5CVsv+ZZVCSuToVtWjZY/REyG2FIqUv7nXdNl0eXz9qPqp9lS+mxJhmdmZ6AmYznoWv4d96+OwGlTnbaQr5cKUlHfmIXqY3Xo51tK+x1I0djPKAZAxCSILaUiHQz82ZZol//BU+NsIwZPuJCiWfqIuT7fxVFdgvYzDRica8TgnBslmQH72pJR2F+J7nMN6Jt2o7E9A3bN1lqWkoHqE/VKvf6TRagYqA2SCsX2UeqLPkRKY9Ffu6W005OLot7QGJVIcsPvmTNaMPHoD9yYqAyJFQovR9cHzznQmNOY7wUDO0gF31aqPfZLDEV455hLxuMtGe2BtytrGkO6nSEpkyHDHrvzC5dL1zt/SMxeiv6ld/A+fYwBTWCika0EqagL7E4wKpvIeXzGwJZqhdnMkNlVh56u2IIdmdOFzmAAqAgE5WkJnBri8iVtk9G+iNWXv+PaqWakfaU2v2R/SPbO3y7ZhGzytTGQuKSCMXRdlrB9S0ZftQxXDkPyPv2r5a89qF+iPU4SMiv74Q7MwkRrQ5AKbaBmtDqJlq9dokjKTEPFMXV5JFpfmMWKZG0AaPDcFpd/VI3WPs9Pq+yCOy8luKU3ljpUhpwUYYAwYISBhCUVvFP8r7h7Tkt4/FzCO5+Mo7k0Q2E02F8z72CQilRUTTcq//o5MFOL9uEcpBGxpR0kgaXHr/l7o7bI0e8XDCQ0qdgvRiQ96AdNGCAMEAYIA4SB/w9EKuitgt4sCQOEAcIAYYAwEBcMEKkgIMUFSMTQ6S2NMEAYIAwQBohUEKkgUkEYIAwQBggDhIG4YIBIBQEpLkCiNxR6QyEMEAYIA4QBIhVEKohUEAYIA4QBwgBhIC4YIFJBQIoLkOgNhd5QCAOEAcIAYYBIBZEKIhWEAcIAYYAwQBiICwYOPKng3/ioqbLhSYsZTs23I4hx+xk3YxaUjN7Hpbl+ZCagfRgzo6BqHmeaW5C+B/0/tz7hiN7cCAOEgYOEASIVzISuFjv+HLSgdA9OJxpYmNOCv45YUfclZNtL0TW7ibvbf4d3axsL0z3IDvtHR1Z7Cd6thT33jX9iu+6CDw/uTsL1BfoQzX6fm8+YHZVNd7HYP7wn0qhXv7zZi1vHnyvH6rGLqNV8KO1zdY61flXrZlAHocvZ8kzdt43C+ntYaq7WzY+1XSpHTpIwQBjQw8CBJxV6honX/S9FKvh3J0pO+eC9O4f6skLkVQ7i9PpHLHoKQpzG55KKeNnhe5NjtWciI8WBjJyjmP9GpMJqz0JGihPtPc+wUO9W9Em1mkPGX2t3IhXkCLR4oHPCw5fAQMKSCu5UTw3a8cBtwfKwHZ/GbdhqtaBQ87XFugYbPrZaMNltw1/jNrztsaA1Sf0+CM//vyf+Rzn+O2xBgeZNnKVasD1hw3iyWt6cY8GfR6xoDLTBrCacaLPi1zE7Ph2xwdugLqGwPCs+TdiD8oPt9FuQFWiHWUw42mLFr+N2/OuIDY9qTXBodDAacMYy0XvrExb604JOJL3pLE6PVCsfpGL1V+F9+wnP3v0r5Hh6azy4DFA6/RYPLp7AwNJreH/6DavLM3BnqP3l+aL+0wcnkaPRjbFcDN3/hNmxYUw/+ADv9lsszvYhW/PGzpIqMXjlJR5s/47Va+PoOf8WD843BvU17p8DnQPPMOlux5HBh7hxdA0zze1waMaXO8lrLUPo6LqNG0cfYaH7KMo048vzxRv86uChoN15uyxlELPHrqJFU96UM4FFz0kUB9owqi90Z6lDmNMhFcySj+bmRVw6uollzypO1lQjVWtDaxE62m9i8YgXC539aG28h2uNVUH7RKuv9INZ0dD5DBerXcF6Qd3sVRjovoXrR1X54TMVzGbGqseOv/otKNToJmRQSo6HMEAY2A0GEp5UfByw4LDDhDKnBY+O2LFZZgo+XDlp+NcRKxYKTSjNNGN2wI6PbWYkBR6eVpsJuSkmFFZYsYNUMBPOH7LDW6LKc9fb8FerGRbGwGMx2lps+LPbgi6HCSXZZqyO2PCw2F+eWRgK00woKrEqyx+D/Jwfyczv9BlDbYMdf++zoD3ThNIcM26N2PAo5k+Lm1E9+xseXBlEusbRisFn9iw4XQVw9q7Au3UDzfycH4604FcwOWl4vLWOsfZKuIrbMHrnDzyY74A9YB9Lag6ysnPhPPwAeqTiwZ05tFUUI7/uJH54+XfM9WQo9uekr+DENjbXr6G1vBRFbbNYePrbrknFYt8xNDhcyHX246RnE9Nl6vQ+d/rLnisYKiiCM6MGA33ruNZaB5vQ3+afTXCUL2AHqWB56Bt+gpPF6qfK8+vuYKm5Jmgfi0H9oJ11SAWPxSisv4trPSMoz8iFM6cD44fXcbLYTwK5ffJqVnFz+DTqsvLhKhjD6RFvkFREqx9sX4dU8FiY8uaHWBk4DndWHnLzPJg87N2x/MGSLXhy3I7/eCyoIlIRfHYI+1JKDpUwsDsMJDypeFqucfp1NvyrTZ3+5aTiP51mWAMPS3O+Ff/rscAd9vC0Fe0kFRxI7job/t3pJyHcCZw7ZMetAvVNPhxstXxmpEltn+frLX9weTOHbbih+bJqkduGf2v0D5cffm3K6cfM03/Cu/4IU8cPodxh3fFQNFr+4KRi8+qAQpK4bHPTdTx+OouiMPtYu27rkorLhxzBNqtmfsPauYYAqchG/51P+GFQkAwrmi7/c9ek4kxZelC+q/Y2llvrgtecVNzsaFH1d01jZWRsR+yHpXB2B6ng/eXyVjqaFXww5kTv0GOM59uC8oW99erzfL2ZCqaQlnWMasY3272Mm631Aftkor3/GabLBMmwoKZ9U0MqOOnRry90Y7qkgtd/iolCS6A9Eypa1neQCi7Hbjchx6qPa9EWpbt7uJK9yF4HEQMJTyrWitSHYUGVDf/t9M8k8MHkpOKvFtXJM7sZA4U7lxj0SIUpx4I/xqzoNDGwFAu2jlsxpHn4ZvHZkWG+tGLHv4/Z8e/jdnxqVdvjOhiRih88dvzneKAur3/MHqJ/LIBk1hyUd0/hxNI2vNvPcbjMHuIUo5EK72xLsDxLr0JTR3VweUS0b0QqLnSpTriYx3jMtQWcWClGH/+FMy3q+CjLLbtc/jhRqBKlrKolrHa0BGcSOKnQTuczezFqCktClhh4H/RIgSn7OK4eOYsKPr7J/Tg/fhG1mvEV/derz/P1SUUxhkee4eb4JlbG/MfNsadB/RnLx8ChJxjLV+3D+yOWPxgzri900ycVvP46RvNC5WvtJWRQSs6PMEAYiBcGDhSp0DOaHqlgJjOWjtiw6GTILLPi//Ragg6Xmc24cdSODbcZ5en+pY2BFtuuScVqcWBZRLM8oqen0X3GbCid/gkb14eDyzu8/G5IhZ78vZKKIxtfl1To6a9HCpipCqOeR/A4zUgpXcDN7i4kh83ScJl69RX76i5/cKfuxViRE440zZGcFCBdsZAK/fqir0QqyBkILFBKWNgPGEh4UhG+/KGdKQifqdAzuC6pYAzdbXb8Wm/GUKcd2rb4WvTWhBUjgTdbHmPR2hyZVPwzwpZSsfxxW7OckpRkQpkmMFRPX36fmaoxePUSmrPVN1HF+T88FbJ1ktX8gEc6W0r5zIF2pkKvvb2RCn8g53xvcsCJmlA3//Hzlz9aQpc/Ynnz1iMFPG6hqtWLy3VVqG3fxBmd7Zh69ZVxSB3CbIRATf/yxxMcK/AvP/Cy1qRc5AZJhT8QdapYkAwTKlsfa2Yq/DEfevXFWOmTitiXP4QsSskpEQYIA5+LgYQnFX8GAjVL+VLE6M5ATe3yh9ZYnASkJ2sCNQ9Z0ZDiv07T7GBIKrTif4eteDJmw8lU1YHzWYzlMRte1PlnKuqLrfB6IpCKdAt8x22Yc/pnJAqTAoGcgUDNT0MW9GaZUOwwY/kwJy5qG1p9w88Zy0b3zT9xd/EYqosLkVfei4m1j7h3riG4PMDrsILTWH3zDEdqSv2Bmpl+J8bzjEgFd1Ypjlw1UNM7i/Jsfp2DZCsPVPWTBv3lDzMqzr7H4zunUZRigb3wKC48/WOyhCioAAAgAElEQVTXpGKxbxz1DhecOoGaeqSCByomJzuUbZZKoObwOIr5FtCUTCRpxtdWMIOVwUuYPnIDHSmq7WOtzyzNmBx/gPEiFzIV+Rmw8+WUQKDmshIomYscRwtGD23gTFlWgGSZUdywhpW+EbhsFtjSezExsq4hFf5AT736fPyMtpRGCtScGtkZU8HJ7VinDdvtlph3HoVjka7JEREGCAMCAwlPKtbcZtwY8m8p/bHVgiLNTgijmQr+MOUxDWKrp0j/O2HDgkPjXKxmeI/b8d9DFhSHTY3n5FmwcdimbGf9udOCkfoIpIKZ0N1kwx/j/ra0Myl8S+pYqw2/iS2p9WY4NfqLQdJLTY5meK6+wN2Xf8fGKx+uzo2iQLNFktdjzIG6c0+x9vNfyvZQEfPA84xJRRWOPYuwJfXtW4yVRycVSttZHZjyfsTTN3/h8cYixhbe75pUnKhqxejgQyzzLaUtO7eU6pMKf0yC2FIq0tVj9zCUpR3fNkyNP8PqsCdsy2yM9ZkZuaUzuOjZxOqxZ1g9dhPdaX75zJqPlpbruHxkEzc8q5iqqwvZqcOS6zA6/Birx55i+dApDLWuBUmFYr8o9aP9+RVTtpTeVraU/tA1jPam0BgUfxtmPDpux7ZbDXjm9+kgGxAGCAN7wUDCk4r7mkDNvRiA6nzZHw4zWZHqyILdwlB+9hesnVWXL4xsz8kQ/58KsXvBqGwi5/EZhZTkdNjMDEWND7DYWP5VHTrLseDjhA2TmlmaRLYn6f5lf89kX7JvNAwkPKnQ7v6I1lnK/7o/CO0SisPVgKNr/8SloeyYnKYgFdrdH9/b+GmXWDLTKjE0uIkzper/cHyN/ha4bfjvgCVkluZrtEttfN3fItmb7P21MECkgqZ6Y3LyewEkYzWY2PIvoTx5/QHLV46iwKYuPRjJPBikogwjnmf+74eMPcRcRy9yw77dYmSjz83jcUU8APmJ5r9ePlcm1SfnRRg42BhIWFJBwD3YwKXxp/EnDBAGCAP7DwNEKmim4ovNVNAPfv/94GlMaEwIA4SBL4kBIhVEKohUEAYIA4QBwgBhIC4YIFJBQIoLkL4k8yXZ9GZFGCAMEAYSAwNEKohUEKkgDBAGCAOEAcJAXDBApIKAFBcg0VtEYrxF0DjROBEGCANfEgNEKohUEKkgDBAGCAOEAcJAXDBApIKAFBcgfUnmS7LpzYowQBggDCQGBohUEKkgUkEYIAwQBggDhIG4YIBIBQEpLkCit4jEeIugcaJxIgwQBr4kBohUEKkgUkEYIAwQBggDhIG4YIBIBQEpLkD6ksyXZNObFWGAMEAYSAwMEKkgUkGkgjBAGCAMEAYIA3HBAJEKAlJcgERvEYnxFkHjRONEGCAMfEkMEKkgUkGkgjBAGCAMEAYIA3HBAJEKAlJcgPQlmS/JpjcrwgBhgDCQGBggUkGkgkgFYYAwQBggDBAG4oIBIhUEpLgAid4iEuMtgsaJxokwQBj4khggUkGkgkgFYYAwQBggDBAG4oIBIhUEpLgA6UsyX5JNb1aEAcIAYSAxMECkgkgFkQrCAGGAMEAYIAzEBQNEKghIcQESvUUkxlsEjRONE2GAMPAlMUCkgkgFkQrCAGGAMEAYIAzEBQNEKghIcQHSl2S+JJverAgDhAHCQGJggEgFkQoiFYQBwgBhgDBAGIgLBohUEJDiAiR6i0iMtwgaJxonwgBh4EtigEgFkQoiFYQBwgBhgDBAGIgLBohUEJDiAqQvyXxJNr1ZEQYIA4SBxMAAkQoiFUQqCAOEAcIAYYAwEBcMEKkgIMUFSPQWkRhvETRONE6EAcLAl8QAkYoopIIxhopRGbcvyMhmjBxwFHt9SbB+jmxLdguG5x7CU0tjuFs7Dl1sihn3vKz24G1pr8V5JB14XqT7evd2W15PjrjvHFrChakh5CcTRoRNKCUCslsMJDSpYCkyPHMynm9J8L2QsDbPUJEa+kBgVhmLP0n4cJ8hdw+kgJOKlhkZr+7IKNLUZxaG668l+H5gsDMGXu60V8L7NRl5mnK7GZCqUxJez4Tqr1e/YUbCr29k5fjgk9FtDa3H9Tl6Vy3z7qUE71UJ9Vmh5fTk75f7rEbG6+cyqvZoU94Pe9lJLG69xfyJQRSkxaf/1bO/49m7fynH07f30BJm//1iPyM9mM2BhrkaVDgZbNXlGJzMQ2oEOwvnLQhBeKptQ5Tl98S5SEW58OtI93mZ8EOU06ZCVnhZca0tG62/VmczBhd+xKON66jPNO2K4GjboXNyxAcZAztIRV1dHaId+8Fg3Gn2Lkp4uSKjq1JGQSFD56SEF4sM6ZoHI3PLePVQhvdnCX0p8XEovP8KqdiU4N2U0GplYAUy1u/J8H4lUmFLk5GTzZDjlrFhQCpWD/nL5RUyjC3JeLOSWDMun0sqmK0WE09+x8X+XJg0uPhcDFvTcpCVnYss9wxuJiqpMGcppKI8h8FSVYbBiTwkR7CRcNzcZtrzaNeirEiFzcOvo90X+UZpJJnh91gM/WUsFe4LPniXhkOeI0ZtUx6RCMKAioGIpMLIQJxwGOV/rTzuxDe3JLQkqUSBE41JrwSPQ71XMCbh5RkZo7clLDSq98Wb/NJRhoX7MnwvJTyYZXBZ1DJ85iA4GxBGFhRS8VLGzEUJCw0MeaMSbk/LWNeUY0kyhi/4Z1JeP5VwbUxGhuahzdJlTC1J+OmVhM1FGYfPhc5UMLuMoQsSXryU8OaFhOXjMjJNqn7c1ixXhteAVFzvVMszl4zHPhkDAXLF+7c9J2P0ugTfKwlPlmTUZ2jKG+gfi/2i6W/UPquX4fOp9g+Ow6rfhswhY80nY6JA1dfWIsH3XEK1xkb2tpt4vDGDAs09xW7OCSy92UBPplrfVL2Ata3LqAiUZSlu9C88wZ1XH+Hd2sb8qQ5khcvJPYEbEUgFYwUYefQJMx2W4O+l+JQP3rm24DWzl6JrbhN3tv+Bx1uvMDfRgvQw+V/y98RYBmouVKEkg8FUVoLBMacy6yba5E5Ze/D74Y5a71p7XytDnIs2hExxX1tPWybaeaR64fei9Ve0wdI9uOR7jgGnig2RR6nqPMgWZItIGEhYUmFpl/H+mn/pIblKxu1NCRszDOM3JJx3+x8G3PENL0u42sZQdkLCiylZfaAHlgde3ZbRV85QXC1j+bmEW4Pqg8SaypTZANchCR80ZIEbUiEVPgl97RJenJPhWZXhaZWxFSjH266ckvDmnoz2UobiWhkrzyUstqu6NczIeHtPRlsJQ0mjjBsbKqlQ6p+S8dOKjMYihkK3jMvrEpZ7VP0UPXZDKrJlPPRJOJTul8Gd+pvnEqbbGAqLZEzdkrF9kSEpsJwTTX++vKJnv1j0N2zfzuByyXD18KUtGV38nB8OBnNAP89tCd4x1Z5NsxJenfPnC7AXTf6Mx/MdwXEX9xkrgsf7Fy72pgfziqf8Tt8v3wL37K9YW5pCbXkJ8iqHcGbjD8z1ZATL++2/N1LBmBmlp314ePM0qosL4XIfxtmNP3GxNzNEvtA3PGWsCkc3/oGN12HHpX7FPuHlI10zloaqMxUoSGZghUXo82TDoiG9oo7WOWvPeb7etfa+9jxSnfB2eHm9Q1tWK1d7ri0jznkaa38ZK1awcbaVlkC09qNzIhGxYCBhSUXGoAzfrKzEMgwuSXh0UkaZm+HkkoSL9QFHY5Fx5ZXfiZrrZLy+q079c6fHneLtIdVJl01KeHNRvRYGtHbqkQoZAw6Ga14JT27LcNbK8GlIxbE1Cdc6VHnlkxJeX/ATG97+iUdqPr9ungslFZOPJMzXqfXzj0p4N68SI65frDMVJquM1hkJ7x7KKAw4Du7U31+RYQ1cm5tkvN2UUBZw2tH0N7If7080/Y3aF7Y3Wv7IPiTjF2Fvk4y55xLmNPbiMirPfcDa2ciza0UnX2Pjah9sSn/5zMJHnG216zr10tNv8OB8Y0g+2+NMhd9x/YmpAFa5rrljW9hY6AyRL+wQnjJmQ6qzAE5X2JGVHFP9cHl618K5i/xw5210LfJEqieD3+dlwsuJ+6JeeKotrz0X5SLdE3lGKWM5GLjzCRd7U+JqS6M2KY8c9veCAV1SESmugnd6vyx/ZAxJAVIhY8rrnwbnjowvcwRJRaWMl49kFHCnkSRj5WcJvYHlEl6WO0Xt8gBfwvhwRd7xtmZEKg5nyqgblTDdzsCa5GCgJmMyzj5RdeG208qPlM+drAjUFPnvX0t4+5P/ePfzTv2ikYpfAvXf+yS8WZcwXKSSFG17XD+WztDZISNTcbLR9De2Xyz6G7UvfmBGpIJlybjvk3HEyWCqkLG1JaPBrPaPy6g8/6suqTBVzeP+9jJqLQzMMY5F3100a5bT0mvPYO7hO3h/DswG+D6FLF8oNtszqajCsWefsOnTzDT4/sLTqwMxzzQIG33JlDtmcYh2hLMWqbjPU+09cc7T8ENbR9QTZbR5Qob2njjX5om64akou5tUkIr5vlQiFQm622s3401l40vodEmFnqH3H6lgmN6QMO7y78DwrKqO3HVUxge+Q+OV/3jnk1XCERdSIcGTrTox1qLOaAinKggOt+deSMWlrsC0v5j+D9u9EY1UrHr8ywh5WaHLAlyfcKeuHfPo+sdGKoz0N2pf6GJIKhgDH+/7I/7lrdcX2Q5CWHH2A9bONUR0DszciKmt33Ci1oy0gYfYXPYgJTBrwyzNmPrxdywcbUZ+YDagafZdnEnFbzjTvbeZhngsfwgb66XCaYtUlBPXIhX3eaq9J87D02jltPmR6or2RJ64jlfKmBOD9/hMRXxnfeKlH8mJrxMke8bXniGk4n+SU5WZiP/5n/+J+BBOSkpS8k2mb7/WqJ2pOLUu4Vi+n1SImQo+E8GXRW55ZOTlMuXovCDh2aSfBIiZivDlD9+cShIE2PRnKiSMaklFq5ZUMERbPuDLA2J5hOsTafnjSquqjz2ToVgThMr1Y87YAzVFf0Rq5NS5PtH0j7T8IezH6/P+Gelv1L7QkVXL+NlgS6ljSML7VRkzaxIuNau2EvVdx37E5uJgcIlH3OcpYxbUL/yBu6ca0XzlH7h8KDuIe+Y4hmtvH6A9OLNlgnvmt52kwqkXU5GB3tVP+GHIH4PBmAk1c3/gzqkqpQ3/8sc/ca5NDeS0ZRYi3xHblPvXWv7gdorkvCPdCy8ryuil2rGIVjc8P9J1uLy9XjNWjePPP2Kq4ds/5/baB6oXX0dJ9ozdniGkwp6UgurqalRVVcFiUR923KD8mt93u93BB++3NLQ2psJzS8JKP4M1XcbSS/9MBbPIuPRKxvF81dEkdUp4f1uGIxAzwJ3iq1syessZinig5jM1UJM7xVSHJlDzkYxqvoUzmyGVbyHl/1PhMyYVlSf9gZptmkDNqwaBmiubsmb5g6HylAxfINCzoFzGvJfHgITFVNhlLL2WcKmLwRnQL9nsJ1jhyzvh42Xk1Hn/o+kfzX7R9DdqX+jK8mVs+iRMVQcCNzW7NXgZlinjLl8eeimj3a6Otahvdi/g/vZtNOlsJ7a3r+LxAy8uvXyBQU20PzO34NTLP3F1sgMFrmKUdy1g/smvO0mFvQ+zvl9wpqsYDr7FNNuBpMASTN7RLWx4F9FcXoyCxjO4uv0eJ+v8MRsiUHP9/jwaygqRVzGAU+t/x6Vh5774fQn78VSQAnFPXItU3Bdl+X1tnt65tp6oq02NzkWenmztfV52N4e5fBZ3Xt9Diw5mdiOLyu7O9mSvxLfXDlLBiUV+fj5KSkpCfoj8Oi8vL+TetwSArUvCL4HdH44OGa98Et5vyjh/OUAqymRsvZTQoNmipywV/CyjO0njdI/IuCi2lM6pW0rF9L/YyijSDz4J02XRSQW3jbKl9P8Fkyp/zvVUwnWDLaXPlmR4ZtSYClH/0Jyk9INvlVyZZMjW9EcpwxiKB2Ssv5Dwi08C108sBX0OqRDtD+voz0mHIl/HfqK+kf4xkQrG0HpWwstt//ZSHpzLZYuD6zGyKuHNZVnZtSLui5Svj3ct/477V0fgtO0kHSx5EPO+T3jqPbPjT8syGmaw8PhXrP/0ActXx9F+ansnqWAW5A+uYmXrH3jy9hOevv0Rwy5/O8xagNaZddz+8U94n73A2ZHqkP+BYEml6J5/invb/4B36xXmpzp2bBkW/fiWqdZBa8+5TtGuRRltOe25tl+R7ke6J+po87TnkfLFvWipOaMFE4/+wI2Jyh1LadHqUr76uyRbHFxbRCQVnFiUlJYGSQQnE+Ek41uDRvnPhS0Z7YG3CWsaQ7qdISmTISPCG2u4vsIpiuWH8Hy6Nv5R7Bf7cfLHl7+0AbfhY8f/D6J/6R28Tx9joGQnsQgvT9ehYy8ctkjD7aO9rz0X5fZ6j9eLVFfIFalRGaM8UV+kGe2LWH35O66dakZaGHkXZSgNxQbZg+wRjgFdUpGckoaqKjdcLlfE5ZBwQV/7mju1rssStm/J6KuW4cphSNb8cVU0fYRTNHJG0WQc5Pz9Yj9WLOPZaxm9UaaqeQxCZmU/3IFZhIM8dtT3yI4grbIL7ryUuP7zKtk6sq3JLt+vXXRJBZ+tSM/8mxKYyQM09yMImI2h57SEx88l8J0dR3NjfwvdL05xP9o1Fp32i/1KJiS8uy5H/GZFLP2gMt/vw43GlsaWMPD1MWBIKjix2C9bSAkcXx8cZHOyOWGAMEAYIAzsBgNEKjRBf7sxHJWlHxphgDBAGCAMEAZCMUCkgkjFvlzaoh9q6A+V7EH2IAwQBhIBA0QqiFQQqSAMEAYIA4QBwkBcMECkgoAUFyAlAoMmHelNjzBAGCAMfFkMEKkgUkGkgjBAGCAMEAYIA3HBAJEKAlJcgETs/8uyf7Iv2ZcwQBhIBAwYkoq/ObJRW1uL1FT6BHAiDCbpSA8dwgBhgDBAGPiWGNAlFZl/cygfF3M4/GlKSmxfT/yWnfke2+Z/MlUxKuP2BRnZgc9yf4t+WrJbMDz3EJ7a2P9gLB568v5nNJahuS8L9j30/3Prx6MPnyNjv+v/LfVzDi3hwtQQ8pO/LiY/ZzypLjn87x0DEUlFRmaWQigEkeAp/3qpuN4vRmEpMjxzgQ92vZCwNs9Qkep/wLB6GT6f/yNU4mNgPOUf3BpKi/4Q4g9Low9yNcyosj/4ZHRbo8vU2o3L96yqMoSOHx7KcGmcJy/XMiPj1R0ZRZr7WlmRzvein94HvuxlJ7G49RbzJwZRoLEdsznQMFeDCieDrbocg5N5cf9nS/41z5zeGvSM5SJtF/0XNtGrn91br3xXgn8bYnCuDHm7+It3IftrpHr6R2o7s7MGfb3pcV3OYvmF6JsuRKaO7aPpF61+pH6Ie9HwZXU2Y3DhRzzauI76TPpMubAbpURcviUGdpCK9MzMiARivxEL7mx7FyW8XJHRVSmjoJChc1LCi0WGdP5pcxtDduBT4J4lCRtTsvLZcv7p8qQYPhYUjVTY0gLy3DI2PoNU3Brxf06d66UcmQxmnQf4boCyF/0ikQpmq8XEk99xsT93xzcRmDlLIRXlOQyWqjIMTuSFfIVzN/p+7bLmJCuS0mxIcuWjYx+Tit3Y5VuQimj6fRapiAFfjKXCfcEH79Kw8ruPpg/lk8MlDHxZDISQiqSUNOVvufVmJPh9/rfdJtO3fytgBTI2tyS0JKkzBJwITHoleByh97qvSPAeCf1kNgeWMtOxIOHFjxJ8z2WsTKmfFg+SCv5p73syfC8l3J+RkWdWZSsycmV4dUgFs8sYuiDhxUsJb15IWD4uBz9tzeXzmYrlnlB5WsBzJx+cwViTd3ya20i+kKN87l1Pv3QZU0sSfnolYXNRxuFzoZ9e5zLsbTfxeGMGBRGIGGMZqLlQhZIMBlNZCQbHnMElCv4Br+LxRtQ3OVB9vA5952vR2udAssZ+3An29OeiaKQa/efr0OnJh0Mzlc3z+UyCMptwPDeEsLB0J9rmKlCg+ZCYyVWAHv5WHdDVqH7QPhm5aNchFcyahIK+CnSdb0D/GTcaWtOD/eP1mTUFxcNu9JyrR8dhJwq7a9DTnRacKYhWX+igl0bTnyWnodxTjd7zvP0cpX3tTIVR+9rxqTlei77zNWjtzURywHassAh9c41B+wfH4agTtgDpNdIvWn2W6kTLXDVKs1T8m0uK0T9dEBw/I3xpbcbSPbjke44BpypLm0/nX9aJkH3JvloMhJCKWL71sV++BWJpl/H+GlMe8slVMm5vStiYYRi/IeG8W324cOcdiVTw+w0XJLy6LqOljKGwQsaldQk3uv11Bal4eUtGbzlDca2MlecSVvtV2dyQek6b1688JeOnFRmNRQyFbhmX11USwfOjkQprqn/2wnVIwocwUhFNvhhkI/0aZmS8vSejrYShpFHGjY2dpKJo8mc8nu8IOkohV+k7S0PVmQoUJDMoTsSTDUvA4Qin1TNWAFduEtLynWiYbkBTjS0oizul/ukKVJSlIDU7HeVj9ejpzwjKMNltymxCcl05BsNJBUtC2YkGNFRZgvIy2mvQ15cenFExqi/6wXRIBWMmZHTUoHc0D9nZSUh1OVB7sj7YHrd/Wms1Bk4UIc+ZjPTSfDSdqguSimj1RftGqZH+XH52bx36jxXAmZOEtGIXGqbqgssf0dpXxyffPz4FuWg+24CGSqtiT2a1IiXTjpSqYvSfKUYuP+dHqiUm+0arz9svGmtEW5P/Y4VKf/rq0NOTFpTPDPCltRtjxfB4/8LZ1m//sqPVi87J2R5EDCQsqcgYlOGblcEf7oNLEh6dlFHmZji5JOFiver4eX4kUhFpsCtPSdg+55/R4PV4TMXtIVVW2aQE35x6zWUYOe3JRxLm69Ty+UclvJtX5XNS8cvPEt7+pB5ro2p5oaO1MzKpMJIv6hrpd+KRhGsd/vZ4f5vndpKKynMfsHa2Lui4hdxoqXBazTV+J8XLp7dVo78/IyiLk4qB4aygEzEVF6P/VP6OaWxzRekOUiHkDRzKVJaLGLOjdKIetaXmoHyho159nq9PKjhpqUd1oToeKU1VGBjw6y+cYlOgf9wp5g43aEiFcX2hWyxpJP1ZgFTVl/sdKW8/p79eQyqM2w+OT606Po6eOvR0qTMtin2ixFTwMpH0E/0yWv5IqqsIjiszpcE9XQd34e6JAWM5GLjzCRd7KZhc2J1SIjTfCgO6pILPSIQfXMn9MlORMSQFSIWMKa+MiQKmEIzR27GTiowaGcsPJLze9jv1d6/9Mnk/Bam43qk6lbxRCR+uyME3aaWczvIHYzLOPpHw/rVKGN79rNbn8jmpuD8mw+VSjxxNIKQARWRSYSxf1NUnFf76WgIWKaai8vyvn0Uq6itUJ5HcWIVBDYngpCJkuj4pBbnlKSFLDLwfek6L5RWg51wJcswMynT6hTLkRgiY1auvjJ/uTEUKKk83YmC2AQMXxNEY1J879fLJBtSWqPjg/RHLH4wZ1xfjE0saSX+//FDSo7VntPYFqdCOT3qHf6ZHq5MRKRDlIukn8ozqs5QctMxVoTidgeXmo/tcERwRltmELL1UkIr5Ptr6rmcjuk8k42thQJdU6Cmw/0gFw/SGhHGXn1RwR611lNx5R5qpYBaGi1sSVo8wFAeceueF+JOKS10qYVDIQ2ANWZCK1QHVKenZ3IhU6MkXsj6XVFSc/YC1cw073v6FfL00ktOKRir0ZOk5Lf52W32mDlX5JmX3yYAnG9YIQa569Xl7+jMVnBTUobYiMO0vpv9T/DMhjCWj/GQ0UqFfX6+vke5H0j82UqHffqTx+eqkgllRdLQBLfU2ZRarrz8jOGsVyQ569xhzYvAen6lI3jVO9WTSfXLChIG9YeA7IBUyTq1LOJa/u5kK5mB44JPQFwj05E6+/vxOUhF1+cMZOVCTy+PLE1daVdJgz2QoDgSRfj6pMJYvfhAsin7Rlj9cx37E5uJgRGct2oiUCqcVbflDO1MRSQ6/F8mp8vvchs6BenS3pylLD821aryGVpZefUVGei7aIgRqiuWF2lJ1psWckoS0VEEq/IGojZXi2r/8oM5U+GM+9Opr9Yt2Hkl/oZ/x8kcD9NoX4xPLTEWvwZZSrnsk/USf+EyFUX17TTkGjhSi6ng9aot3Ll0JOUYpY9U4/vwjphrUsTIqT3l7cxZkN7JbLBhIXFKhianw3JKw0s9gTZex9DLGmQozw8KWhHsnGEpcDNVdMlY2dpKK7TtRAjXtMpZeS7jUxeAMbAvlOxy4w+OBmr57MtpLGQrKZcx7eYxGaEyF3kwFr5/q0ARqPpJRHZCfao0uXww+3yGip194oObKpozXMyoJ4jLM7gXc376NJs0uCyHbKBVOq2csEAioE6ipRyp4jIA1VROoeaIAWXwLaJoNVs0OEktZCfqPl6PpnH8aXegUa31mzUT9LH+jT/JvMU2zwmLi9vUHaiqBkM4kpORmoXqyAc2BQFOen9lVi/6xPKTbTTBn5aD+VL1m+cO4vtBTL42mP88PD9RsPKWNqTBuX4xPVFKRlYeO2SqU5yf7AzWDMzWxjQ/TqS/6zVKy0TzTgP5zpXBGWLoS5YxSc/ks7ry+h5ZdYtRIJuWRAyUM7A0DEUlFeCxF+PV+MLatS8Ivgd0fjg4Zr3wS3m/KOH85NlLB++Col7HqleB7JWH9soy+KX/wJ8/jTp0Hat4Yk/HDmqRsKV27IMOlcWiiXPGAjPUXEn7xScqfa/GlGCUvScahOQlbL/mWVQkrk6FbVvlSjT6p8Mc8iC2lIuV/3jVdFl0+bz+qfpotpc+WZHhmdgZq8vXqruXfcf/qCJy2UMIh2oiUBp1WYxaqj9Whn28p7XcgRWM/bQxAuAwREyC2Mop0MPBnW6I8/4OkxtlGDJ5wIUWz9BFzfb6Lo7oE7WcaMDjXiME5N0oyA/a1JaOwvxLd5xrQN+1GY3sG7Jo1f5aSgeoT9Uq9/pNFqBioDZIKrh+LUuXX8JQAACAASURBVF/0IVIai/7aLaWdnlwU9YbFqBi0HxwfTcxLxOUPZkVOdyV6ZhqU7aV8d43St0DMiBgXke4YH536os+MWVB4pBH9hzJDYpVEfrTUnNGCiUd/4MZE5Z7qR5NP+XtzLGS3g2u3HaSCbyvVHvslhiIcpMwl4/GWjPbA24k1jSHdzpCUyZBhj935hcul650/BmYvRf/SO3ifPsaAJjDRyFbCadUFdicYlU3kPD5jYEu1wmxmyOziuydiCxZkThc6gwGgIhCUpyVwaohLItsmFt1FbEp9xe6XPjLaF7H68ndcO9WMtANks1jsSmV2PsfIJl/HJolLKhhD12UJ27dk9FXLcOUwJO/Tv1r+HsDMSUJmZT/cgVmYaH0SpEI7vR6tTqLla5cokjLTUHFMXR6J1hdmsSJZBH+GpLa4/KNqtPb3Sz7LdqFztgx5u5gFE7qnVXbBnZeyp+BOIYPSr+NoyM4Hx84JSyo4SPlfcfeclvD4uYR3PhlHc2mGYr/8eA8GqUhF1bT/XycHZmrRPpyDNCK2u9qBkdbqxsCIY9eBwPsF56THwXGWNNaxjXVCkwoa5NgGmexEdiIMEAYIA4SBr4EBIhWBgMavYWxqg37UhAHCAGGAMPA9Y4BIBZGKXU1Xf88/BuobPewJA4QBwsDnYYBIBZEKIhWEAcIAYYAwQBiICwaIVBCQ4gIkYvefx+7JfmQ/wgBh4HvAAJEKIhVEKggDhAHCAGGAMBAXDBCpICDFBUjfA8OmPtCbImGAMEAY+DwMEKkgUkGkgjBAGCAMEAYIA3HBwIEnFfwbHzVVNjxpMcOp+XYEsVU/W+XfZigZvY9Lc/3ITED7MGZGQdU8zjS3IH0P+n9u/YOOI7Lf5731HXT8UP8TDz9EKpgJXS12/DloQekenE400DOnBX8dsaLuS8i2l6JrdhN3t/8O79Y2FqZ7kB32j46s9hK8Wwt77hv/xHbdBR8e3J2E6wv0IZr9PjefMTsqm+5isX94T6RRr355sxe3jj9XjtVjF1Gr+VDa5+oca/2q1s2gDkKXs+WZum8bhfX3sNRcrZsfa7vacsw5iSXPCRTqYEPPfkJGtPqiHKWJ51xozA7mmB14UvGlgf+lSAX/7kTJKR+8d+dQX1aIvMpBnF7/iEVPQYjT+FxS8aXtk6jyrfZMZKQ4kJFzFPPfiFRY7VnISHGivecZFurdij6pVv0Pc30LUhFtfIlUHEzHEw0XlJ+4uEhYUsGd6qlBOx64LVgetuPTuA1brRYUar5WWNdgw8dWCya7bfhr3Ia3PRa0JqnfB+H5//fE/yjHf4ctKNC8bbFUC7YnbBhPVsubcyz484gVjYE2mNWEE21W/Dpmx6cjNngb1CUUlmfFpwl7UH6wnX4LsgLtMIsJR1us+HXcjn8dseFRrQkOjQ5GPyzGMtF76xMW+tOCJCK96SxOj1QrH6Ri9VfhffsJz979K+R4ems8uAxQOv0WDy6ewMDSa3h/+g2ryzNwZ6j95fmi/tMHJ5Gj0Y2xXAzd/4TZsWFMP/gA7/ZbLM72IVvzxs6SKjF45SUebP+O1Wvj6Dn/Fg/ONwb1Ne6fA50DzzDpbseRwYe4cXQNM83tcGjGlzvJay1D6Oi6jRtHH2Gh+yjKNOPL88Ub/OrgoaDdebssZRCzx66iRVPelDOBRc9JFAfaMKovdGepQ5jTIRXMko/m5kVcOrqJZc8qTtZUI1VrQ2sROtpvYvGIFwud/WhtvIdrjVVB+0Srr/SDWdHQ+QwXq13BekHd7FUY6L6F60dV+dqZCiP5jKn2H+P2P3IP55ubkSWwnzeFG8eeBe0btHNff7CPRvZjUeqz5H6cP7aK3nQVj9b8s1j2nECRBgPMZsaqx46/+i26syXCHpQmrqOisUucsUt4UvFxwILDDhPKnBY8OmLHZpkp+HDlpOFfR6xYKDShNNOM2QE7PraZkRR4sFttJuSmmFBYYcUOUsFMOH/IDm+JKs9db8NfrWZYGAOPxWhrseHPbgu6HCaUZJuxOmLDw2J/eWZhKEwzoajEqix/DPJzfiQzv9NnDLUNdvy9z4L2TBNKc8y4NWLDo5g/LW5G9exveHBlEOmah6z48TF7FpyuAjh7V+DduoFmfs4PR1rwK5icNDzeWsdYeyVcxW0YvfMHHsx3wB6wjyU1B1nZuXAefgA9UvHgzhzaKoqRX3cSP7z8O+Z6MhT7c9JXcGIbm+vX0FpeiqK2WSw8/W3XpGKx7xgaHC7kOvtx0rOJ6TJ1ep87rWXPFQwVFMGZUYOBvnVca62DTehv888mOMoXsINUsDz0DT/ByWL1U+X5dXew1FwTtI/FoH7QzjqkgscSFNbfxbWeEZRn5MKZ04Hxw+s4Wewngdw+eTWruDl8GnVZ+XAVjOH0iDdIKqLVD7avQyp4LEx580OsDByHOysPuXkeTB72Bpc/oskXpGKxb9xv/9xDmB7dUPW3pMOR5oSj+BxueM6ghp/zIzk5JvuxKPU5aW7vf4o5d14AT2ZUNHux2FQVlM9twJIteHLcjv94LKjSEDZhH0oTxxnRWH0fY5XwpOJpucbp19nwrzZ1+peTiv90moNfQDTnW/G/HgvcYQ8fW9FOUsEB7q6z4d+dfhLCncC5Q3bcKlDfnMJ/BLV8ZqRJbZ/n6y1/cHkzh224ofmyapHbhn9r9A+XH35tyunHzNN/wrv+CFPHD6HcYQ0SKlHWaPmDk4rNqwMKSeLlzU3X8fjpLIrC7GPtuq1LKi4fcgTbrJr5DWvnGgJOIBv9dz7hh0FBMqxouvzPXZOKM2XpQfmu2ttYbq0LXnNScbOjRdXfNY2VkbEdsR+WwtkdpIL3l8tb6WhW8MGYE71DjzGebwvKFzbUq8/z9WYqmEJa1jGqGd9s9zJuttYH7MOd5jNMlwmSYUFN+6aGVHDSo19f6MZ0SQWv/xQThZZAeyZUtKxrSIWxfEEqzpT7x4+3V9r0CIsNFSH2iWX5wtB+BjEZGeVXg+PGTBXweLzw5Ib+vrhedrsJOVb936WwFaXfh9Oicdzf45jwpGKtSH2YFFTZ8N9O/0wCBx4nFX+1qA8hZjdjoHDnEoMeqTDlWPDHmBWdJgaWYsHWcSuGNA+vLD47MsyXVuz49zE7/n3cjk+tantcByNS8YPHjv8cD9Tl9Y/ZQ/SP5cfDrDko757CiaVteLef43CZPfShbxCoyUmFd7YlWJ6lV6Gpozq4PCLaNyIVF7pUJ1zMYzzm2gJOrBSjj//CmRZ1fHh7u13+OFGoEqWsqiWsdrQE31Q5qQiZzrcXo6awJDj9LvTXc2qm7OO4euQsKvj48un28Yuo1YxvtPo8X59UFGN45Blujm9iZcx/3Bx7GtSfsXwMHHqCsXzVPrw/YvmDMeP6Qjd9UsHrr2M0L1S+sFc0+YJUaO2fX3cXN5prgnhR+m9ACoSOevaPVp8l9+LcsRvoSGEwOcZx5chplEWYlRPtULq/nQ2Nz8EYnwNFKvRArUcqmMmMpSM2LDoZMsus+D+9lqDDZWYzbhy1Y8NtRnm6f2ljoMW2a1KxWhxYFtEsj+jpaXSfMRtKp3/CxvXh4PIOLx9tpkJLKvTk75VUHNn4uqRCT389p8ZMVRj1PILHaUZK6QJudnchOWyWhsvUq6/YV3f5gzt1L8aKAssCweWBpADpioVU6NcXff08UqEvf1+QCpaOtr6nOFfhUGaVllrrgoRS9J/Sg+GoaJwTZ5wTnlSEL39oZwrCZyr0gKlLKhhDd5sdv9abMdRph7Ytvpa7NWHFSODNlsdYtDZHJhX/jLClVCx/3NYspyQlmVCmCQzV05ffZ6ZqDF69hOZs9U1Ucf4PT4VsnWQ1P+CRzpbS8JkKvfb2Rir8gZzzvckBJ2pC3fzHXc9U7Fj+aAld/hBv3nq68/t6pIDHFVS1enG5rgq17Zs4o7MdU6++Mg6pQ5iNEKjpX/54gmMF/uUHXtaalIvcZEEq/IGQU8Xi2oTK1seamQp/zIdefdFffVIRy/JHdP2iz1ScwHWDLaVG9lfs5zSun152GTd7JzAyuI5xlzorJvpPaeI4GxqrgzFWCU8q/gwEapbypYjRnYGa2uUPLag5CUhP1gRqHrKiIcV/nabZwZBUaMX/DlvxZMyGk6mqA+ezGMtjNryo889U1Bdb4fVEIBXpFviO2zDn9M9IFCYFAjkDgZqfhizozTKh2GHG8mFOXNQ2tPqGnzOWje6bf+Lu4jFUFxcir7wXE2sfce9cQ8jbHCs4jdU3z3CkptQfqJnpd2JcnhGp4M4qxZGrBmp6Z1Geza9zkGzlgap+0qC//GFGxdn3eHznNIpSLLAXHsWFp3/smlTwQMF6hwtOnUBNPVLBAxWTkx3KNkslUHN4HMV8C2hKJpI042srmMHK4CVMH/FPsws7x1qfWZoxOf4A40UuZCryM2DnyymBQM1lJVAyFzmOFowe2sCZsqwAyTKjuGENK30jcNkssKX3YmJkXUMq/IGeevW5nkZbSiMFak6NaGMqjOXHPFORPoKF8SUMOPP9gZpJ/uW3mO2nUz84DkndODu2gZUjM3CH/QcLL8PJ+VinDdvtlph3TgnZlB4MJ0fj/HXHOeFJxZrbjBtD/i2lP7ZaQrabGc1U8IcRj2kQWz1F+t8JGxYcqmNnVjO8x+347yELisOmxnPyLNg4bFO2s/7cacFIfQRSwUzobrLhj3F/W9qZFL4ldazVht/EltR6M5y7WDM2OZrhufoCd1/+HRuvfLg6N4oCzRZJ/0PXgbpzT7H281/K9lAR88DzjElFFY49i7Al9e1bjJVHJxVK21kdmPJ+xNM3f+HxxiLGFt7vmlScqGrF6OBDLPMtpS07t5Tqkwp/TILY6ijS1WP3MJSlHd82TI0/w+qwJ2zLbIz1mRm5pTO46NnE6rFnWD12E91pfvnMmo+Wluu4fGQTNzyrmKqrC9mpw5LrMDr8GKvHnmL50CkMta4FSYVivyj1o/35FVO2lN5WtpT+0DWM9qawGBQD+TGTCpaBqsbrWDz6VNleKmIuRMyGsLtId9hfpz7vv2IDloa23mdY7mgO7uoReX4bmfHouB3bbjVgW5tP51/XoZC9yd4JTyruawI1CdD7D9DMZEWqIwt2C0P52V+wdlZdvjAaL+HUxO4Fo7KJnMff6FOS02EzMxQ1PsBiY7niTBO5T/HUnbECDB7axIlCdYZNK5/lWPBxwobJFJUoavPpfP89E2hMvu8xSXhSod39QWDdX2DVLqE4XA04uvZPXBrKjslpClKhXdP/3sZXu0SQmVaJocFNnClV/4fje+vvXvrDMkfxw/g86iPsyuHyCtw2/HfAEjLLtJd2qM7+enbQeCTueBCpoC/TxeTk9/IjZ6wGE1v+JZQnrz9g+cpRFNhie6M8GKSiDCMe/79Sro49xFxHL3IjxA3sxfbfSx3lD8K6OkJ2NIm+8bgoHkD9RPNfNSKP0sR1SjR2iT12CUsqCHiJDTwaPxo/wgBhgDDw/WGASAXNVHyxmQp6YHx/DwwaUxpTwgBhwAgDRCqIVBCpIAwQBggDhAHCQFwwQKSCgBQXIBkxV8qjNxvCAGGAMHAwMECkgkgFkQrCAGGAMEAYIAzEBQNEKghIcQESvYUcjLcQGmcaZ8IAYcAIA0QqiFQQqSAMEAYIA4QBwkBcMECkgoAUFyAZMVfKozcbwgBhgDBwMDBApIJIBZEKwgBhgDBAGCAMxAUDRCoISHEBEr2FHIy3EBpnGmfCAGHACANEKohUEKkgDBAGCAOEAcJAXDBApIKAFBcgGTFXyqM3G8IAYYAwcDAwQKSCSAWRCsIAYYAwQBggDMQFA0QqCEhxARK9hRyMtxAaZxpnwgBhwAgDRCqIVBCpIAwQBggDhAHCQFwwQKSCgBQXIBkxV8qjNxvCAGGAMHAwMECkgkgFkQrCAGGAMEAYIAzEBQNEKghIcQESvYUcjLcQGmcaZ8IAYcAIA0QqiFQQqSAMEAYIA4QBwkBcMECkgoAUFyAZMVfKozcbwgBhgDBwMDBApIJIBZEKwgBhgDBAGCAMxAUDRCoISHEBEr2FHIy3EBpnGmfCAGHACANEKohUEKkgDBAGCAOEAcJAXDBApIKAFBcgGTFXyqM3G8IAYYAwcDAwQKSCSAWRCsIAYYAwQBggDMQFA0QqCEhxARK9hRyMtxAaZxpnwgBhwAgDRCqIVBCpIAwQBggDhAHCQFwwQKSCgBQXIBkxV8qjNxvCAGGAMHAwMECkgkgFkQrCAGGAMEAYIAzEBQNEKghIcQESvYUcjLcQGmcaZ8IAYcAIA0QqopAKxhgqRmXcviAjmzFywFHsZQS2b5lnyW7B8NxDeGppDHc7DkMXm2LGPS+rPXhb2mtxHkkHnhfpvt693ZYPlxOpvpF+vH6kOuFyI11/br1o9cPzw6/DdYqWH15ee72XuqKOSLXy9tt5uI7h17vR1zm0hAtTQ8hPPjjPnYQmFSxFhmdOxvMtCb4XEtbmGSpSQwePWWUs/iThw32G3D2QAk4qWmZkvLojo0hTn1kYrr+W4PuBwc4YeLnTXgnv12TkacrtBoBVpyS8ngnVX69+w4yEX9/IyvHBJ6PbGlqP63P0rlrm3UsJ3qsS6rNCy+nJ3y/3WY2M189lVO3Rprwf9rKTWNx6i/kTgyhIi0//q2d/x7N3/1KOp2/voSXM/vvFfkZ6MJsDDXM1qHAy2KrLMTiZh9QIdhYPVZ5GOrRtiLL8njgXqSgXfh3pPi8Tfohy2lTICi8rrrVl+bm4L+rp3QuvJ6619cS9WNJ41IskQ9zTS/V0E+V5Pj+PdOjVFXWM8sPzRHsiDc8X1yy/EH3ThciMgENR5kunQsdINhH3hA7RfkNWZzMGF37Eo43rqM807Yo0izYSLd1BKurq6hDt2A+d5E6zd1HCyxUZXZUyCgoZOiclvFhkSNcAkrllvHoow/uzhL6U+DgU3n+FVGxK8G5KaLUysAIZ6/dkeL8SqbClycjJZshxy9gwIBWrh/zl8goZxpZkvFlJrBmXzyUVzFaLiSe/42J/LkwaXHwuhq1pOcjKzkWWewY3E5VUmLMUUlGew2CpKsPgRB6SI9hIPGS5zbTn0a5FWZEKm4dfR7sv8o3SSDI/555oi8uI9RB1eBpLnd2WFzK19cQ5zxPnPA2/1uaF50cqq73Hz2M9tO3EUkdbnp9/a1Kh7bfQLdI9kcdi+A0xlgr3BR+8S8MhvknI+N7SiKTCqJOccBjlf6087sQ3tyS0JKlEgRONSa8Ej0O9VzAm4eUZGaO3JSw0qvfFm/zSUYaF+zJ8LyU8mGVwWdQyfOYgOBsQRhYUUvFSxsxFCQsNDHmjEm5Py1jXlGNJMoYv+GdSXj+VcG1MRobmoc3SZUwtSfjplYTNRRmHz4XOVDC7jKELEl68lPDmhYTl4zIyTap+3NYsV4bXgFRc71TLM5eMxz4ZAwFyxfu3PSdj9LoE3ysJT5Zk1GdoyhvoH4v9oulv1D6rl+HzqfYPjsOq34bMIWPNJ2OiQNXX1iLB91xCtcZG9rabeLwxgwLNPcVuzgksvdlAT6Za31S9gLWty6gIlGUpbvQvPMGdVx/h3drG/KkOZIXLyT2BGxFIBWMFGHn0CTMdluDvpfiUD965tuA1s5eia24Td7b/gcdbrzA30YL0MPlf8vfEWAZqLlShJIPBVFaCwTGnMusm2gx3Cvx++ANW71p7P1yONk/I1JYR7e8mDZcp5IbLiLVceD09eZHKRboXqd1I5cLvGdXjeZEOLiP8vpAb6X74PXGtrSPOjVJeT5uvvRbnIuXltOessAh9c4079B486oSNzwSnOtEyV41SzUyruaQY/dMFyjORMRuKxxtR3+RA9fE69J2vRWufA8lm9ffNrEko6KtA1/kG9J9xo6E1PQTv4Tpx/SId2j5G+w2Jsizdg0u+5xhwqvqIvO8tTVhSYWmX8f6af+khuUrG7U0JGzMM4zcknHf7B447vuFlCVfbGMpOSHgxJQdBL5ziq9sy+soZiqtlLD+XcGtQHXRrKlNmA1yHJHzQkAUOAoVU+CT0tUt4cU6GZ1WGp1XGVqAcl185JeHNPRntpQzFtTJWnktYbFd1a5iR8faejLYShpJGGTc2VFKh1D8l46cVGY1FDIVuGZfXJSz3qPopeuyGVGTLeOiTcCjdL4M79TfPJUy3MRQWyZi6JWP7IkNSYDknmv58eUXPfrHob9i+ncHlkuHq4UtbMrr4OT8cDOaAfp7bErxjqj2bZiW8OufPFz/Uosmf8Xi+Izju4j5jRfB4/8LF3vRgXvGU3+n75Vvgnv0Va0tTqC0vQV7lEM5s/IG5noxgeb/990YqGDOj9LQPD2+eRnVxIVzuwzi78Scu9maGyBf6hqeMVeHoxj+w8TrsuNSv2Ce8fKRrxtJQdaYCBckMykPdkw2LhvSKOtqHv/ac5+tda+9rzyPVCW+Hl9c7tGW1crXn2jLiXKThcvn98HuRZIlyQk6ka22eyI8k20i+tryQIeRGqxepnFGd3ZQXZXeTatsW5yLlcrTnzGpFSqYdKVXF6D9TjFx+zo9UizLDyElD0Vgj2pqSlN8HYyZk99WhpyctmM9JRc9YAVy5SUjLd6JhugFNNbZg+YyOGvSO5iE7OwmpLgdqT9ajoUol/VwfrU7ac9Hv8Hux/oYYK1aeN2dbv/8lkIQlFRmDMnyzshLLMLgk4dFJGWVuhpNLEi7WBxyNRcaVV34naq6T8fquOvUvSMXtIdVJl01KeHNRvRZAsnbqkQoZAw6Ga14JT27LcNbK8GlIxbE1Cdc6VHnlkxJeX/ATG97+iUdqPr9ungslFZOPJMzXqfXzj0p4N68SI65frDMVJquM1hkJ7x7KKAw4Du7U31+RYQ1cm5tkvN2UUBZw2tH056RCz368P9H0N2pf2N5o+SP7kIxfhL1NMuaeS5jT2IvLqDz3AWtnI8+uFZ18jY2rff43IWVm4SPOttp1nXrp6Td4cL4xJJ/tcabC/5D5E1MBrHJdc8e2sLHQGSJf2CE85Q/ZVGcBnK6wIys5pvrh8vSuoz1owx+y2mtxLtL/n73vbGsj2da9P6e7DiD1iHwIIj3kIJJID8lkY2ODwcbgiMEw9hgbw+AcRHBicJLDePLe9px9977/6b2nJJW6aNQtgWUTvD70U90VVq1a9Xavtyt0izqM1zyex5nFi3LGUM4vn4t84eJEugiFHqK8HMp5RHyoOJFmDCPJK+cR5yLk8uRzIV/E8VCcy3nlOFFGThfnorwcyvmt8lnVIcsLdW6sw2r6w1FTht6RLN8UHYtJgut0DVz5fictRioaqmxB/Cc3V6K72/8SwJgDJSdqUZmvP08T6ivQ07PxJUFuSyh95XSj7lbXjGWi59YnXOxMCOpnlX8vp5mSilDrKnhDd8v0R0qfEiAVKsY8/mFw7sj4NEeQVJSrWH+oIo87SYeKhVcKOgPTJTwvd4ry9ACfwvjwg7rpbc2KVBxKVVFzRMHpFgZWrwYXajKm4uwjXRduO1l+qHTuZMVCTZH+/rWCty/9x7tXm/ULRyp+DpR/71XwZknBwQL9ppLr4/qxZIa2VtW3SErUL2y5WX9r+4nyVvpb1c/r8+lksVCTpam461Vx1MkQU6ZibU2FWxru5OXLz/9iSipiKqZx98U8quMYWPoxzHpvo0GaTkuuPoOpB+/geRUYDfB+2jB94dNv26SiAsNPPmHVK400eD/i8ZWeiEcahI2+ZCg/WEU94sEqQhHPQzlOnPPQeMhlRDmRR04TMuQ4cS6nibLGUOQVobEMjw8VJ/KLdDmPSAsVJ+fn6eEOIUuUE9dCtjEU6ZHmF+XlcqKsSBOhiDfmtbqWyxrzyWniXIRmdVmRCpaQicapChQmM7CsXBw4V4B0MVUppj/K9JGA+LoK9B5MC4xkJKD8VB16Jt3ouSCOumC60D2cfnK6KBNJKEjFdFfit0sqzAy1+0gFw+kVBcdy/DswBhZ1R54zqOID36Hx3H+886o64YgKqVAwkKE7adaoj2gIp2rulDeTDtnJivKX2gPD/mL4X5pT5H0UjlQsDvinEbLTNk4L8LJyfcb+FvWb6x8ZqbDS36p+oY/VSAUnhry/7x72T2+9vsg2EcKysx9w75w75I3MYuswtvYrTlTHIqnnAVbnB5AQGLVhcQ0Y++k3zAw2IDcwGlA/+S7KpOJXnDmwvZGGaEx/CBubheIBKkKRT1yLUMTzUI4T58YwXD45PVRZUZ9IE9eRhLyMfMh1Gc/la7kuubw4t6pblBWhWV4hS4Rm9RvLh5Ir4kQoygjZcrwcJ5+LMmahLCNUHjldnIuQ55fPRXlLUsFsKBh0o7HWDj4K0dWdElx8LUYqai1JRQ2qywLTKmJ6JSF2w7NB1omfhzqErlsJGXOi9w4fqYjuSOJWdPhaeTeMVHwXn+gbifjuu+82GFoo43A4fOkxMTobFGlfO5RHKsaXFAzn+kmFGKngDodPi9wYUJGdxXxH2wUFT0b9JECMVBiH771TOkkQbTIfqVBwRCYVTTKpYAg3fcCnB8T0CNcn1PTHD026PloqQ6G0CJXrx5yRL9QU7RGhlVPn+oTTP9T0h7AfL8/bZ6W/Vf1CR1ap4pXFltL0PgXvF1VM3FNwqUG3lSifM/wTVmd7g1M8Ip6HjMWhduZ33B6vQ8MP/8Dl/owg7ln6MK6+vY+W4MhWDFwTv24mFU6zNRUp6Fz8hO/7xPBrDKqmfset8QpfHf7pj3/iXLM+p2tPzUduemTDo19r+oPbSX7QCvuFijPmFXnMQiFLhCKfLCdUXKj8Ii5cGEpeqDijHDmPSAsVJ9JEKOeRz3m68VqUMYZyPuM5v5YPUVbkE6GIF6EcL8qLNB6GShf5rEIhwyqPMU2U4SEnFZ0WW0q1qlL0HM1HxUgtqgt1QiBIhfX0hxvVxbrvik1wIClRlxGq3bJuxnRjzJbcfQAAIABJREFUmtU1Y5UYefonxtx6/Vb593LaBlKhORJQWVmJiooKxMXpDzveQH7N410uV/DBu5MNl9dUDNxQsNDNYEtWMbfuH6lgcSouPVcxkqs7Gkebgvc3VaQH1gz4FhreUNFZylDAF2o+0RdqcqeYmC4t1HyoopJv4cxgSORbSPl3KrzWpKL8pH+hZrO0UPOKxULNhVVVmv5gKB9X4Q0s9MwrVTHt4WsYDGsqNBVzrxVcamdwBvTjK565/sbpHWN/WTl1Xj6c/uHsF05/q/qFrixXxapXwVhlYOGmtFuD52GpKm7z6aF1FS2a3teifKxrBndf3ES9yXZirWURy/c9uLT+DL3SymwW24jx9T9wZbQVeTmFKG2fwfSjXzaTCq0Lk96fcaa9EOl8i2lGOhyBKZjswTWseGbRUFqIvLozuPLiPU7W+NdsiIWaS3en4S7JR3ZZD8aX/sKlg85dcX8J+/GQO4FQ18Z4kVc4DVFGziefi3QRijQRCnnGdPk60rxyGXEuQjMZIp2Hch4RHypOpIkyxjziWoRyfnHO00S6WSjnDXXO40RZkS6HIs0YijwiXlwbw3Dpcn5jXuO1nJelZaN1sgKlufH+hZqGkQSWkIGGCTe6zxXDKX0bRpCKjqFcy4Wa3cN5cDodSMhKQ+WoGw2BhZxCB1k3fh7qEHm3EsaWTuLW6ztoNHkObUXWbs+7iVRwYpGbm4uioqINDxJ+nZ2dvSFuJxtnb1fwc2D3R3qriudeBe9XVZy/HCAVJSrW1hW4pS16vqmCVyoOOCSne1TFRbGldErfUiqG/8VWRhF+8Co4XRKeVHDb+LaU/u9iUt/HuR4ruGaxpfTJnIqBCX1NhSjfP6X42sG3Si6MMmRI7fHlYQyFPSqWnin42auA6yemgj6HVIj6D5roHyQtJvYT5a30j4hUMIamswrWX/i3l/LFuVy2OLgehxcVvLms+natiHgR8rnM9vnfcPfKYTjtm0kHi+/FtPcTHnvObPpoWYp7AjPLv2Dp5QfMXzmGlvEXm0kFi0Nu7yIW1v6BR28/4fHbn3Awx18Ps+WhaWIJN3/6A54nz3D2cOWG70AwRzEOTD/GnRf/gGftOabHWjdtGRbt2MnQ+KCVdZHTeLzxWsTJ8fK5lSxRVs4jn8ty5HORJ5I4Yx7j9VZkyXmFHGPI84g4kV/E8Xg5TT6X88jlzOJFWRGGKiPKipDnlQ9jGfnaTK6cR8g1xlnFM2ZD5oFydEy4fbp0dem7s3g5PrqYf7QO3f2pG6Y6BamorUtD5XANuvmW0u50JEhrrJg9Hvnd5Thwzo2u0y7UtaRAMzxP5XbJ56INoeJEmlkYm9KI4w9/x/Xj5Rt0Nsu/1+NDkgpOLIqKi4MkgpMJI8nY6Yb7vrmwpqIlwPxsSQzJGoMjlSElxBurUV/hFMX0gzGdrnXHHcoWu8V+nPzx6S95wa1RX/49iO65d/A8XkZP0WZiYcxP1xv7XjxIRWi0jxwvn4t8243j5UKVFXJFaJVHTpPPeVnjtVmcHM/LmB1CHzkUeeU4IS9U/SKfWZocb5Qt0kRoJkuUk/PJ50I/UV4OQ5WV0+Vzo0w5jZ+HSzfm59eMxaP0pBu1ZRunLQSpqCn9vOkFoZPczlDnoXQLFZfSMovF9d9wdbwBSQYCEyr/fogzJRXxCUmoqHAhJycn5HTITjeeO7X2ywpe3FDRVakiJ5MhXvpwVTj9hFO0ckbhZHzL6bvFfqxQxZPXKjrDDCvyh05qeTdcgVGEb7nvqO0bSRPZY+/Yg2XkoG2yBNmGUUdBKuSFmruhX5PK2+HKTgguKN0NOn1pHUxJBR+tSE79b9/CTL5A80srsh35zM7QcUrB8lMFfGfHYFbkb6G7xSlup927ocxusV/RcQXvrqkh/1mxG+xEOuwdh0V9tfv7KqnJhZ7D6ZsWXu9WUvEtYsqSVHBisVu2kH6LnUNt3v0POeoj6iPCAGGAMKBjgEiFtOiPgKEDg2xBtiAMEAYIA4SBrWKASAWRil05tbVVIFN+evgRBggDhIGdxwCRCiIVRCoIA4QBwgBhgDAQFQwQqSAgRQVI9Iaw828I1AfUB4QBwsBOY4BIBZEKIhWEAcIAYYAwQBiICgaIVBCQogKknWbHVD+9oREGCAOEgZ3HgCWp+O/0DFRXVyMxcf//rpXAuPNgpD6gPiAMEAYIA3sbA6akIvW/030/F0tP94cJCZH9PZEAEV1A8I9MlR1RcfOCiozAb7l3wsZxGY04OPUAA9WRf2AsGnry9qfUlaChKw3aNtr/ueWj0Yb9KsPZN4cLY33Ijf+6mNiv9qR2RffZSfbcGXuGJBUpqWk+QiGIBA/530vF9W7pLJagYmAq8MOuZwruTTOUJfofcKxWhdfr/wmV+BkYD/kPt/qSwj8Ew30x0j2hy/7gVXFA+mNeJPbh8gcWdRlCxw8PVORIzpPna5xQ8fyWigIpPlwd29HP7AdfWslJzK69xfSJXuRJtmP2dLinqlDmZLBXlqJ3NDvqX7bkf/PM7KxCx1AWkrbQfmEfs/IZnbXBfzj0TpUgewufeBeyv0bIfwXdZfEr6C+pQ7j+tTkb0DvzEx6uXENt6uf9c+FLtoNk74xzIbt/m3bfRCqSU1NDEojdRiy4s+2cVbC+oKK9XEVePkPbqIJnswzJ/NfmdoaMwK/AB+YUrIypvt+W81+XOyL4sUs4UmFPCshzqVj5DFJx47D/d+pcL9+RyhC7DedpvIG3o18oUsHs1Tj+6Ddc7M7a9P16FpvmIxWlmQxxFSXoPZ694S+cRp1203WswwZHkh2OnFy0EqkIua4mkv5lLBGuC1545g767rvd1Meky7fp1Kjfd7bfN5AKR0KS77PcZiMSPJ5/tjsmZuffSlieitU1BY0OfdSBE4FRj4KB9I1xB35Q4Dm68ZfZHHi+kY4ZBc9+UuB9qmJhTP+1eJBU8F9731HhXVdwd0JFtvQrXZ+MLBUeE1LBNBV9FxQ8W1fw5pmC+RE1+GtrLp+PVMx36Loabwbu5IMjGPfUTb/mtpIvZPl+926mX7KKsTkFL58rWJ1Vcejcxl+vcxla849YXplAXggixlgKqi5UoCiFIaakCL1DzuAURfBb/PXpqBypQRf/FXFXOuIl+6W2VaGjOwsFhyvRfb4GbQO5SJeG0nm6+ENg70jWBsLCkp1onipDnvQjsZicPHTwt/qArlblg/ZJyUKLCalgNgfyusrQft6N7jMuuJuSg+3j5ZktAYUHXeg4V4vWQ07kH6hCx4GkoIMOV17oECpk+QXomqoLtj9oh0En7Jw0JzrROFWJ4jQdP7FFheg+nedrfyT2D6efVf/KOrPkAVzyPkWPU9dFTqfznX3Ik/3J/l8TAxtIRST/+tgt/wKJa1Hx/irzPeTjK1TcXFWwMsFw7LqC8y794caddyhSwePdFxQ8v6aisYQhv0zFpSUF1w/4ywpSsX5DRWcpQ2G1ioWnCha7ddm8o8ycNi9fPq7i5YKKugKGfJeKy0s6ieDp4UiFLdE/epHTr+CDgVSEky9AZKWfe0LF2zsqmosYiupUXF/ZTCoKRl9hebo16CiFXF/bWRIqzpQhL57B5wQHMhAXGGURTq1jKA85WQ4k5TrhPu1GfZU9KIs7/e7TZSgrSUBiRjJKh2rR0Z0SlBGj2X2jCfE1pdhEKpgDJSfccFfEBeWltFShqys5OKJiVV60g5mQCsZikNJahc4j2cjIcCAxJx3VJ2uD9XH7JzVVoudEAbKd8UguzkX9eE2QVIQrL+o3C5nNhoRUDQkVheg+U4gsfs6PxDhf+7h9C4bq0Fzv/9kfry+jqwYdHUnB9MJjdTCzfyT6MYv+lfVmrBADno8427TzLxuyXnROzpQw8PUxsGdJRUqvCu+kCv5w751T8PCkihIXw8k5BRdrdcfP00ORilBgKx9X8OKcf0SDlxu8reBmny6rZFSBd0q/5jKsnPboQwXTNXr+3EEF76Z1+ZxU/PxKwduX+nHviJ5f6GhrC00qrOSLslb6nXio4Gqrvz7e3oapzaSi/NwH3DtbE3TcQm64UJCKhipbsGxycyW6u1OC15xU9BxM00lAYSG6x3M3DaPHlhVvIhW8fi6vpz/VN13EmIbi47WoLo4Nyhc6mpXn6eakgpOWWlTm6/2RUF+Bnh6//sKp1wfax5101kG3RCqsywvdwoVWayocNWVBu7CYJLhO18CV73fs4ezPfKTMvH3h9JLTGctEz61PuNhJi7llu9D513doZPOdt7kpqeAjEsaDd9huGalI6VMCpELFmEfF8TzmIxhHbkZOKlKqVMzfV/D6hd+pv3vtl8nbKUjFtTbdqWQfUfDhBzX4Ju3LZzL9wZiKs48UvH+tE4Z3r/TyXD4nFXeHVOTk6EemtBBS3CChSYW1fFHWnFT4y8sELNSaivLzv3wWqagt099e4+sq0CuRCE4qujqTgySAORKQVZqwYYqBt8OMFLDsPHScK0JmbGA64EIJskIsmDUr7+s/05GKBJSfqkPPpBs9F8RRF9SfO+XSUTeqi3R88PaI6Q/GrMuL/gkXWpEKlpCJxqkKFCYzsKxcHDhXgPTA1I8gFWb2j5Z+PhsGSMV0F209D9eflL7zTo/64Mv2gSmpMDP87iMVDKdXFBzL8ZMK7qhlR8mdd6iRChbHcHFNweJRhsKAU2+7EH1ScaldJww+8hCYAxekYrFHd0pmNrciFWbyhazPJRVlZz/g3jl30PELueHCcE6NlzeSCjOZZqSAv51XnqlBRW6Mb/dJz0AGbCEWuZqV5/WZj1RwUlCD6rLAtIOYfkjwj4QwFo/Sk+FIhXl5s7Ya4y1JBbOhYNCNxlq7b9SmqzslOOoTzv5+UvH5+vlsyJzovcNHKuK3jBNje+n6yz7wyb5k3y+NgX1AKlSMLykYzt3aSAVLZ7jvVdAVWOjJnXzt+c2kIuz0hzP0Qk0uj09P/NCkkwYtlaEwsIj080mFtXwBHBZGv3DTHznDP2F1tjeksxZ1hAqFUws3/SGPVISSw+PMSAG3obOnFgdaknxTDw3V+noNWZZZeZ6HJWehOcRCTf/0gBvVxfpIS2yCA0mJglTYwdcs1JWL6xhkdtdKIxX+NR9m5WX9rM45qei02FKqVZWi52g+KkZqUV2oT/2Es3+49lnpZExjrBIjT//EmFu3lTEPXZMzIwx8GxjYu6RCWlMxcEPBQjeDLVnF3HqEIxWxDDNrCu6cYCjKYahsV7GwsplUvLgVZqGmpmLutYJL7QzOwLZQvsOBOzy+UNN7R0VLMUNeqYppD1+jsXFNhdlIBS+fmC4t1HyoojIgP9EWXr64gfkOETP9jAs1F1ZVvJ7QSRCXEeuawd0XN1Ev7bIQsq1C4dQ6hnItF2qakQq+RsGWKC3UPJGHNL4FNMkOm7SDJK6kCN0jpag/558GEDpFWp7ZUlE7yd/YHf4tpkk2xMVw+/oXanYP58HpdCAhKw2Vo240BBaa8vTU9mp0D2UjWYtBbFomasdlUmFdXugZLmRp2WidrEBpbrx/oWZgpESUYwkZaJhwo/tcMZzS1E84+4drn5AfSRhbOolbr++gcYsYiUQ25fk2HBH18/7p55CkwriWwni9GwBgb1fwc2D3R3qriudeBe9XVZy/HBmp4G1Ir1Wx6FHgfa5g6bKKrjH/4k+exp06X6h5fUjF9/cU35bSexdU5EgOTeQr7FGx9EzBz17F93EtPhXjS3Oo6J9SsLbOt6wqWBjduGWVT9WYkwr/mgexpVSE/ONdp0vCy+f1h9VP2lL6ZE7FwMTmhZp8EV77/G+4e+UwnPaNhEPUESoUTq22Lg2VwzXo5ltKu9ORINnPavpDzPmLrZQi7A18bEvUyT/QVDdZh94TOUiQpj4iLs93cVQWoeWMG71TdeidcqEoNWBfezzyu8tx4JwbXaddqGtJgSZtrWUJKag8Uesr132yAGU91cGRCp/tw5QXbbAKGbMh80A5Oibcvu2lfHeLnJ+xOOQfrUN3f+rGtT7MP5JiZX8WBf1iUxpx/OHvuH68fEP9so50vn8cBvUl9WU4DGwiFXxbqXzsljUUxoawHBXLaypaAm9HtiSGZI3BkcqQokXu/Ixy6XrzTcO0YnTPvYPn8TJ6pIWJVrYSpKKmdH8PifM3fnuiDbGxDKntNehoj2yxInPmoC24AFQsBOVhEZwScbGyMU8Taztqy/SpD3+8n1R8SfuntMxicf03XB1vQNIWdA7XJkrffA+STcgmewUDe5dUMIb2ywpe3FDRVakiJ5Mhfpd+anmvgMFKT04SUsu74QqMwljl5WmCVMi7D8KV2WvpnFCIKRpHahLKhvXpkXBtYXE2xIvFnxtC+5a+qMoyctA2WYJswyjS17B/Unk7XNkJwcWh4dpM6eQYCQP7HwN7llRwcPJPcXecUrD8VME7r4rBLBqh2C037ddwajvdVv6J6orT/q9e9kxUo+VgJpK+MrFNanKh53D6poW034L9d7r/qf797yCpj7fex3uaVFCHb73DyWZkM8IAYYAwQBj4UhggUhFY0PilDExy6eYlDBAGCAOEgW8FA0QqiFRs2E3wrQCf2kkPecIAYYAwEH0M/J/vvvsOVgff/WGVTmnW9iP7kH0IA4QBwgBh4FvBAJGKMKTqWwECtZMeeoQBwgBhgDDwuRggUkGkgkaiCAOEAcIAYYAwEBUMEKkgIEUFSJ/Lbqk8vSERBggDhIG9jwEiFUQqiFQQBggDhAHCAGEgKhj45kmFpmmoq9LwuEVDvqZFxaj7iW1rWgLKh+7h8sxBZO1B+2haPIqrZnC2uRWZ29D/c8vvJyxQW/b+WyT1IfXhl8YAkQpNQ1ezhj/6NFRsw+mE6yAtV8PHoxoavoTspAp0Tj/C7Rd/YWntJS6d60FO/EZipNVdgWft0rbbpmnJqJ/y4v6dcRR+gTaEs9/npmtaEqoab2O25zDytqG/WXlXkwc3Rp76jsXhGdQZ7P65eocrr+Wfwvzwk6AOui4/oDlpIwbCyaJ0cjSEAcJAtDDwzZOKaBnSTM6XIhWa5kD5aS+W7s6gwVWCgupDOLP8J64NFm8YbflcUmHWrm89PjEpC5mp2cjMGcbMTpCKhDR//ak5aOt8ghl3deA6E0kOIhXfOj6p/UQSdgoDe5ZU8GmLM30aHlZr+LFfw9/HNPzUoqFEeqA2NGj4q0XDeKeGj8Ma3nVpaEvRH7g8/f+d+M53/KdfQ7H0JqulaXh5XMMJKX98roY/BzU0B+rQEjWMt2r4dUjD30c1LNdrwbdhLV/D38d1+cF6ejRkB+rR4jUMt2j49ZiGvwc1eNx6WjhAaFoWem5+wvcH04MkIrN5AmeOuOHQNGgNV7H09hOevPt7w/H45vHgNEDFuXd4MDOGg/NeeF79ihs/TqHGqduHp4vyjx+cQq5sHy0fh+59wsWRAZx98AuWXrzD1Yt9G0ZKtJRq9M8+x4OXv+HG3HH0TL7Dg8mmoL5WbdS0bHT0PsFYdTuG+h5gfvA+LjS1I1vq35L6u7jWfAgHOm7h+pAH33cOo0LqL54efIPvG9gwfaOl9mNqeBatyXp7HbkncfXIOMoCdViVF7praYdw0YRUaPFFaG6+hsuDq5g/sojxWjfSZBsmluJA2yKuDnowc6APbY13ca2xOmifcOW5Dpxc1rU/wcWqvGA5X3xqHy4M30BPht6+xMLzmB8Y890jkdg3ovqTNNw4ouFjj4YSqW3CPhSScyMMfFsY2POk4q8+DQPZGlx5GjxHNTwq1x+inDRwZ32pWEOFU8N0r4a/WjUkBx5+iYka8lM1lLg0bCIVmobJQxqWynR5NfUaPrZoiOdOW9NwoFnDn50aurI1lOdouDGgwVPqz88JQ0m6htJSDR8HNRzi5/xI1cvXN2j4R7eGDqeGihwNt6Ty4W5EPtfvnv4VD2YPIUNytKKclpSNvMJi5PUswvPTAlr4OT9yMnz683ycNCyvrWDkQDUKy9oxdPt3PJjpQFLAPglpucjKyUfewEOYkYr7t2fQVlWGovpTuLT+F6a7M33OjTu74rGXWF2eQ1tlBUrbp/H9k1+3TCqu9pxAQ3Yh8vP6MDawijPlzqDz5E5//sgsDhWVIi/TjYPdS7jWUo9EoX+i0/f2nl1xCYtGUqEVoLf/EcZL04LyCutuY67JT8q4fRIsygftbEIqeP+U1N/Gtc4jqMzMR15OB0YOL2OsJCNon4LaG/ix/wzqs4pQWDSC0wOeIKkIVz5Yvxmp0Jw40PMYF6sLgvVVNnlwtbE6gF8/aTOzb8T1p2h4MqLh3wMaaohUBLEk+ofCb8uhUn9/hz1PKp66dKdfW6fh71b9mpOKfx/Qgk4mvlDD/wxoqDU8/JJKNpMKDg4u71/tGlICJOLCIQ23inT5RgBxkvBX08Z0s+kPTkqmDmtYyNfzl1Zr+Febfm2Ub7x25B7E5ON/wrPswenRAbiyEzc91KymPzipWL3aj4SAPeKbr2P58TRKDfZJ7LptSiquDGQH66ye/BX3L/hHIjQtBwdvf8KlfkEyEtF85Z9bJhXnKvxOmLe90H0L8y31wfo4qfixvVXXv+AsFg6PbFr7kVB8cROpEPIW2lp8+NC0PPQcXMZIYVJQvrC3WXmebjZSoflIyzIGpf7NqV7Aj60NPvmaz+k/wZly/0gTXxDrbluVSAUnPeblhW5mIxU8PbNiNthuzVGFo0c8OJrnCNTvJxVm9g2nv6ifh8nJGnITI8etXJbOyekSBvYXBvY8qXhQoj/Miqs0/OeAfySAA5WTio/NerqWrKG/ePMUgxmpcORo+P2Yhk6HBi1Vw/qIhsPSwzM7V4OnX8PHYxr+NazhXyMa/m7R6+M6WJGKH45o+PdIoGygvKx/JDeblpgHV/dpjM2/xNLLZxioSN7gFMORCs/F1mB+LbMazR1uZGyBVEx16U64jK/xmG4POK0KDK18xDmJ5PmmW7Y4/XGyWCdKWVXXsdje6pve4bbhpGKuqVbXP7kU7uLyDVMMPJ8ZKXBkj+LK4HlU8v5N6cOFYzOok/pX2N+sPE83JxVlODzwBD8eW8XCkP/48djjoP6aVoSDhx5huFDHC2+PmP7QNOvyQjcrUqGl9OD88DwOpGpwZB/HlaNn4BJTd4HpJTP7Rlq/0IPC/eUYqD+pP7eLgW+KVJgZyYxUaA4N84Ma5v53LYWzXMP/7daCDpen/TikYbVaQ2WGf2qjv2XrpOJGaWBaREyPSGsCzPQNFc93KVSce4WV64d9Iysiz1ZIhShjDK1GKqxIxbHVr0sqjHqLazNSoDmqMcjf3nPjkVp2CT92dm6wXbjyPN2aVHgwXJKH7HTpSEkJkK5ISIV5eaGbJanQMtDW/RgTldm+UZ65lvrg1JdYU2FNKsLXL/SgkJwQYYAwwDGw50mFcfrjkzRSYBypMAO9KanQNHS3avilXsPhAxqeVuhvlXzk4qfjGo4G3mz5dEZbUwhSkafhnyG2lIrpj9vSdEpKsgZXql6Hmb48XnO40X/1Clpy9fw+5//wTHCxqC9f3Q94aLKllI8cyCMVZvVtj1T4F3LO9KYGnKgD9TN/fv70R/PG6Q95pMJMf1NSocWjusWDy3XVqGtbxbkKfb2GLMusvM++aYcwFWKhpn/64DGOFyUER1ISk/ORnypIhX/6YbxUXDtQ1bIsjVTw6Q/z8kI/K1LB82RUXMGP3aMY6Ns4tSNIxabpj4B9w+kv6qeQHAlhgDAgY2DPk4o/ejUcydZQwRdqHtm8UFOe/pAbzp16Roq0UPOQhsZU/3WG9M2B5GIN/9Ov4cmQhlNpugMXIxVrdf6RioZSDcsDIUhFhoY3Ixpm8vwjEiWB3Qa8fr4G49NBDb1ZGsqyNSwe1iCTJFlf4zlfs9C1+CfuXBtFbVkJCip7MXr/T9y90BR8G+VltOKzWHzzFMfqKvwLNZ369IgVqdC0RKRm5+sLNZcuwpXDr3ORmsgXqvpJg/lIRTyqJn7G8u2zKE1LQHLJMCaf/LFlUjHbfdy3UDPPZKGmGangaxRSUrL1hZr9IyjlW0BTnUiR+jexaBILfT/g7FH/NIGwc6TltfgWjB27j5GSQjh98jORzKdTAgs153tHUZOVj9zsVgwdWsG5Cv8aFJ5e1nAfC91HUJiUgKSMHpwYkEmFf6GnWXldz9C7P4Lpyd04N7SChcFJ1CRI+A1Mf5jZN5z+QfmahpF2DS/bNk8rijwUktMhDHw7GNjzpOIB31J6UMOnYxrWWzSUSjshrEYquFPnaxrEVk8R/ue4hu+zpYdvogbPiIb/HNJQZlhrkFugYfWwv+7X7RqO1ocgFZqGnib/2gxeh7zmQkvQMCJvKa3XkC/pH+5GdGS34OjsGu6s/4WV517Mzgyh2DB9wt9IGy48wb1XH33bQ8WaBy7bmlTU4MTTEFtS377DcGV4UsHla1kdOL30Jx6/+Yjl1WsYvvTzlknFyao2fUtp8+Ytpeakwr8mQWwpFeHi8F30Z8n9247xY0+w2D9o2DIbYXktHvllk5g+sorF4SdYHF5EV7pfvpZQhJbmOfwgtpTW1SNT6l8tpR5D/ctYHH6M+UOn0d9yPzhS4bNfmPK+PCa7P3iaPz0DbV1PMB9YkKrH+0dKrOwbTn+f/AT//fGyWrepqIPCb8eRUF9TXwsM7HlScV9aqCkaReHuAbjmSERadhaS4zVUnv8Z9877dz+E6yMxPD9arE8fhCuzF9P5iEhqSobvg1WlDfcx21AZnC6JRns0rRj9h1Zxstg/zSJkRsu+fCHyX8c1nIpw2k7UT+HuuUepL6gvoomBPU8q5N0f0TQMyfr8G02eQskubMKx+//E5cM5ETlN4fTkhYT7rU/kKRZnejX6+1ZxVvoORzTaqzmHcOnYDBoMu1qiZd/iag3/6dU2jPJEQ2+S8fn3H9mQbLgTGCBSQX+mi8jJbwecmlaH0TX/FMqN+gTiAAAgAElEQVSj179gYXYYxRH+lyJaTm87en+tMprmwsCA//8di0MPcbG9B/nSuodo6ME/sLXY0bFpV0s07MunEPkC5ifSt2KioTPJIGdIGNi7GNizpIJAt3dBR31HfUcYIAwQBvYnBohU0EjFFxupoIfG/nxoUL9SvxIGCANmGCBSQaSCSAVhgDBAGCAMEAaigoH/ozkSYHXU1NTgv/7rv+ggGxAGCAOEAcIAYYAwYIkBIhUEEEuAEKEkQk0YIAwQBggDkWKASAWRCiIVhAHCAGGAMEAYiAoGiFQQkKICpEhZLOWjNx7CAGGAMLB/MUCkgkgFkQrCAGGAMEAYIAxEBQNEKghIUQESvXns3zcP6lvqW8IAYSBSDBCpIFJBpIIwQBggDBAGCANRwQCRCgJSVIAUKYulfPTGQxggDBAG9i8GiFQQqSBSQRggDBAGCAOEgahggEgFASkqQKI3j/375kF9S31LGCAMRIoBIhVEKohUEAYIA4QBwgBhICoYIFJBQIoKkCJlsZSP3ngIA4QBwsD+xQCRCiIVRCoIA4QBwgBhgDAQFQwQqSAgRQVI9Oaxf988qG+pbwkDhIFIMUCkgkgFkQrCAGGAMEAYIAxEBQNEKghIUQFSpCyW8tEbD2GAMEAY2L8YIFJBpIJIBWGAMEAYIAwQBqKCASIVBKSoAInePPbvmwf1LfUtYYAwECkGiFQQqSBSQRggDBAGCAOEgahggEgFASkqQIqUxVI+euMhDBAGCAP7FwNEKohUEKkgDBAGCAOEAcJAVDBApIKAFBUg0ZvH/n3zoL6lviUMEAYixQCRCiIVRCoIA4QBwgBhgDAQFQwQqSAgRQVIkbJYykdvPIQBwgBhYP9igEgFkQoiFYQBwgBhgDBAGIgKBohUEJCiAiR689i/bx7Ut9S3hAHCQKQYIFJBpIJIBWGAMEAYIAwQBqKCASIVYYDEGEPZERU3L6jIYCwqRo+U8VG+6L0dxGU04uDUAwxUUx9uBVd9F+sRyWGUyctEEmfMw6/NyhrjI9HLWEbUZxYv0q3CzynL5Tr75nBhrA+58YRFKztTWvSef1/TlnuaVLAEFQNTKp6uKfA+U3BvmqEsceONymwqZl8q+HCXIWsbpICTisYJFc9vqSiQyrM4hmuvFXi/Z9AYA893yqPg/T0V2VK+rXRmxbiC1xMb9Tcr755Q8Msb1Xd88Ko4YNtYjuszeFvP825dgeeKgtq0jfnM5O+WeFal4vVTFRXbtClvh1ZyErNrbzF9ohd5SdFpf+Xkb3jy7m/f8fjtHTQa7L9b7GelB7Onwz1VhTIng72yFL2j2Ug02DkSBxoqT6RxQj+eXxxWcSKNh6HqkNONeYR8uZwcJ86NMkJdyzKM6eHsanM2oHfmJzxcuYba1JhN5Msoj673pnP9VvttE6moqalBuGM3GIs7zc5ZBesLKtrLVeTlM7SNKng2y5AsPRiZS8XzByo8rxR0JUTHofD2+0jFqgLPqoImGwPLU7F0R4XnK5EKe5KKzAyGTJeKFQtSsdjvz5edzzA0p+LNwt4acflcUsHs1Tj+6Ddc7M5CjISLz8WwLSkTaRlZSHNN4Me9Sipi03ykojSTIa6iBL3HsxFvsJFwtOFCoz1lpyvORWjMy69DpYWKk8vy9EgOuYyxLmMdxmtRdiv1sAjsylgiXBe88Mwd3PC8EvVRSERir2IgJKmwagwnHFbpXyuNO/HVNQWNDp0ocKIx6lEwkK7H5Q0pWD+j4shNBTN1erx4k58bZJi5q8K7ruD+JENOnJ6HjxwERwMMZMFHKtZVTFxUMONmyD6i4OZpFUtSPuZQcfCCfyTl9WMFV4dUpEgPbZasYmxOwcvnClZnVRw6t3Gkgmkq+i4oeLau4M0zBfMjKlJjdP24rVmWCo8FqbjWpudnOSqWvSp6AuSKt+/FlIoj1xR4nyt4NKeiNkXKb6F/JPYLp79V/axWhder2z/YD4t+G7J0Ffe8Ko7n6fraGxV4nyqolGykNf+I5ZUJ5ElxPrs5j2PuzQo6UvXyMZUzuLd2GWWBvCzBhe6ZR7j1/E941l5gerwVaUY5WSdwPQSpYCwPhx9+wkRrXPB+KRz3wjPVHLxmWjHap1Zx68U/sLz2HFPHG5FskP8l7yfGUlB1oQJFKQwxJUXoHXL6Rt3kOkM52VBxooxIE06Yx4tzORT5RSjKiWtRTr42nm+njFGuUYbxWtRpFh8qPRK78nIseQCXvE/R49QxKORRSKRir2Jgz5KKuBYV76/6px7iK1TcXFWwMsFw7LqC8y7/Tcod38F5BVeaGUpOKHg2puoP9MD0wPObKrpKGQorVcw/VXCjV7/BbYnMNxqQ06/gg0QWfA8EPv3hVdDVouDZORUDiyoGmlSsBfLxusvHFLy5o6KlmKGwWsXCUwWzLbpu7gkVb++oaC5iKKpTcX1FJxW+8uMqXi6oqCtgyHepuLykYL5D18+nx1ZIRYaKB14F/cl+Gdypv3mq4HQzQ36BirEbKl5cZHAEpnPC6c+nV8zsF4n+lvVrDDk5KnI6+NSWinZ+zo90htiAfgM3FXiGdHvWTyp4fs6fLm7IgtFXWJ5uDfa7iGesAAOej7jYmRxMKxzzO32//Di4Jn/BvbkxVJcWIbu8D2dWfsdUR0owv9/+2yMVjMWi+JQXD348hcrCfOS4DuHsyh+42Jm6Qb7Q1xgyVoHBlX9g5bXhuNTts48xf6hrxpJQcaYMefEMLL8AXQMZiJNILy8jnCkPzQ5ZtpxfxIeKE2kiNMrm8cY4IUcuY5ZPlBV5Q+ULFWesQ5Q3iw+VHoldeTnGCn0YPNtEUyDCjhTufTK1Z0lFSq8K76TqW8vQO6fg4UkVJS6Gk3MKLtYGHE2cih+e+51obI2K17f1oX/u9LhTvNmnO+mSUQVvLurXAuC2NjNSoaInneGqR8Gjmyqc1Sq8EqkYvqfgaqsur3RUwesLfmLD6z/xUE/n1w1TG0nF6EMF0zV6+dxBBe+mdWLkezBFSCpibCqaJhS8e6AiP+A4uFN//4MKW+A6tl7F21UFJQGnHU5/K/vx9oTT36p+YXur6Y+MfhU/C3vHqJh6qmBKsheXUX7uA+6dDT26VnDyNVaudMHuay8fWfgTZ5s0U6defOoN7p+v25DOtjlS4Xcof2AsgFWua9bQGlZm2jbIF3YwhozZkejMgzPHcKTFR1TeKM/sWjhTEfJ8ZudymsgjQjktVF2h8oWKk8uKdBEa65DjQ5Uz5g91LcqZyYo0XeSTQ8Yy0XPrEy52JkS1z+Q66HzvO+m91oempCLUugreuN0y/ZHSpwRIhYoxj38YnDsyPs0RJBXlKtYfqsjjTsOhYuGVgs7AdAnPy52iPD3ApzA+/KBueluzIhWHUlXUHFFwuoWB1avBhZqMqTj7SNeF206WHyqdO1mxUFOkv3+t4O1L//Hu1Wb9wk1//Bwo/96r4M2SgoMFOkmR6+P6sWSGtlYVqT4nG05/a/tFor9V/eJGsiIVLE3FXa+Ko06GmDIVa2sq3LF6+7iM8vO/mJKKmIpp3H0xj+o4BpZ+DLPe22iQptOSq89g6sE7eF4FRgO8nzZMX/hstm1SUYHhJ5+w6pVGGrwf8fhKT8QjDcJGXzIUzpSHZodcv5xfjufnIs0Yb0wT+URoTBflRToPzQ6RV4RyvlByhUyRX4RyObNzkTfSUJCK6a5EIhVhduFFalPKt/MkypRUmHXO7iMVDKdXFBzL8e/AGFjUHXnOoIoPfIfGc//xzqvqhCMqpELBQIbuxFijPqIhnKogONye2yEVl9oDw/5i+N+weyMcqVgc8E8jZKdtnBbg+hidutzn4fWPjFRY6W9Vv9DFklQwBt7fdw/7p7deX2SbCGHZ2Q+4d84d8qHNYuswtvYrTlTHIqnnAVbnB5AQGLVhcQ0Y++k3zAw2IDcwGlA/+S7KpOJXnDmwvZGGaEx/CBtbhaGcbKg4oww5TygnHCq/nI+nG2WEKhNJnJxH1CHki2s5lPOLc1kXESeH4dLlvOKcMSd67/CRiuiOLgn5FO68g/0W+2ADqfguPtE3EvHdd9+FfAg7HA5fekzMzs8ByiMV40sKhnP9pEKMVPCRCD4tcmNARXYW8x1tFxQ8GfWTADFSYZz+8E7pJEEAwnykQsERmVQ0yaSCIdz0AZ8eENMjXJ9Q0x8/NOn6aKkMhdIiVK4fc0a+UFO0R4RWTp3rE07/UNMfwn68PG+flf5W9QsdWaWKVxZbStP7FLxfVDFxT8GlBt1WonzO8E9Yne0NTvGIeB4yFofamd9xe7wODT/8A5f7M4K4Z+nDuPr2PlqCI1sxcE38uplUOM3WVKSgc/ETvu/zr8FgLAZVU7/j1niFrw7/9Mc/ca5ZX8hpT81HbnpkQ+Ffc/pDdrhm57Jd+XkoJxsqTpST08S5CK3k8TzhDmMdVnLlNFHOrH45fTvnjFVi5OmfGHPv/PN0O/pTGSItoTCwgVRojgRUVlaioqICcXH6w44X5Nc83uVyBR+8oQR+rTh5TcXADQUL3Qy2ZBVz6/6RChan4tJzFSO5uqNxtCl4f1NFemDNAHeKz2+o6CxlKOALNZ/oCzW5U0xMlxZqPlRRybdwZjAk8i2kgYWaVqSi/KR/oWaztFDzisVCzYVVVZr+YCgfV+ENLPTMK1Ux7eFrQAxrKjQVc68VXGpncAb0i4/1Eyzj9I6xb6ycOm9/OP3D2S+c/lb1C11ZropVr4KxysDCTWm3Bs/DUlXc5tND6ypaNL2vRflY1wzuvriJepPtxFrLIpbve3Bp/Rl6pVX4LLYR4+t/4MpoK/JyClHaPoPpR79sJhVaFya9P+NMeyHS+RbTjHQ4AlMw2YNrWPHMoqG0EHl1Z3DlxXucrPGv2RALNZfuTsNdko/ssh6ML/2FSwedu+L+EvYTDltc81A4XmMYKk+4OJEuZIlrHspx8rnIw+OM8eLaGIoy4eSKcmb55fjPPY8tncSt13fQaILNz5VP5cnp7wQGNpEKTixyc3NRVFS04eHGr7OzszfE7YTCok57u4KfA7s/0ltVPPcqeL+q4vzlAKkoUbG2rsAtbdHzTRW8UnHAITndoyouii2lU/qWUjH8L7YyivCDV8HpkvCkguvp21L6v4tJfR/neqzgmsWW0idzKgYm9DUVonz/lOJrB98quTDKkCG1x5eHMRT2qFh6puBnrwKun5gK+hxSIeo/aKI/Jx0++Sb2E+Wt9I+IVDCGprMK1l/4t5fyxblctji4HocXFby5rPp2rYh4EfJ56/b533D3ymE47ZtJB4vvxbT3Ex57zmz6aFmKewIzy79g6eUHzF85hpbxF5tJBYtDbu8iFtb+gUdvP+Hx259wMMdfD7PloWliCTd/+gOeJ89w9nDlhu9AMEcxDkw/xp0X/4Bn7Tmmx1o3bRkW7dipkDtZ4WjFuRxyvUS6rGOkcaKMMX+4a1GvyMdD4yHyiDpEKMqESpfTQuUXcZ8bxqY04vjD33H9ePmmKbvPlU3l9ecD2eLr2yIkqeDEoqi4OEgiOJkwkoyd7izfNxfWVLQEWL4tiSFZY3CkMqSEeGM16iucoph+MKbTtTUYd4v9OPnj01/ygltj3/HvQXTPvYPn8TJ6ijYTC2N+uvb3vXCwIgxlF54WKl3EifRQoZAn8ppd83izPMZ4IUOUCZUu4nhodgg5Iq+4jkaY0jKLxfXfcHW8AUmGl4RoyCcZ1s8uss+XtY8pqYhPSEJFhQs5OTkhp0N2umO4U2u/rODFDRVdlSpyMhnipQ9XhdNPOEUrZxROxrecvlvsxwpVPHmtojPMEDJfg5Ba3g1XYBThW+47avuXfaiGs29SeTtc2QlR/cJruDopfWf7/Fuyvymp4KMVyan/7VuYyRdo7kajMDtDxykFy08V8J0dg1mRv4XuFqe4G+0aiU67xX5FxxW8u6Zu+mdFJG2gPPSgJQwQBggD0cWAJangxGK3bCGljo9ux5M9yZ6EAcIAYYAwEG0MEKmQFv1F27gkj25YwgBhgDBAGPiWMECkgkjFrpza+pZuQmorOR3CAGFgv2CASAWRCiIVhAHCAGGAMEAYiAoGiFQQkKICpP3Csqkd9MZIGCAMEAa2jwEiFUQqiFQQBggDhAHCAGEgKhggUkFAigqQiNlvn9mT7ch2hAHCwH7BgCWp+O/0DFRXVyMxkX7Nu186nNpBDy/CAGGAMEAY+FIYMCUVqf+d7vu5WHq6P0xIiOzviV9K0W9VLv/IVNkRFTcvqMgI/JZ7J2wRl9GIg1MPMFAd+QfGdkLPr1mns28OF8b6kBtPNvmadqe6yCESBnYvBkKSipTUNB+hEESCh/zvpeJ6t3QoS1AxMBX4YdczBfemGcoS/Q94VqvC6/X/hEr8DIyH/IdbfUnhnUC4L0a6J3TZH7wqDtjCy5TtxuUPLOoyhI4fHqjIkcgDz9c4oeL5LRUFUrwsK9T5dvQz+8GXVnISs2tvMX2iF3mS7Zg9He6pKpQ5GeyVpegdzd70ZUuWm4+u0/lI3YLuodrzpeKs9AvXPpuzAb0zP+HhyjXUptLvq79UH5Hc3etAqG+ob4wY2EQqklNTQxKI3UYsuLPtnFWwvqCivVxFXj5D26iCZ7MMyfzX5naGjMCvwAfmFKyMqb7flvNflzsi+IlPOFJhTwrIc6lY+QxSceOw/3fqXC/fkcoQGwUHvB39QpEKZq/G8Ue/4WJ31qZ/FbDYNB+pKM1kiKsoQe/x7A1/4eRgs3LaRjDuxLWVfhG1jyXCdcELz9xBH+52og1UJz3YCQOEgd2CgQ2kwpGQ5Psst9mIBI/nn+2Oidn5tzKWp2J1TUGjQx8h4ERg1KNgIH1j3IEfFHiObvxlNu8A30jHjIJnPynwPlWxMKb/WjxIKvivve+o8K4ruDuhIjtWl+2TkaXCY0IqmKai74KCZ+sK3jxTMD+iBn9tzeXzkYr5jo3yZGBwJx8cwbinbvo1t5V8Icf3u3cz/ZJVjM0pePlcweqsikPnNv56ncvQmn/E8soE8kIQMcZSUHWhAkUpDDElRegdckILECKWX4CuqbpNf4HsHXTCLvLYHMjrKkP7eTe6z7jgbkrWyzM7Co/VobY+HVUj1eg6X4WmzlTES3owewIKesrRfq4WXWcq4W5NCf7+nP9AzKp8RPpZtE/Yl4cseQCXvE/R4zTvSzk/nZMDIAwQBvYrBjaQikj+9bFb/gUS16Li/VXmc0LxFSpuripYmWA4dl3BeZf+cOfOOxSp4PHuCwqeX1PRWMKQX6bi0pKC6wf8ZQWpWL+horOUobBaxcJTBYvdumwOCjOnzcuXj6t4uaCiroAh36Xi8pJOInh6OFJhS/SPXuT0K/hgIBXh5AvAWunnnlDx9o6K5iKGojoV11c2k4qC0VdYnm4NuUOEsSRUnClDXjyDz0kPZCAuSBhsSEjVkFBRiO4zhcji5/xIjPONeDAWg5TWKnQeyUZGhgOJOemoPlkLd0Wcry5BCjqGcpGT5UBSXhYazrrhLrcF0hnSu2rQcTgLmc54JGYFygfT/aTCtLzNWj9f31q0T9jXn68QA56PONu082Rb1ovOyXERBggDXxsDe5ZUpPSq8E6q4M61d07Bw5MqSlwMJ+cUXKzVHT9PD0UqQhm6fFzBi3P+EQ1ebvC2gpt9uqySUQXeKf2ay7By2qMPFUzX6PlzBxW8m9blc1Lx8ysFb1/qx70jen6ho60tNKmwki/KWul34qGCq63++nh7G6Y2k4rycx9w72xNSFIh6rAKzaYXGHOg5EQtKvP19ibUV6CnJ2UDqWio9pMIXkd6Rw062pNMdeEkpeOAP12QknDlzfSzapMxjbFM9Nz6hIudtJjZaBu6JqdGGPi2MGBKKviIhPHg4NgtIxUpfUqAVKgY86g4nsd8BOPIzchJRUqVivn7Cl6/8Dv1d6/9Mnk7Bam41qY7vewjCj78oAbfxn35TKY/GFNx9pGC9691wvDulV6ey+ek4u6Qipwc/ciUFkKKmzE0qbCWL8qakwp/eZmAhVpTUX7+ly9EKhJQfqoOPZNu9FwQRx16D6YFRjIC0xdl+tt/cmsVurqSg6TCnpsD9/FqdE0Eyk/WBdMFqai1KO/rvygsJBWkYrqLtl4L3FH4bTkS6m/qb4EBU1IhMhjD3UcqGE6vKDiW4ycV3FHLjpI771AjFSyO4eKagsWjDIUBp952Ifqk4lK7Thh85CFNHxngui726KTFaGtxbUUqzOSLsp9LKsrOfsC9c+6gIxdyIw3NRgIY46SiBtVlgWkRMT2SELthpMKMFLDYZFSerUV9XTKSAmWzOqt3iFQ40XuHj1TEb9tOkdqT8tHDmzBAGNjNGNgHpELF+JKC4dytjVSwdIb7XgVdgYWenHzUnt9MKsJOfzhDL9Tk8vj0xA9NOmnQUhkKA4tIxUjF9kmFtXwBOhZGv3DTHznDP2F1the2be5I4aSiM8SWUv/0hxvVxfpIRGyCA0mJEZKKRCeapkqRE9jKy+3Jp0fESMZWRipC6SfsF0nIWCVGnv6JMbfelkjKUR5yDoQBwsB+w8DeJRXSmoqBGwoWuhlsySrm1iMcqYhlmFlTcOcEQ1EOQ2W7ioWVzaTixa0wCzU1FXOvFVxqZ3AGtoXGx/oJDl+o6b2joqWYIa9UxbSHr9HYuKbCjFRwJ5mYLi3UfKiiMiA/0RZevgAq3yFipp9xoebCqorXEzoJ4jJiXTO4++Im6hM2xgv54UKWlo3WyQqU5sb7F2oGRyL8CzW7h/PgdDqQkJWGylE3GqrskY1UxCSj8lwtGptTkJTqQGpZHtxj2yAVJvqFa5ecHls6iVuv76BxmzaSZdE5ORnCAGFgL2MgJKkwrqUwXu+GBtvbFfwc2P2R3qriuVfB+1UV5y9HRip4G9JrVSx6FHifK1i6rKJrzL/4k6dxp84Xal4fUvH9PcW3pfTeBRU5xi2ljKGwR8XSMwU/exXfx7X4VIxPhkNF/5SCtXW+ZVXBwujGLatW0x9iTYbYUipC/vGu0yXh5Ys+4u0w1U/aUvpkTsXAxOaFmny9QPv8b7h75TCc9q0TC8ZsyDxQjo4Jt297qRhJ8NnHHo/87nIcOOdG12kX6lpSoAW2jEYy0qDl56J+tAbd56vR0u9ETmvl1kcqLPQTNrQKY1Macfzh77h+vHzDWhurMpRGToMwQBjYrxjYRCr4tlL52C1rKIwdwHJULK+paAm8HdqSGJI1BkcqQ4q2dednlE/X+k3PtGJ0z72D5/EyeorItgIbKS2zWFz/DVfHG5AkfT9DpFOoY4hsQbYgDHwbGNi7pIIxtF9W8OKGiq5KFTmZDPFx5PC+1I3LRw5Sy7vhCozCfKl69pLcpPJ2uLITNn1pdC+1gXT9Nh701M/Uz18LA3uWVHAD8U9xd5xSsPxUwTuvisEsIhVfCzhUDz2kCAOEAcIAYcCIgT1NKoyNoWsCOGGAMEAYIAwQBnYOA0Qq/mvnjE/AJ9sTBggDhAHCwH7CAJEKIhX0wSbCAGGAMEAYIAxEBQNEKghIUQHSfmLa1BZ6cyQMEAYIA9vDAJEKIhVEKggDhAHCAGGAMBAVDBCpICBFBUjE6rfH6sluZDfCAGFgP2GASAWRCiIVhAHCAGGAMEAYiAoGiFQQkKICpP3EtKkt9OZIGCAMEAa2h4FvnlTwf2NUVdjxqDEWzm3+iXM/g4+xOBQduYtLU91IJfsQASMSThggDBAGLDBApILFoL1Rwx+9cSj+Ak6TOePw8agNNV9CtlaM9slV3H7xFzxrLzBzugMZhk+Vs+pL8KzNbLtt/BflNRe8uH97FDlfoA3hCBlzjmJu4ATyd6DucLrx9N2uXyRtoDzbeyMju5HdCAObMfDNk4ovDYovRSoYi0HRuBee21OoLclHdnkvTi39idmBvA0s+nNJxZe2Tzj5u91p73b9wtmX0jc/FMkmZBPCwPYxsGdJBXeq470a7rviMH9Qw6djdqw1xSFf+ltkjduOP5viMHrAjo/H7HjbEYcmh/5/EJ7+/0585zv+czAOedLbMEuMw4vjdhyL1/PHZsbhj6M21Infc9ticKLZhl+GNHw6aofHrU+hsGwbPh3XgvKD9XTHIS1QD4uLwWCjDb8c0/D3UTseVscgXdLBCtiMpaLzxifMdCcFSURy/VmcOlyJWMbAaq/A8/YTnrz7e8Px+MYxJAfqKD79FvcvnkDP3Gt4Xv6KxfkJuFL09vJ0Uf7x/ZPIlHRjLAt9dz9hcuggTt//AM+Lt5id7EKG9Gt45ihH7w/ruP/iNyxePYaO829x/3xdUF/L9mWP4frwE9wYebrhWOzqRmLQfrloaJjFpcFVzA8s4mRVpZ7G0tHW8wSjrhYM9T7A9aN3cL6hAWkSPpitCC1NV3Hp6DKuDyxirKYGKUJ2mPIsAv14+5g9FosDGj52x+3a0RarfqC07T9cyXZku28RA3ueVPzZE4dD6TEoccbh4VENqyUxQafFScPfR22YyY9BcWosJns0/NkcC0fAcdjsMchKiEF+mQ2bSAWLwfl+DZ4iXZ6r1o6PTbGI406bMTQ32vHHgTi0p8egKCMWi4fteFDoz8/iGPKTYlBQZPNNf/Tyc37EM7/TZwzVbg1/dcWhJTUGxZmxuHHYjocR/lqcsVhUTv6K+z/0IllylALETEuDMycPzs4FeNauo4Gf8yM9yVc/z8dJw/LaEoZaypFT2Iwjt37H/elWaAH7xCVmIi0jC85D92FGKu7fmkJzWSFya07i+/W/MNWR4rM/J315J15gdekqmkqLUdA8iZnHv0ZOKuKSkZ7kRHrhOVwfOIMqfs6P+PiA/WKRX3sbVzsOozQlC87MVhw7tISThX6SxQKkYLbrGNzpOcjK6sfpIytSeixKGh5gtr0f5Wm5yExvxlD/EkYjLR9Gv2A/xMfh0YiGfw/EoSJgV5FGITkdwgBhYL9hYM+Tiselkt/TMrUAACAASURBVNOvsePv5tgNpOLfbbGwBR7msbk2/M9AHFyGh7u9YDOp4B3tqrHjX21+EsKd5Ll+DTfy9Dd5Ixiq+chIvV4/Tzeb/uDyJg7ZcV36s2qBy45/Sfob5RuvYzK7MfH4n/AsPcTYSD9K023Btou8VtMfnFSsXunxkSSeP7b+GpYfT6LAYB9b+01TUnG5Pz1YZ8XEr7h3zh0gFRnovvUJ3/cKkmFD/eV/RkwqgvqbrKlgLBtdB5dwRLJfhmsePzbVBur3j1ScKfXXz+UV1z/ErLssqK+oQ4T5tXdwta5iS+Ujmf7QtBhk2sxxI+qnkBwMYYAwsNcxsOdJxb0C/WGdV2HHf9r8Iwm8Y/hIxcdG3ckzLRY9+ZunGMxIRUxmHH4fsqEthoElxGFtxIY+yTmk8dGRg3xqRcO/hjX8a0TDpya9Pq6DFan4fkDDv0cCZXn5YW2D/pGAi9kyUXpgDCfmXsDz4ikOlWgbnGY4UuGZbAzmZ8kVqG+tDE6PiPqtSMWFdnuwfCFf4zHVHHDKxTiy/BFnGvX+8U23RDj9Ieo2c9qMFeLg4Sf48dgqFob8x49Dj7HY2hgYyfCTihP5OtHKrbmN6w1VQX0TnQM42XcXc4OB8seeBNPFSIdVeX//7u6FpMKOFJKzIgwQBr4GBr4pUmFmUDNSwWJiMXfUjlknQ2qJDf+3My7ocFlsLK4PalhxxaI02T+10dNo3zKpWCwMTItI0yNmelrFM2ZH8emXWLl2MDi9w/NvhVSYyd8uqTi68qVJhQdDBYFpkeD0iCNAaqxJBYt14cgRD05VuJAVKFvVcJdIhcVWMTN8UDw5K8IAYUBgYM+TCuP0hzxSYBypEI02hqakgjEcaNbwS20s+to0yHWx+DisHbfhcGDkgq+xaGoITSr+GWJLqZj+uClNpzgcMSiRFoYa9ZSvWUwleq9cQkOGPhLgc/4Pxjd8b4NVfY+HJltK+ciBPFIhy5fPt0cq/As5pzvjA04+BjXTf25j+uMEroXYUuqf/niE4by44MiDzZGFrPgISUV8DyaGZ+AO9l8MSuofboNUhNZPth+d0wOXMEAY+FYwsOdJxR+BhZrFfCriyOaFmvL0h9ypnAQkx0sLNfttcCf4r5OkHQyOfBv+56ANj4bsOJmoO3A+ijE/ZMezGv9IRW2hDZ6BEKQiOQ7eETumnP4RiXxHYCFnYKHmp744dKbFoDA9FvOHOHHR65D1NZ4zloEDP/6B27PDqCzMR3ZpJ47f+xN3zrmDCzF5GZZ3CotvnuBoVbF/oWaq3+nyNCtSwZgNCelZ+kJNzyRKM/h1JuJtfKGqnzSYT3/EouzseyzfOoWChDho+YO48Pj3rZOK5MOYOTaHHmeuf6Gmwz+9wxeq8oWa8z0jcKVlITO9EUf6V3CmJC2ykYqYShw9uoRz1TXISspBQcEIxg492DqpMNFP9Bcnj0NtdrxoiYt4Z48oSyE5IsIAYWCvYWDPk4p7rlhc7/NvKf2pKQ4F0k4Iq5EK/rDnaxrEVk8R/ue4HTPpumNntlh4RjT8pz8OhYYFjJnZcVg5ZPdtZ33VFofDtSFIBYvBgXo7fj/mr0seSWG2GAw12fGr2JJaGwunpH84MMWkN2DgyjPcXv8LK8+9uDJ1BHnSlllenq8NqDn3GPdeffRtDxVrHniaNamowPCTEFtS377FUGl4UuGrO60VY54/8fjNRyyvzGJo5v3WSQVLQUXdNcwOPvZtLZXXRDBbLhobr+Hy0dXgllCxEyaSNRHJWYM41f8A84MPMNXaDXfN4tZJhYV+PhvYYvFwRMMLl76gmMfTQTYgDBAG9iMG9jypuCst1NyPHbTX28RibEhMT4MWx1B69mfcO1vzTTlUlhmHP4/bMZqgE9W93qekPzlDwgBhwAwDe55UyLs/zBpJ8TtzA8hTKOk5bgze+ycu9WV8U6Qiz2XHf3riNnw4jPC4M3gku5PdCQNfHgNEKmgo+os5ecaqcHzNP4Xy6PUHzP8wiDz7t/PGztft8AW+j6RvqdBD7cs/1MjGZGPCwM5hYM+SCgLNzoGGbE+2JwwQBggDhIFQGCBSQSMVX2ykIhTgKI4eRIQBwgBhYP9igEgFkQoiFYQBwgBhgDBAGIgKBohUEJCiAiR689i/bx7Ut9S3hAHCQKQYIFJBpIJIBWGAMEAYIAwQBqKCASIVBKSoAClSFkv56I2HMEAYIAzsXwwQqSBSQaSCMEAYIAwQBggDUcEAkQoCUlSARG8e+/fNg/qW+pYwQBiIFANEKohUEKkgDBAGCAOEAcJAVDBApIKAFBUgRcpiKR+98RAGCAOEgf2LASIVRCqIVBAGCAOEAcIAYSAqGCBSQUCKCpDozWP/vnlQ31LfEgYIA5FigEgFkQoiFYQBwgBhgDBAGIgKBohUEJCiAqRIWSzlozcewgBhgDCwfzFApIJIBZEKwgBhgDBAGCAMRAUDRCoISFEBEr157N83D+pb6lvCAGEgUgwQqSBSQaSCMEAYIAwQBggDUcEAkQoCUlSAFCmLpXz0xkMYIAwQBvYvBohUEKkgUkEYIAwQBggDhIGoYIBIBQEpKkCiN4/9++ZBfUt9SxggDESKASIVRCqIVBAGCAOEAcIAYSAqGCBSQUCKCpAiZbGUj954CAOEAcLA/sUAkQoiFUQqCAOEAcIAYYAwEBUMEKkgIEUFSPTmsX/fPKhvqW8JA4SBSDFApIJIBZEKwgBhgDBAGCAMRAUDRCoISFEBUqQslvLRGw9hgDBAGNi/GCBSQaSCSAVhgDBAGCAMEAaiggEiFQSkqACJ3jz275sH9S31LWGAMBApBohUEKkgUkEYIAwQBggDhIGoYIBIBQEpKkCKlMVSPnrjIQwQBggD+xcDRCrCkArGGMqOqLh5QUUGY+SAw9hrtz4s4jIacXDqAQaqqQ+j3Ud9F+sjui/C5QuXbtR7q/nl8jGJySjqKkVJ3u7AQ6RtiTSf3Na9ci63zexctCW+qhC1LelIsm+v/5x9c7gw1ofc+O2VF3pQuJkc7WlSwRJUDEypeLqmwPtMwb1phrLEjSBhNhWzLxV8uMuQtQ1SwElF44SK57dUFEjlWRzDtdcKvN8zaIyB5zvlUfD+nopsKd9WQFcxruD1xEb9zcq7JxT88kb1HR+8Kg7YNpbj+gze1vO8W1fguaKgNm1jPjP5uyWeVal4/VRFxTZtytuhlZzE7NpbTJ/oRV5SdNpfOfkbnrz723c8fnsHjQb77xb7WenB7OlwT1WhzMlgryxF72g2EiU78we7OLgccS4/8EW8qCdcHmNZUc5KjpAp5xXnsjyRTw5FPjmMdWah6UwV3E1pSHLoeOD3jKM4Hy3n69B7Oh+pki3k8ls5N+pivBayeLx8LvKJOB6KPCKU07ZzzrQEFHSXof1sLbpPueBuToYjRrfHdmQKPYX+ZqGZbNE2Y2jMH5ucjMIeFzpPFsCZsFnncNi2ORvQO/MTHq5cQ21qTND2xnroejNpCGeTTaSipqYG4Y5wQr9GOn8AdM4qWF9Q0V6uIi+foW1UwbNZhmTpYcBcKp4/UOF5paArBPi2q6uPVKwq8KwqaLIxsDwVS3dUeL4SqbAnqcjMYMh0qVixIBWL/f582fkMQ3Mq3izsrRGXzyUVzF6N449+w8XuLMRIuNhuv4tytqRMpGVkIc01gR/3KqmITfORitJMhriKEvQez0a8ZCPjgz3cNbeNMY8cJ2wn8ohrEZrFi/SthqHksbhElI/Xwu2yb8ADY7FIcZeh47wLFe0l6IwiqeB6C13ChaHyynHCBkKOuN5qyNub0VmNrqFcOJ0OJOVlovaUG/VV9qg72HC68vRID7mdjMUho7MKXYfTYZdwy/OwMNj25WGJcF3wwjN3cIPPkOug8yiRCitDcsJhlf610rgTX11T0Gh40xj1KBhI15lr3pCC9TMqjtxUMFOnx4s3+blBhpm7KrzrCu5PMuTE6Xn4yEFwNMBAFnykYl3FxEUFM26G7CMKbp5WsSTlYw4VBy/4R1JeP1ZwdUhFigR+lqxibE7By+cKVmdVHDq3caSCaSr6Lih4tq7gzTMF8yMqUg1vEixLhceCVFxr09vDclQse1X0BMgVb9+LKRVHrinwPlfwaE5FbYqU30L/SOwXTn+r+lmtCq9Xt3+wHxb9NmTpKu55VRyXhq/tjQq8TxVUSjbSmn/E8soE8qQ4jlHmPI65NyvoSNXbG1M5g3trl1EWyMsSXOieeYRbz/+EZ+0FpsdbkWaUk3UC10OQCsbycPjhJ0y0xgXvl8JxLzxTzcFrphWjfWoVt178A8trzzF1vBHJBvlf8n5iLAVVFypQlMIQU1KE3iGnb9RN1CmcQaQhL2eWV8gUocgnyvBrcYg8nxvKdQhZccVF6D6ZiyTpPuRpjGko6C1AVkosWE4+OnYRqQjVDq6zWbxoq1XIWALKT1WjIkfHv6O2DL2H0hFrsI2VnEjSwukZLl3UESofi89A/WQFCpL1dvD84bAtZLLkAVzyPkWPc2N5kU7hN0Qq4lpUvL/qn3qIr1Bxc1XBygTDsesKzrv8AOGO7+C8givNDCUnFDwbU/UHemB64PlNFV2lDIWVKuafKrjRq4PLlsh8owE5/Qo+SGTBB1o+/eFV0NWi4Nk5FQOLKgaaVKwF8vG6y8cUvLmjoqWYobBaxcJTBbMtum7uCRVv76hoLmIoqlNxfUUnFb7y4ypeLqioK2DId6m4vKRgvkPXz6fHVkhFhooHXgX9gRuQO/U3TxWcbmbIL1AxdkPFi4sMjsB0Tjj9+fSKmf0i0d+yfo0hJ0dFTgef2lLRzs/5kc58Dz0uf+CmAs+Qbs/6SQXPz/nTxcOgYPQVlqdbg/0u4hkrwIDnIy52JgfTCsf8Tp8/VPlbkGvyF9ybG0N1aRGyy/twZuV3THWkBPP77b89UsHfFItPefHgx1OoLMxHzv9v78vfosjVtv+dqpxep1n70NBsF/vSyCZwsQo0oKCgIoIrijiugwvquDaCG6OMMuo4i3Nm9LznO/P9T/f7prvTlV6qusBWWZ4f6kpVlidPkrsqd5InFd8eHF98jzO97ij5Qt9Yl7FajC7+icVXMde5ftOdAmOZqD1WjeI0BlZSir6RXNikDkV8xM26XEceV8QXOgs/2RVhsivSyfFi70V82V/4xbpCnuyf1V6H/v7oNuThjFlgEWQyCakQecty9e6FDmZdLieRfOEnu3p5mvFnLAt1J+tQIS2H2moqMTDqjRv1izzNyE0Uh6dP5B/rJ/JJ5MbGFc+MuVB5qAn15dFLGMmwraUvC34HjrdFpxfh5G4jUpE9oGL1tBq0ZRiYU/DgsIpKH8PhOQVnGsMdjU3FhRehTtTaoOLV99rUP++UeKd4c1DrpCsnFPx0RnsWgLJ36ZEKFX4Pw+WAgkc3VXjrVaxKpOLAXQWXOzV5VRMKXp0KERue/6EHWjh/bpmJJhUTDxTMNmjpi0YVvJnViBHXz+xMhcWuom1awZv7KkrCHQfv1N9eUGEPP1t3qni9pKAyTCqS6W9Uf7w8yfQ3yl/UvdHyR+5uFT+L+raomHmqYEaqLy6j5sQ73D2eeHat9PArLF7sC35EQzMLf+B4m1P3A1hx5CfcO9kcFc7WOVPBGP+YvcdkGKtc1/yxZSye7YqSL+oh1mXMgQxvMbyFMVdOmqn0sfISPSf6uMf68XTcT6QX4eJZduV4sj+/10tnlEakE7KEDNkVYcLN6anHru6MiL7CX3aTzVQI+XIavXsR18jlaXm4kCHiimfZlePJ/mu910iFHYVD9WhvSUcqSYWsp3xvpKdePD1/Lou/B6VjzWiqtUbqzyiP2DDG8uC/9RFnetPXlT5WHj3/AwltKnjFJLKrEP4boeKyB5UwqVAxGQhNg/OOjC9zREhFjYrnD1QU807SpeLaSwW94eUSHpd3ivLyAF/CeHdBjRqt8bIakYo9bhUNexUc7WBgO9WIoSZjKo4/0nThcmT5icJ5JysMNUX421cKXv8Yut68jNcvGan4OZz+7aqCnxYUDJVqJEXOj+vHshi6OtWggZrIX9RlvP7G9SfSG+lvlD/PL6iTgaEmy1FxZ1XFPi+DpVrF8rKKJqtWPp6+5uQvuqTCUjuLOytXUW9jYJ79uLT6PVqk5bSs+mOYuf8GgZfh2YDVj1HLF0H91k0qanHgyUcsrUozDasf8Pii3/RMg6ijz+WKj7lZl+uRKC73S3TJesvhsf7yc+y9yI/7y/ex8cRzTk/DJ5MKIcuMK3Qy63KZieJyv0RXrA4iTqx/7LNGKhgsDhvsVqZLKmLTmnkWZeBxhU6ym0iGHB57nyg+99NIhbbMqBc3kb8gFbN9xkQzUVrySzyLoUsq9Cpso9hUaKSC4eiigv2FoR0YI/NaR144quId36HxInS9WVU1wpESUqFgJFfrxFirNqMhOlX9TjmedMidrEh/rjs87S+m/6XpSt5GyUjF/EhoGaEgJ3pZgKeV84ttb5G/vv7mSIWR/kb5C32MZio4MeTtfWc4tLz16gyLI4TVx9/h7ommhKMQZm3G5PKvOFRvRab/PpaujiA9PGvDbC2Y/OE3nB1tQVF4NmDn6TcpJhW/4ljP+mYaUrH8IepYz+Ufdh5m1k0UV5Yt5Mh+emlE3FhXL60sJzaO/Ozu5qQiMyEeRLxkMxUinhk3Vv9kz1xmbBw5HxEm+8n3PDxZHB5fJhUivd5MhQhfiyvrIN+blWE2DScVZfs/ZabCi4HbfKYidTN8Zsu4VeNFkYpv0jKCMxTffPNNwpfO5XIFwy2Wr7/+pJEKFVMLCg4UhUiFmKngHQ5fFrkxoqIgnwWvrlMKnkyESICYqYhd/lid0UiCaHT9mQoFe2VS0SaTCoZkywd8eUAsj3B9Ei1/XGjT9HG6GcokI1SuH/OaN9QU5RGuUafO9Ummf6LlD1F/PD0vn5H+RvkLHVmdipcGW0o9gwrezquYvqvgXItWVyJ94YEfsHRpILLEI/y5y+0mGs/+ju+nmtFy4U+c350bwT3zHMDl1/fQEZnZssA3/Ws8qfDq2VRko3f+I74dDK3f8zX7HTO/49ZUbTCP0PLHXzjRro2wHO4SFHnMTcN+qeUPXk/iA5/MTRQ3kZ+Qw8PkS/YX98KV5SRKw+PJceU48n1Giw/+3TmGs0HJSIXZvGSdhW7J3ERpEvkJOXLZxL1RmIija6g5khtXN1yeGZlCNnfl+PK9HEe+F3kYuXJ8cR8qRyPqSuLffRHHyGWsDgef/oHJpq/fpxnpuZnCokiF05WOuro61NbWwmbTPna8QPyZ+/t8vqgPwdcqrGxTMXJDwbV+BnuWirnnoZkKZlNx7oWKg0Ua2FxdCt7eVOEJ2wzwTvHFDRW9VQyl3FDziWaoyTvFDI9kqPlARR3fwpnLkMG3kIYNNY1IRc3hkKFmu2SoedHAUPPakiotfzDUTKlYDRt6FlepmA1wG5AYmwqnirlXCs51M3jD+qVZQwQrdnkntq2MOnVe/mT6J6u/ZPob5S90ZUUqllYVTNaFDTel3Ro8DnOr+J4vDz1X0eHU2lqkt/rO4s7KTezU2U7s7JjHw3sBnHv+DAOSBTiztmLq+XtcnOhEcWEZqrrPYvbRL/GkwtmH06s/41h3GTx8i2muB67wEkzB6DIWA5fQUlWG4uZjuLjyFocbQjYbwlBz4c4smipLUFDtx9TCv3BuyLsh3i9ef6Iz0HNFHYtwkSb2WS+e8BeuSCdcIS82XDyLcBFfuLHh8rOlsBi7TlYgPwYrnPQ5Mp1IdzuRXl2G3mNlyOf3bscndbJCJz1X6CbCY8sknvXiCX/hynKEXyJX3lKax7eUFuWhcaoJrWF8ymm4TLNyRTo5vnwvwmPd2DjJnkV6i7cY3dOVKFjnT7CsVadx69VttOp8H0Q+5EYPAIzqI45UcGJRVFSE8vLyqI8bfy4oKIjyMxL8ucMc3Qp+Du/+8HSqeLGq4O2SipPnw6SiUsXycwVN0ha94FLBSxU9LqnT3afijNhSOqNtKRXT/2Iro3DfrSo4WpmcVPDyB7eU/p8xafDnXI8VfGewpfTJnIqRac2mQqTfPaMEy8G3Sl6bYMiVyhOMwxjK/CoWnin4eVUB108sBX0KqRD5D+noz0lHUL5O/Yn0RvqbIhWMoe24gucroe2l3DiXyxYX12N4XsFP59XgrhXhL1y+Ztp99TfcuTgMb4IPD0sbwOzqRzwOHIv7aVl20zTOPvwFCz++w9WL+9ExtRJPKpgNRQPzuLb8Jx69/ojHr3/AUHibHrMXo216ATd/eI/Ak2c4PlwX9R8I5qpAz+xj3F75E4HlF5id7IzbMizK8TVc8WHXc4VOIpw/690nC4sNTyRb+MmuUX6JZDJmR/FII3qGcpEmbR/nW0orxpuD+nOZ4hqYqUB+jJ2OnH+ye6GfnivSi/BYnWX/ZGFCllk3+PMrfzV6+M+vjtehuTM7JT+/Wo+eycoZG87zsKRloXa8Ee1t6VH/HDFbfmt2K8Yf/I4r4zVxy6ZmZVA87Vss6iIhqeDEoryiIkIiOJmIJRlCwNdyg/9cWFbREWaY9kyGLCeDy82QHTMKSaSj6BTF8kOiOOQXDxhRJxul/jj548tfssGt0FG4/H8Q/XNvEHj8EP7y+NkMEY/c+PbmH3P5g27mOVE9xqbTiyP7m0kjx+f3Io3sxsZh9jSUDtejb6oapXmfHw9CF6GHmWcRV3Zj08lhG+Ve6GjGNdKZpzcKd1aWoutEI9o6s+K2wBqlE2HZHZcw//w3XJ5qQWbMQE3EITf+e2CmTnRJRVp6JmprfSgsLEy4HGJG+OeMwzu17vMKVm6o6KtTUZjHokYeyfIWnaJRZ5RMxnYO3yj1x8pUPHmlojfJ9CW3QXDX9MMn/exnO7ffdi87X+5w5efAE7Octt3rZbOU35GfDQ//UZn0X5W16J5Z0w1fwfpmONaSz3aMq0sq+GxFlvufQcNMbqC5ESuHORh2HVHw8KkCvrNjNN/8qGOjdIobsV7N6LRR6q98XMGb79SoMyvM6E9x1jcKoXqjeiMMEAaMMGBIKjix2ChbSI0KQWEEcsIAYYAwQBggDHx9DBCpkIz+CJBfH5DUBtQGhAHCAGFg82KASAWRig25tEUflc37UaG2o7YjDGxfDBCpIFJBpIIwQBggDBAGCAMpwQCRCgJSSoBEI5PtOzKhtqe2JwwQBgQGiFQQqSBSQRggDBAGCAOEgZRggEgFASklQBIslVwasRAGCAOEge2LAUNS8U9PLurr65GRQcfC0kuyfV8Santqe8IAYYAwYA4DuqTC/U9P8HAxjyfkpqebOz2RKt5cxZutJ/6Tqeq9Km6eUpG7zr/Hmc3LKJ4ttxVDM/cxUm/+B2NG8ijsH/AOzuHU5CCK0qhOCQ+p/W5QfVJ9fi0MJCQV2e6cIKEQRIK7/PRS8fy1lI3Nl6WrGJkJH9j1TMHdWYbqjNAHmjWqWF0NHUIlDgPjLj9wazAz+Uc82R8jm6Y12e9WVfTYk8uU9efyR+Y1GULHd/dVFErkgcdrnVbx4paKUslflpXofj366R3w5aw8jEvLrzF7aADFUt0xhwdNMztQ7WVw1FVhYKLA8M+W7q4d6OvNMrXcktvbGDnHYWCmEgXS4U+Jyqvnx483z2mrRvfJ0GFRAydLg+QsVfL18uX+yerH7m3BwNkf8GDxOzS66ehlo7qkMOokCQObAwNxpCLL7U5IIDYaseCdbe8lBc+vqeiuUVFcwtA1oeDZJYYsfrS5gyE3fBT4yJyCxUk1eGw5P7rcZeIAmWSkwpEZludTsfgJpOLGcOg4da5X8HKzuKOW1/MyrUe/RKSCOeox/ug3nOnPjzsJkFlzgqSiKo/BVluJgfGCqFM4Y/VeC6mwuuxwZTrgKixC56eQirRc7JzxoabMFZKXYQ/Wb6rkx5ZRfjZTP4xlwHdqFYG5oSBu5fR0vzk+otRO1E6EAQ0DUaTClZ4Z/C233owE9+e/7bZYvv6oihWrWFpW0OrSZgg4EZgIKBjxRPv1XFAQ2Bd9ZDYHQXCm46yCZz8oWH2q4tqkdrR4hFTwo71vq1h9ruDOtIqCmGOQg8ep65AK5lQxeErBs+cKfnqm4OpBNXK0NZfPZyqu7tJ0jQUm7+QjMxh31bijuY3kC1mG+mWpmJxT8OMLBUuXVOw5EX30OpfhbL+Oh4vTKE5AxBjLxo5TtSjPZrBUlmNgzAunNJvC0jJRNVKH3pON6NyTh5Ke6JkKZnehuI/PIjSh/5gPTW1ZUemDbZSdj45PIRVJ0jODcOZIR6m/Bt0nGtF3rA5N/GhouXz2dJQN+bDrBC+fN1i+XT2ZkZmYZPUTaaOsEZxbfQq/Vx8LIi652seL6oLqgjCw8TAQRSrMnPWxUc4CsXWoeHuZBTuhtFoVN5cULE4z7L+i4KRP+zjzzjsRqeD+TacUvPhORWslQ0m1inMLCq70hNIKUvH8horeKoayehXXniqY79dkc0Drddo8fc2Uih+vqWguZSjxqTi/oJEIHp6MVNgzQrMXhbsVvIshFcnki5fNSL+maRWvb6toL2cob1ZxZTGeVJROvMTD2c5IRynkBsvOMlF7rBrFaQyspBR9I7mwhTtdfgpkbm8D+g8Uw5vnQmZZIZomGyLLHzw8u3MHevcWIDfXhYxCD+oPN6Kp1haVl1GnL+sSe8+8heg61QT/qSYMzIRcfu8/VgqPTAx0SAWvX09fA3YN5yPPm4aM/LB+Nfagfjw8s60O/kOlKPCmIauiCDunGhBNKvTrR9aXsTKMBD7geNvXJ+uyXnS/8T7Y1CbUJhsdA5uWVGQPqFg9rQaPvh2YU/DgsIpKH8PhOQVnGrWOn3/8E5GKRA1TM6Vg5URoRoOnG/1ewc1BTVblhILVGe2ZyzDqtCceKJht0OIXjSp4M6vJ56Ti55cKXv+oXXf3avGFjvauxKTCSL5IrbKu0QAAE6pJREFUa6TfoQcKLneG8uPlbZmJJxU1J97h7vGGqI5eyDZyGXOh8lATGqtCHSUnEXn9jRKp4OGNqCvRypu+sxZ+f3ZUXusmFTY70txOpBfz5ZNqlHqcSOfPbnuE+HD91yKfkyBBGvhR6qVjzdi5Q5AMC/KHmiLhRnUTG8ZYHvy3PuJMLxlDx9YNPVMnShjYXBjQJRV8RiL24o27UWYqsgeVMKlQMRlQMV7MggRj703zpCJ7h4qr9xS8Wgl16m9ehWTycgpS8V2X1ukV7FXw7oIa3SnlqwgkWP5gTMXxRwrevtIIw5uXWnoun5OKO2MqCgu1K08yhBQvU2JSYSxfpNUnFaH0MgFLZFNRc/KXdZKKdNQciSYNsk0FYzy8Gf7T0izCqWYMDOVE2W6spdMXZZbdZOmNwh1FhWgar0ffdFjH083o6wsZmnLSVDXRhPpyDR+8fIJ0yDokuxekYraPtm4nqysK31wdDLXX9msvXVKhB4aNRyoYji4q2F8YIhW8o5Y7St55J5qpYDaGM8sK5vcxlIU79a5TqScV57o1whAkDznazADXdd6vdUp6dW5EKvTkC1mfSiqqj7/D3RNNUbMHQraRGyINyUhFA+qrxQxC2E23RuVl1Okb5S/CkqXXC2fWLNQdb8TO5ixkBmc4nMjvrZdIRRqqDqeKVHgxcJvPVKRFlV2Ugdzt92GmNqc236wY2AKkQsXUgoIDRWubqWAehnurCvrChp6cfDSejCcVSZc/vHozFQx8eeJCm0YanG6GsrARqZipWD+pMJYvAMmS6Jds+aPwwA9YujQAu2SHIGQbueaWP5pQX6HZEVjTXcjMiCEVWflo/5yGmjryWYYXbTNVKAxvFebt5dnVIJEKB8r2N6O5JqSvWN5Z30xFHQ4+/QOTTVpdGNUthVGHQxggDGxUDGxeUiHZVIzcUHCtn8GepWLuucmZCivD2WUFtw8xlBcy1HWruLYYTypWbiUx1HSqmHul4Fw3gze8LTTNGiI43FBz9baKjgqG4ioVswFuoxFtU6FHKngnluGRDDUfqKgLy8+wJ5cvAMd3iOjpF2uoeW1JxatpjQRxGVbfWdxZuYmd6dH+Qr6em8hQs3lKtqkIGWoGDTm9LqTn56BuogktOxxRo3Vmd6PxNJ/RCG8JzbTDlmAniq4eOoaYIr6efGbJQt2JRrS2ZyPT7YK7ujhkaBpZ/rDA3V2P/rECZDktsObkoXGqcV3LH9aq07j16jZa11jHogzkUgdDGCAMbBQMJCQVsbYUsc8bQXlHt4Kfw7s/PJ0qXqwqeLuk4uR5c6SCl8HTqGI+oGD1hYKF8yr6JkPGnzyMd+rcUPPKmIpv7yrBLaV3T6kojN1SyhjK/CoWnin4eVUJ/lyLL8UEZbhU7J5RsPycb1lVcG0iesuq0fKHsMkQW0qFy3/edbQyuXzRRrwcuvpJW0qfzKkYmY431OTr/d1Xf8Odi8PwOtZILKQtpV0j+SjtjdlS6khDSX8Nek40oe+oD80d2XDGEAauf2ZdOTqO8V0czRiY8aHcbV4PveUNuX705DtLirBzogH9J+vRsduLws66yExFsH3Ts1F3qDGoV//hUlT769dMKqzZrRh/8DuujNdE2eoI/cilzoIwQBjYTBiIIxV8W6l8bRQbithKZYUqHi6r6AiP7uyZDFlOBpebIdtpvtOJlUvP8S8wc1agf+4NAo8fwi8ZJn7NupK3jAa3ioa3j/pPlcMbQ0w+p558RsbBf6hlZXB3N2BXt3ljy+yOS5h//hsuT7Ug8wvq/Dnrg2THvz9UJ1Qn2wkDm5dUMIbu8wpWbqjoq1NRmMeQts5fOW+nBl9vWfkWSndNP3zhWZj1yklVOia2jIaNKEPbRbmxpyMlfyQ1oycnFPYMR+hPne5MVB+IX74xkpNZ0w1fQXrUbhej+BRGnRNhgDCw0TGwaUkFr1j+K+5dRxQ8fKrgzaqK0XyaodjogNtK+vFfbNceDZ0p4p+uR8dQHjKJ2EbZxGyl9qayUIdOGEiOgU1NKqiBkzcw1RHVEWGAMEAYIAx8KQwQqfgHge1LgY3yIawRBggDhIGtjQEiFUQqaLqaMEAYIAwQBggDKcEAkQoCUkqARKOPrT36oPal9iUMEAbMYIBIBZEKIhWEAcIAYYAwQBhICQaIVBCQUgIkMwyW4tBIhzBAGCAMbG0MEKkgUkGkgjBAGCAMEAYIAynBAJEKAlJKgESjj609+qD2pfYlDBAGzGBg25MKfrbEjloHHrVa4V3jSZxmKpji0ItIGCAMEAYIA9sFA0QqmAXdrU68H7Ch4jOQCua14cM+Oxo+g+zGs3/iyZt/R10X9uStaeaB1Z9DYPnsZyn7l36JShpvY66lzlT5q1oCuHHwafCaP3AG9XEHxWWhve9JJE4k7uAwPIwhWfovXXbKjzotwgBhYCNgYNuTis/dCJ+TVDgyvcjJLYb/+kfMH21BTm4+slxWU52qKPd2JRV2pxvZ6R5k541i1oBUHK0uCMXjcfnlSgueLZIsvahfculDTxggDGwnDGxaUsEPc5oacOKez4arQ0583O/AcpsNJdJpjw1NDvzRZsNEjwMf9jvwepcNbS7tfBAe/v8PfRO8/h6yoViaTWAZNqyMO7A/TYtvzbPh/T47msN5MLsFh9rt+GXMiY/7HAg0aUsorMCOj+POiPxIPv025ITzYTYLRlvt+GW/E//e58CDektwFLwWAPKDvtq/+4hrB8qiyARj+Ri88xGnx4Zw9N47BFZe49LpPuSGR+Ss8SICrz9GzXLwWY/HN/YjS+jnrED3zBJurfyJh8svMDPeiiypfpmrBgMXnuPeym+Yv7wfu06+xr2TzRE9+OmmRukrjr7GvTOH4J97hcCPv2L+6jR82Vp9J6sH5qyFv+cGvhsN4GxXP9qao2cqmK0ILS2XcG50CVdH5nF4Rx0ypDbm8lnGIGYMSMXhMmekPIn00UsflG0vR0fbZZzb9xBXRuYx2dCAbCl/Zi9FZ8d1XNqn6X+5uTYqP+awYn7EiQ/9NpRIaRPpQn7UeREGCANfGwObnlT84bdhj8eCSq8ND/Y5sVRpiXyUOWn49z47zpZYUOG24rTfiT/arXCFP852hwX56RaUVNsRRyqYBSd3OxEo1+T5Gh340GaFjTFwW4z2Vgfe99jQ7bGgPNeK+WEH7peF4jMbQ0mmBaXl9uDyxwC/51caC450efr6Jif+1WdDh9uCijwrbgw78GCNR4snIxX3bs2gvboMRQ2H8e3zf2FmV3awfpgzB97CYnh7ryGwfAUt/J5fnsywflZUHFnF/etHUFdWgkLfHhxffI8zve5QemZB8aEVLC1cRltVBUrbT+Ps418jpIIx4/Qc+JxUPFxewFhHDQrL2rH31u+4N9sJp4nOkzEbqlru45r/IHw5BcgvGMHEnkBk+YPnX9L4PS7vGkZVdj68eZ3Yv2cBh8syI/jgOuiRAsZCyx/rJRU8/8qW+7jUvRs1OUXI87RjbPcCJsL5c1JcsGMe14eOoCGnCIXFYzgyHEAcqUiz4dFBJ/47YkOtiXr52h8Uyp86NcLA9sbApicVj6ukTr/BgX+3a9P/nFT8t8sKe/hjbC2y439GbPDFfJwdpfGkgr8YvgYH/tMVIiG8Ezix24kbxfoj6Xo+M7JTy5/L0Fv+4PKm9zhwRTpZtdTnwH8k/c28nMlIxfndnkgnWjv9K+6eaIo8B/XTsalgrAwjgfeYbNTKmz+2jMWzXWFSkYv+Wx/x7UCYpDA7dp7/SyIVxul53pxULF30B0kaf7bu/A4PH59GaUz7JKoHxgrQN/QY4yW2sD4WVLcuSKSChy9gr1S/ub6ruN7WGF3+JDMV82NLuCZdJ2u9ptIn0pnbfAjSwJgbHf1PcLQyRHI4SdrRsRQJl9M7nRbk2bV2kMPofnt/wKn9qf03GgY2Pam4W6p9bItrHfi7KzSTwCuak4oPrVonz5xW+Evilxj0SIUlz4bfx+zosjCwdBuWD9oxKH3cc/jsyBBfWnHiPwec+M9BJz62aflxHYxIxbcjTvz3YDgtT3/AGaW/GbAkIxWnuh2RTrBsahWBmfbIc1A/XVJRiwNPPmJp9U8svgpfqx/w+KI/PJNRgb0PP+BYq1b/weWM8PIHY8bped48fuB0a0QfllWLnZ11keUXo/Jz0jM0vIC9BVr+sqFmKPwJru/XSMH1sceY72wN6i9kJ5upOOErgyfTG7mynSESkyw9D8/wjuDw4B3MjYZ0uL7/Ca607AiWl7Ei+Hc/wlhRtP6CdAj55FKnQRggDGwmDGwrUqHXMHqkglmsmNvnwCUvg7vSjv/Xa4t0eMxqxZVRJxZ9VlRlhZY2/K2ONZOK+bLwsoi0PKKnZyL/z0sqfsWxnvCyiFgeyUkLd4oV2LeYjFTop+dliSUVicqn52eOVAQwVqoRgiA5SHNFSAyXnYxUHKnIiIofq49ueqsPe/cGcKTWh/wwKdnRcodIBf0XxhBPsfiiZyIUmw0Dm55UxC5/yDMFsTMVeo2jSyoYQ0+7E780WjHY5YScF0uzYXncjuHwzAW3kWhrSUwq/kqwpVQsf9yUllNcLgsqJcNQPX1l/08mFTu+xYMEW0pDyx9/4US7NjJ3uEtQ5EkPk4qQIehsryAZFjTM/hGz/KGfnpfh00iFmeWPRzhQrOlvd+UjPwGpOG1gqGmGVCRMn+bH9IGzaIrgw4LKnQ8kUuFBl/8JJstCJIfjoabtYcLlD7m96Z46GcIAYWAjY2DTk4r3YUPNCr4UsTfeUFNe/pAbgpOArDTJUHO3HU3poedM6Z8FrhI7/mfIjkdjDhzO0Kaq+SzG1TEHnjWEZioay+wIjCQgFVk2rB50YMYbmpEocYUNOcOGmh8HbejNsaDMY8XVPZy4aHnI+ia6N9pSKnZ/JF3+KD6C+Z+eYN+OipChplt0ciFDy4U7s2iqLEFBtR9TC//CuaGQTQE3RKw+/hYPbx1BaboNzpJRnHr8u0QqjNPz8nwaqYg31Jwclm0qQoaaV4OGnPnI87Ri7+5FHKvMiRopMlsLJvbfw/7SQriD20az4eTLXWFDzaSkQi+9pQ779i3gRH0D8jMLUVp6EJN77kukwoqypru41jeMQocNjqxejA8vxJEKTjbGuhxY6bCteWdQIsyQH3VIhAHCwOfEwKYnFXd9VlwZDG0p/aHNhlJpy6PRTAX/WHObBrHVU7h/jztw1qN17MxuReCgE3/vtqEsxoAwr8CGxT2O4HbWl102DDcmIBXMgp6dDvy+P5SXPJPCt6SOtTnwq9iS2miFV9I/WcMb/fzKNKlgHjSceIy7Lz8Et5fKNhfMVYGe2ce4vfInAssvMDvZCbekH8vpxGTgDzz+6QMeLl7C2Nm3EVLBdU+W/lNIRVB+cEvpzeCW0m+7h9CxM2ZLqb0Ira3f4fy+pciWTnlLbFAGsyK/YhpnRpYwf+AJ5g9cR0/mGkiFTnouOyt/FEd238fV0fuY6exHU8N8hFQE805rwN6hh5g/8BhXd09hsO1uPKmwW/HgoBMrPs0gmaeli+qAMEAY2IgY2PSk4o5kqLkRK3ir68QsdmR4cuC0MVQd/xl3jzdQh7eGTp/v+khPy4LDylDafA+Xmqui6o/l2fDHuAMT6RrR3eqYovJRZ0kY2LwY2PSkQt79QUD8skBkzI50T37wT56ewiaM3v0L5wZzozpFahP9NuGEIi0t9KdOd2YNBgeWcKwi9B8QUW/FPgf+9tuQFzNLJsLJ1a9fqhuqG8LAl8cAkYo1jCoJoNEAZWwHxpdDf+V89Oodrl4YRbGDRtRmccJYJYZHQueLzI/xJZJe5Nu0+uN2P9xA+JH0LxazsileNFapPqg+CANfBgObllQQQL4MQKieqZ4JA4QBwgBhwCwGiFTQTAUtVxAGCAOEAcIAYSAlGCBSQUBKCZDMsliKRyMewgBhgDCwdTFApIJIBZEKwgBhgDBAGCAMpAQDRCoISCkBEo08tu7Ig9qW2pYwQBgwiwEiFUQqiFQQBggDhAHCAGEgJRggUkFASgmQzLJYikcjHsIAYYAwsHUxQKSCSAWRCsIAYYAwQBggDKQEA0QqCEgpARKNPLbuyIPaltqWMEAYMIsBIhVEKohUEAYIA4QBwgBhICUYIFJBQEoJkMyyWIpHIx7CAGGAMLB1MUCkgkgFkQrCAGGAMEAYIAykBANEKghIKQESjTy27siD2pbaljBAGDCLASIVRCqIVBAGCAOEAcIAYSAlGCBSQUBKCZDMsliKRyMewgBhgDCwdTFApIJIBZEKwgBhgDBAGCAMpAQDRCoISCkBEo08tu7Ig9qW2pYwQBgwiwEiFUQqiFQQBggDhAHCAGEgJRggUkFASgmQzLJYikcjHsIAYYAwsHUxQKSCSAWRCsIAYYAwQBggDKQEA0QqCEgpARKNPLbuyIPaltqWMEAYMIsBIhVEKohUEAYIA4QBwgBhICUYIFJBQEoJkMyyWIpHIx7CAGGAMLB1MUCkgkgFkQrCAGGAMEAYIAykBANEKghIKQESjTy27siD2pbaljBAGDCLASIVRCqIVBAGCAOEAcIAYSAlGCBSQUBKCZDMsliKRyMewgBhgDCwdTFApIJIBZEKwgBhgDBAGCAMpAQDRCoISCkBEo08tu7Ig9qW2pYwQBgwiwEiFUQqiFQQBggDhAHCAGEgJRggUkFASgmQzLJYikcjHsIAYYAwsHUx8L+rdgUNGEosdQAAAABJRU5ErkJggg==;" vertex="1" parent="GJ4CANVCQQ8pxDGnjlaz-90">
          <mxGeometry x="760" y="70" width="317.1" height="470" as="geometry" />
        </mxCell>
        <mxCell id="GJ4CANVCQQ8pxDGnjlaz-87" style="edgeStyle=orthogonalEdgeStyle;rounded=0;orthogonalLoop=1;jettySize=auto;html=1;exitX=1;exitY=0.5;exitDx=0;exitDy=0;entryX=0;entryY=0.5;entryDx=0;entryDy=0;" edge="1" parent="GJ4CANVCQQ8pxDGnjlaz-90" source="GJ4CANVCQQ8pxDGnjlaz-62" target="GJ4CANVCQQ8pxDGnjlaz-68">
          <mxGeometry relative="1" as="geometry">
            <Array as="points">
              <mxPoint x="730" y="380" />
              <mxPoint x="730" y="305" />
            </Array>
          </mxGeometry>
        </mxCell>
        <mxCell id="GJ4CANVCQQ8pxDGnjlaz-88" value="数据权限" style="edgeLabel;html=1;align=center;verticalAlign=middle;resizable=0;points=[];" vertex="1" connectable="0" parent="GJ4CANVCQQ8pxDGnjlaz-87">
          <mxGeometry x="-0.4544" relative="1" as="geometry">
            <mxPoint as="offset" />
          </mxGeometry>
        </mxCell>
        <mxCell id="GJ4CANVCQQ8pxDGnjlaz-71" value="填充&lt;br&gt;返回结果中的权限" style="rounded=1;whiteSpace=wrap;html=1;" vertex="1" parent="GJ4CANVCQQ8pxDGnjlaz-90">
          <mxGeometry x="170" y="490" width="120" height="60" as="geometry" />
        </mxCell>
        <mxCell id="GJ4CANVCQQ8pxDGnjlaz-82" style="edgeStyle=orthogonalEdgeStyle;rounded=0;orthogonalLoop=1;jettySize=auto;html=1;exitX=0;exitY=0.5;exitDx=0;exitDy=0;entryX=0.5;entryY=0;entryDx=0;entryDy=0;" edge="1" parent="GJ4CANVCQQ8pxDGnjlaz-90" source="GJ4CANVCQQ8pxDGnjlaz-58" target="GJ4CANVCQQ8pxDGnjlaz-71">
          <mxGeometry relative="1" as="geometry">
            <Array as="points">
              <mxPoint x="150" y="265" />
              <mxPoint x="150" y="440" />
              <mxPoint x="230" y="440" />
            </Array>
          </mxGeometry>
        </mxCell>
        <mxCell id="GJ4CANVCQQ8pxDGnjlaz-84" value="是" style="edgeLabel;html=1;align=center;verticalAlign=middle;resizable=0;points=[];" vertex="1" connectable="0" parent="GJ4CANVCQQ8pxDGnjlaz-82">
          <mxGeometry x="-0.3655" y="1" relative="1" as="geometry">
            <mxPoint as="offset" />
          </mxGeometry>
        </mxCell>
        <mxCell id="GJ4CANVCQQ8pxDGnjlaz-77" value="&lt;font style=&quot;font-size: 8px;&quot;&gt;&lt;b&gt;[入参]factory&lt;/b&gt; 等于&lt;br&gt;&lt;b&gt;[缓存]用户登录工厂&lt;/b&gt;？&lt;/font&gt;" style="rhombus;whiteSpace=wrap;html=1;" vertex="1" parent="GJ4CANVCQQ8pxDGnjlaz-90">
          <mxGeometry x="10" y="140" width="120" height="50" as="geometry" />
        </mxCell>
        <mxCell id="GJ4CANVCQQ8pxDGnjlaz-85" style="edgeStyle=orthogonalEdgeStyle;rounded=0;orthogonalLoop=1;jettySize=auto;html=1;exitX=0.5;exitY=1;exitDx=0;exitDy=0;entryX=0.002;entryY=0.563;entryDx=0;entryDy=0;entryPerimeter=0;" edge="1" parent="GJ4CANVCQQ8pxDGnjlaz-90" source="GJ4CANVCQQ8pxDGnjlaz-77" target="GJ4CANVCQQ8pxDGnjlaz-71">
          <mxGeometry relative="1" as="geometry" />
        </mxCell>
        <mxCell id="GJ4CANVCQQ8pxDGnjlaz-86" value="更新缓存中用户工厂" style="edgeLabel;html=1;align=center;verticalAlign=middle;resizable=0;points=[];" vertex="1" connectable="0" parent="GJ4CANVCQQ8pxDGnjlaz-85">
          <mxGeometry x="-0.3143" y="-2" relative="1" as="geometry">
            <mxPoint as="offset" />
          </mxGeometry>
        </mxCell>
        <mxCell id="GJ4CANVCQQ8pxDGnjlaz-76" style="edgeStyle=orthogonalEdgeStyle;rounded=0;orthogonalLoop=1;jettySize=auto;html=1;" edge="1" parent="GJ4CANVCQQ8pxDGnjlaz-90" source="GJ4CANVCQQ8pxDGnjlaz-22" target="GJ4CANVCQQ8pxDGnjlaz-77">
          <mxGeometry relative="1" as="geometry">
            <mxPoint x="80" y="170" as="targetPoint" />
          </mxGeometry>
        </mxCell>
        <mxCell id="GJ4CANVCQQ8pxDGnjlaz-93" value="返回用户信息" style="whiteSpace=wrap;html=1;rounded=1;fillColor=#d5e8d4;strokeColor=#82b366;" vertex="1" parent="GJ4CANVCQQ8pxDGnjlaz-174">
          <mxGeometry x="250" y="1000" width="120" height="60" as="geometry" />
        </mxCell>
        <mxCell id="GJ4CANVCQQ8pxDGnjlaz-94" style="edgeStyle=orthogonalEdgeStyle;rounded=0;orthogonalLoop=1;jettySize=auto;html=1;exitX=1;exitY=0.5;exitDx=0;exitDy=0;entryX=0;entryY=0.582;entryDx=0;entryDy=0;entryPerimeter=0;dashed=1;" edge="1" parent="GJ4CANVCQQ8pxDGnjlaz-174" source="GJ4CANVCQQ8pxDGnjlaz-72" target="GJ4CANVCQQ8pxDGnjlaz-89">
          <mxGeometry relative="1" as="geometry" />
        </mxCell>
        <mxCell id="GJ4CANVCQQ8pxDGnjlaz-169" value="&lt;font style=&quot;font-size: 48px;&quot;&gt;鉴权接口逻辑&lt;/font&gt;" style="text;html=1;align=center;verticalAlign=middle;whiteSpace=wrap;rounded=0;fontStyle=1" vertex="1" parent="GJ4CANVCQQ8pxDGnjlaz-174">
          <mxGeometry width="350" height="140" as="geometry" />
        </mxCell>
        <mxCell id="GJ4CANVCQQ8pxDGnjlaz-173" value="" style="edgeStyle=orthogonalEdgeStyle;rounded=0;orthogonalLoop=1;jettySize=auto;html=1;" edge="1" parent="GJ4CANVCQQ8pxDGnjlaz-174" source="GJ4CANVCQQ8pxDGnjlaz-171" target="GJ4CANVCQQ8pxDGnjlaz-72">
          <mxGeometry relative="1" as="geometry" />
        </mxCell>
        <mxCell id="GJ4CANVCQQ8pxDGnjlaz-171" value="&lt;font style=&quot;font-size: 9px;&quot;&gt;Token校验是否有效&lt;/font&gt;" style="rhombus;whiteSpace=wrap;html=1;fillColor=#e1d5e7;strokeColor=#9673a6;" vertex="1" parent="GJ4CANVCQQ8pxDGnjlaz-174">
          <mxGeometry x="250" y="725" width="120" height="50" as="geometry" />
        </mxCell>
        <mxCell id="GJ4CANVCQQ8pxDGnjlaz-172" value="" style="edgeStyle=orthogonalEdgeStyle;rounded=0;orthogonalLoop=1;jettySize=auto;html=1;" edge="1" parent="GJ4CANVCQQ8pxDGnjlaz-174" source="GJ4CANVCQQ8pxDGnjlaz-1" target="GJ4CANVCQQ8pxDGnjlaz-171">
          <mxGeometry relative="1" as="geometry" />
        </mxCell>
      </root>
    </mxGraphModel>
  </diagram>
</mxfile>
